<svg width="150" height="61" viewBox="0 0 150 61" fill="none" xmlns="http://www.w3.org/2000/svg">
<g id="logo">
<path id="Vector" d="M51.3745 41.6381C57.7061 41.6381 62.8388 36.4491 62.8388 30.0481C62.8388 23.6471 57.7061 18.458 51.3745 18.458C45.0429 18.458 39.9102 23.6471 39.9102 30.0481C39.9102 36.4491 45.0429 41.6381 51.3745 41.6381Z" fill="white"/>
<path id="Vector_2" d="M81.4564 20.9546C81.4252 20.9542 81.3945 20.9473 81.3661 20.9344C81.3376 20.9215 81.3122 20.9027 81.2912 20.8794C81.2667 20.8583 81.2469 20.8321 81.2334 20.8025C81.2198 20.773 81.2128 20.7408 81.2127 20.7082C81.2084 20.6736 81.2084 20.6385 81.2127 20.6039L83.9302 13.0887C83.9561 13.0012 84.0063 12.923 84.0747 12.8633C84.1607 12.7926 84.2696 12.7569 84.3803 12.7631H86.0942C86.2049 12.7561 86.3141 12.7919 86.3998 12.8633C86.4682 12.923 86.5183 13.0012 86.5443 13.0887L89.2493 20.6039C89.2663 20.636 89.2748 20.6719 89.2741 20.7082C89.2738 20.7404 89.2671 20.7721 89.2543 20.8015C89.2415 20.8309 89.223 20.8574 89.1998 20.8794C89.1759 20.9034 89.1475 20.9224 89.1163 20.9353C89.0851 20.9482 89.0517 20.9548 89.018 20.9546H87.5974C87.5505 20.9581 87.5032 20.9522 87.4586 20.9372C87.4139 20.9221 87.3727 20.8982 87.3372 20.8669C87.2895 20.8225 87.2515 20.7685 87.2257 20.7082L86.7756 19.5184H83.7113L83.2735 20.7082C83.2497 20.7675 83.2146 20.8214 83.1702 20.8669C83.1323 20.8995 83.0883 20.9241 83.0407 20.9391C82.9932 20.9542 82.9431 20.9595 82.8936 20.9546H81.4564ZM84.1738 17.8316H86.3254L85.2393 14.7462L84.1738 17.8316Z" fill="white"/>
<path id="Vector_3" d="M90.9259 20.9548C90.8503 20.9543 90.7778 20.9244 90.7235 20.8713C90.6953 20.8447 90.6729 20.8123 90.658 20.7763C90.643 20.7403 90.6358 20.7015 90.6368 20.6625V19.7523C90.6359 19.6738 90.6543 19.5963 90.6905 19.5269C90.7258 19.4622 90.7703 19.4031 90.8226 19.3515L93.5277 16.383H91.0498C90.9707 16.3861 90.8935 16.3576 90.835 16.3037C90.8062 16.2766 90.7836 16.2436 90.7686 16.2068C90.7537 16.1701 90.7467 16.1305 90.7483 16.0908V15.1681C90.7468 15.129 90.7538 15.09 90.7687 15.054C90.7837 15.0179 90.8063 14.9856 90.835 14.9593C90.8631 14.9311 90.8967 14.9091 90.9337 14.8947C90.9707 14.8803 91.0102 14.8739 91.0498 14.8758H95.6875C95.7252 14.8749 95.7625 14.8818 95.7973 14.8962C95.8322 14.9105 95.8637 14.932 95.8899 14.9593C95.9186 14.9856 95.9413 15.0179 95.9562 15.054C95.9712 15.09 95.9782 15.129 95.9766 15.1681V16.1617C95.9772 16.2272 95.9616 16.2918 95.9312 16.3496C95.8968 16.4068 95.8582 16.4612 95.8156 16.5125L93.1808 19.435H95.9188C95.9574 19.4334 95.9959 19.4395 96.0321 19.4531C96.0682 19.4668 96.1013 19.4876 96.1294 19.5143C96.1561 19.5426 96.1768 19.5761 96.1903 19.6127C96.2038 19.6493 96.2098 19.6883 96.2079 19.7273V20.65C96.2095 20.6883 96.2033 20.7266 96.1898 20.7625C96.1763 20.7983 96.1558 20.8311 96.1294 20.8587C96.1015 20.886 96.0686 20.9075 96.0324 20.9218C95.9963 20.9362 95.9577 20.9431 95.9188 20.9422L90.9259 20.9548Z" fill="white"/>
<path id="Vector_4" d="M100.792 21.0719C99.9988 21.1129 99.2201 20.8455 98.6157 20.3246C98.3351 20.0311 98.1171 19.6826 97.975 19.3005C97.8329 18.9185 97.7699 18.5111 97.7897 18.1034V17.6859C97.7994 17.1312 97.9411 16.5871 98.2027 16.0994C98.4454 15.6698 98.8072 15.3215 99.2434 15.0973C99.7276 14.8579 100.261 14.7391 100.8 14.7508C101.388 14.7311 101.97 14.8755 102.481 15.1683C102.916 15.4307 103.265 15.817 103.485 16.2789C103.715 16.7808 103.829 17.329 103.819 17.8821V18.1619C103.82 18.2009 103.813 18.2397 103.798 18.2757C103.783 18.3116 103.761 18.344 103.732 18.3706C103.678 18.4238 103.606 18.4537 103.53 18.4541H99.8133V18.5334C99.8183 18.7458 99.8574 18.9559 99.929 19.1556C99.9912 19.3318 100.103 19.4856 100.251 19.5981C100.407 19.709 100.594 19.7661 100.784 19.7609C100.917 19.7651 101.05 19.7394 101.172 19.6858C101.267 19.6412 101.355 19.582 101.432 19.5104C101.489 19.4581 101.543 19.4023 101.593 19.3434C101.639 19.2828 101.696 19.233 101.763 19.1973C101.827 19.1732 101.896 19.1632 101.965 19.1681H103.398C103.467 19.1658 103.534 19.188 103.588 19.2307C103.613 19.2526 103.632 19.2807 103.642 19.3122C103.653 19.3436 103.656 19.3774 103.65 19.4102C103.629 19.585 103.562 19.7509 103.456 19.8903C103.306 20.1025 103.125 20.2899 102.919 20.4456C102.651 20.646 102.35 20.7985 102.031 20.8966C101.63 21.0207 101.212 21.0798 100.792 21.0719ZM99.8092 17.3143H101.763V17.2893C101.767 17.0656 101.729 16.8431 101.651 16.6338C101.585 16.4629 101.468 16.317 101.317 16.2163C101.156 16.113 100.969 16.0607 100.78 16.066C100.594 16.0595 100.41 16.1121 100.255 16.2163C100.108 16.3207 99.9932 16.4656 99.9248 16.6338C99.8431 16.8422 99.8038 17.0651 99.8092 17.2893V17.3143Z" fill="white"/>
<path id="Vector_5" d="M105.983 20.9547C105.945 20.956 105.907 20.9492 105.871 20.9349C105.836 20.9205 105.804 20.8988 105.777 20.8712C105.749 20.8444 105.727 20.8119 105.713 20.7759C105.699 20.7399 105.692 20.7012 105.694 20.6625V15.168C105.693 15.13 105.7 15.0922 105.714 15.057C105.728 15.0218 105.75 14.99 105.777 14.9635C105.803 14.9345 105.835 14.9116 105.87 14.8964C105.906 14.8813 105.945 14.8742 105.983 14.8758H107.313C107.352 14.8748 107.39 14.8821 107.426 14.8972C107.461 14.9123 107.493 14.9349 107.52 14.9635C107.572 15.0181 107.602 15.0915 107.602 15.168V15.6356C107.807 15.3951 108.062 15.2039 108.35 15.0762C108.656 14.9386 108.989 14.8702 109.324 14.8758H109.832C109.87 14.8749 109.907 14.8818 109.942 14.8961C109.977 14.9105 110.008 14.932 110.035 14.9593C110.063 14.9855 110.086 15.0179 110.101 15.0539C110.116 15.09 110.123 15.1289 110.121 15.168V16.3705C110.121 16.4088 110.114 16.4467 110.099 16.4819C110.084 16.517 110.062 16.5488 110.035 16.575C110.009 16.6029 109.977 16.625 109.942 16.6401C109.908 16.6552 109.87 16.6629 109.832 16.6627H108.713C108.579 16.654 108.445 16.6729 108.319 16.7181C108.192 16.7633 108.077 16.834 107.978 16.9258C107.888 17.0257 107.818 17.143 107.773 17.2706C107.729 17.3983 107.71 17.5338 107.718 17.6689V20.6625C107.719 20.7015 107.712 20.7403 107.697 20.7763C107.682 20.8123 107.659 20.8446 107.631 20.8712C107.573 20.9267 107.496 20.9567 107.416 20.9547H105.983Z" fill="white"/>
<path id="Vector_6" d="M115.432 21.0715C115.059 21.0836 114.689 21.0079 114.35 20.8502C114.077 20.714 113.836 20.5221 113.64 20.2866V20.6624C113.641 20.7014 113.634 20.7402 113.619 20.7762C113.604 20.8122 113.581 20.8445 113.553 20.8711C113.499 20.9243 113.426 20.9542 113.351 20.9546H112.042C112.003 20.9554 111.966 20.9484 111.93 20.9341C111.895 20.9197 111.862 20.8983 111.835 20.8711C111.808 20.8437 111.787 20.8111 111.773 20.7752C111.759 20.7394 111.752 20.701 111.753 20.6624V12.9593C111.751 12.9206 111.758 12.8821 111.772 12.8462C111.786 12.8102 111.808 12.7777 111.835 12.7506C111.862 12.7234 111.895 12.7019 111.93 12.6876C111.966 12.6732 112.003 12.6663 112.042 12.6671H113.454C113.492 12.6663 113.53 12.6732 113.566 12.6876C113.601 12.7019 113.633 12.7234 113.661 12.7506C113.688 12.7777 113.709 12.8102 113.724 12.8462C113.738 12.8821 113.744 12.9206 113.743 12.9593V15.4644C113.941 15.254 114.178 15.0851 114.441 14.9675C114.754 14.8323 115.092 14.7668 115.432 14.7755C115.782 14.7682 116.129 14.8336 116.452 14.9675C116.744 15.0924 117.003 15.2823 117.212 15.5228C117.426 15.7775 117.59 16.0708 117.695 16.3871C117.816 16.7537 117.883 17.1363 117.894 17.5227C117.894 17.6688 117.894 17.8066 117.894 17.9402C117.894 18.0738 117.894 18.1991 117.894 18.3577C117.884 18.7541 117.816 19.1468 117.691 19.5225C117.583 19.8395 117.416 20.1327 117.2 20.3868C116.994 20.6234 116.737 20.8079 116.448 20.9254C116.122 21.038 115.777 21.0876 115.432 21.0715ZM114.805 19.5059C115.022 19.5187 115.237 19.4617 115.42 19.343C115.567 19.229 115.678 19.0736 115.738 18.8963C115.805 18.6967 115.845 18.4888 115.858 18.2784C115.874 18.0365 115.874 17.7938 115.858 17.5519C115.845 17.3414 115.805 17.1336 115.738 16.934C115.678 16.7567 115.567 16.6013 115.42 16.4873C115.237 16.3686 115.022 16.3116 114.805 16.3244C114.598 16.3162 114.393 16.3715 114.218 16.4831C114.064 16.5849 113.944 16.7301 113.871 16.9006C113.793 17.071 113.749 17.2556 113.743 17.4434C113.743 17.5937 113.743 17.7356 113.743 17.8609C113.743 17.9861 113.743 18.1489 113.743 18.3034C113.748 18.5035 113.788 18.7012 113.859 18.8879C113.929 19.056 114.045 19.2006 114.193 19.3055C114.37 19.4371 114.585 19.5074 114.805 19.5059Z" fill="white"/>
<path id="Vector_7" d="M121.664 21.0718C121.279 21.0789 120.898 20.9975 120.549 20.8338C120.237 20.6888 119.968 20.4644 119.768 20.1825C119.576 19.9145 119.475 19.5909 119.479 19.2598C119.472 19.0014 119.529 18.7452 119.646 18.5153C119.763 18.2853 119.936 18.089 120.148 17.9447C120.683 17.5882 121.292 17.3624 121.928 17.285L123.374 17.0637V16.8967C123.388 16.6689 123.327 16.4426 123.2 16.2538C123.117 16.171 123.017 16.1082 122.907 16.0699C122.797 16.0316 122.68 16.0188 122.564 16.0325C122.381 16.0234 122.198 16.0684 122.04 16.1619C121.903 16.2466 121.793 16.3681 121.722 16.5126C121.69 16.5605 121.647 16.5994 121.596 16.6257C121.546 16.652 121.489 16.6648 121.433 16.6629H120.136C120.099 16.6646 120.063 16.6589 120.029 16.6459C119.995 16.633 119.964 16.6132 119.938 16.5878C119.916 16.564 119.899 16.5354 119.89 16.5043C119.881 16.4732 119.879 16.4403 119.884 16.4082C119.892 16.2361 119.945 16.0691 120.037 15.9239C120.165 15.7142 120.328 15.529 120.52 15.377C120.767 15.1806 121.046 15.0307 121.346 14.9344C121.746 14.8075 122.165 14.7482 122.585 14.7591C123.019 14.7497 123.453 14.8089 123.869 14.9344C124.189 15.0305 124.483 15.199 124.728 15.4271C124.947 15.6313 125.115 15.8844 125.22 16.1661C125.331 16.4678 125.387 16.7876 125.385 17.1097V20.6627C125.386 20.7017 125.379 20.7405 125.364 20.7765C125.349 20.8125 125.326 20.8448 125.298 20.8714C125.244 20.9246 125.171 20.9545 125.096 20.9549H123.753C123.715 20.9563 123.676 20.9496 123.64 20.9352C123.603 20.9208 123.57 20.8991 123.543 20.8714C123.517 20.8438 123.496 20.811 123.482 20.7752C123.469 20.7393 123.463 20.701 123.464 20.6627V20.2452C123.35 20.4063 123.211 20.5473 123.051 20.6627C122.871 20.7943 122.67 20.8944 122.457 20.9591C122.2 21.0383 121.932 21.0764 121.664 21.0718ZM122.205 19.74C122.416 19.7421 122.624 19.6919 122.812 19.5938C122.992 19.4877 123.136 19.3291 123.225 19.1387C123.336 18.8944 123.39 18.627 123.382 18.358V18.1952L122.399 18.3705C122.116 18.4024 121.844 18.5011 121.606 18.6586C121.532 18.7075 121.471 18.7736 121.428 18.8514C121.385 18.9291 121.361 19.0162 121.358 19.1053C121.355 19.2298 121.396 19.3513 121.474 19.4477C121.555 19.5433 121.659 19.6166 121.775 19.6606C121.911 19.7185 122.058 19.7456 122.205 19.74Z" fill="white"/>
<path id="Vector_8" d="M127.768 13.9991C127.729 13.9998 127.691 13.9929 127.656 13.9785C127.62 13.9642 127.588 13.9427 127.561 13.9155C127.534 13.8884 127.512 13.8559 127.498 13.8199C127.484 13.784 127.477 13.7455 127.478 13.7068V12.6672C127.476 12.5866 127.506 12.5086 127.561 12.4501C127.587 12.4215 127.619 12.3989 127.655 12.3838C127.691 12.3687 127.729 12.3614 127.768 12.3624H129.143C129.183 12.3613 129.222 12.3685 129.259 12.3836C129.296 12.3987 129.33 12.4213 129.358 12.4501C129.386 12.4783 129.408 12.5121 129.423 12.5495C129.438 12.5869 129.445 12.6269 129.444 12.6672V13.7068C129.446 13.7459 129.439 13.7849 129.424 13.8209C129.409 13.857 129.386 13.8893 129.358 13.9155C129.3 13.971 129.222 14.001 129.143 13.9991H127.768ZM127.768 20.9548C127.729 20.9556 127.69 20.9487 127.654 20.9344C127.618 20.92 127.585 20.8986 127.557 20.8713C127.531 20.8436 127.51 20.8109 127.497 20.775C127.483 20.7391 127.477 20.7009 127.478 20.6625V15.1681C127.476 15.1297 127.482 15.0913 127.496 15.0553C127.509 15.0194 127.53 14.9866 127.557 14.9593C127.584 14.9312 127.617 14.9092 127.653 14.8948C127.69 14.8804 127.729 14.874 127.768 14.8758H129.13C129.168 14.8749 129.205 14.8818 129.24 14.8962C129.275 14.9105 129.306 14.932 129.333 14.9593C129.361 14.9856 129.384 15.0179 129.399 15.054C129.414 15.09 129.421 15.129 129.419 15.1681V20.6625C129.42 20.7015 129.413 20.7403 129.398 20.7763C129.383 20.8123 129.361 20.8447 129.333 20.8713C129.279 20.9248 129.206 20.9548 129.13 20.9548H127.768Z" fill="white"/>
<path id="Vector_9" d="M130.902 23.1758C130.863 23.1767 130.825 23.1697 130.789 23.1554C130.752 23.1411 130.719 23.1196 130.691 23.0923C130.665 23.0647 130.645 23.0319 130.631 22.996C130.618 22.9602 130.611 22.9219 130.613 22.8835V21.9358C130.611 21.8974 130.618 21.8592 130.631 21.8233C130.645 21.7874 130.665 21.7547 130.691 21.727C130.719 21.6997 130.752 21.6782 130.789 21.6639C130.825 21.6496 130.863 21.6427 130.902 21.6435H131.315C131.47 21.6533 131.624 21.6154 131.757 21.535C131.858 21.4595 131.93 21.3522 131.963 21.2302C132.003 21.0947 132.023 20.954 132.021 20.8127V15.168C132.02 15.1289 132.027 15.0899 132.042 15.0538C132.057 15.0178 132.079 14.9855 132.108 14.9592C132.134 14.9321 132.166 14.9108 132.201 14.8964C132.235 14.8821 132.273 14.875 132.31 14.8757H133.743C133.782 14.8736 133.821 14.8799 133.858 14.8943C133.894 14.9087 133.927 14.9308 133.954 14.9592C133.981 14.9865 134.002 15.0192 134.015 15.0552C134.029 15.0911 134.035 15.1296 134.032 15.168V20.8377C134.048 21.2836 133.947 21.7256 133.739 22.1195C133.543 22.4652 133.246 22.7409 132.889 22.9086C132.463 23.0969 132.002 23.1881 131.538 23.1758H130.902ZM132.31 13.9906C132.235 13.9902 132.162 13.9603 132.108 13.9071C132.079 13.8808 132.057 13.8485 132.042 13.8125C132.027 13.7764 132.02 13.7374 132.021 13.6983V12.6671C132.02 12.6268 132.027 12.5867 132.042 12.5494C132.057 12.512 132.08 12.4782 132.108 12.45C132.134 12.4224 132.166 12.4003 132.2 12.3853C132.235 12.3702 132.273 12.3624 132.31 12.3623H133.768C133.806 12.3621 133.844 12.3698 133.878 12.3849C133.913 12.4 133.945 12.4222 133.971 12.45C133.999 12.4782 134.021 12.512 134.036 12.5494C134.051 12.5867 134.058 12.6268 134.057 12.6671V13.7067C134.059 13.7458 134.052 13.7847 134.037 13.8208C134.022 13.8569 133.999 13.8892 133.971 13.9154C133.917 13.969 133.844 13.9989 133.768 13.9989L132.31 13.9906Z" fill="white"/>
<path id="Vector_10" d="M138.026 21.0718C137.64 21.0784 137.258 20.997 136.907 20.8338C136.597 20.6866 136.328 20.4626 136.127 20.1825C135.936 19.9135 135.835 19.5905 135.837 19.2598C135.831 19.001 135.889 18.7446 136.006 18.5146C136.124 18.2846 136.298 18.0885 136.511 17.9447C137.045 17.5882 137.655 17.3624 138.291 17.285L139.736 17.0637V16.8967C139.75 16.6689 139.689 16.4426 139.563 16.2538C139.48 16.171 139.38 16.1082 139.269 16.0699C139.159 16.0316 139.042 16.0188 138.927 16.0325C138.743 16.0234 138.561 16.0684 138.402 16.1619C138.266 16.2466 138.156 16.3681 138.084 16.5126C138.052 16.5602 138.009 16.5989 137.959 16.6251C137.908 16.6514 137.852 16.6644 137.795 16.6629H136.498C136.462 16.6651 136.425 16.6596 136.391 16.6467C136.357 16.6337 136.326 16.6136 136.3 16.5878C136.278 16.5637 136.262 16.5352 136.252 16.5043C136.242 16.4733 136.239 16.4406 136.242 16.4082C136.252 16.2358 136.306 16.0689 136.399 15.9239C136.525 15.714 136.687 15.5288 136.878 15.377C137.126 15.1818 137.405 15.032 137.704 14.9344C138.105 14.8075 138.523 14.7482 138.943 14.7591C139.378 14.7497 139.811 14.8089 140.227 14.9344C140.547 15.0314 140.84 15.1998 141.086 15.4271C141.304 15.6324 141.472 15.8851 141.578 16.1661C141.688 16.4681 141.742 16.7879 141.739 17.1097V20.6627C141.74 20.7017 141.733 20.7405 141.718 20.7765C141.703 20.8125 141.68 20.8448 141.652 20.8714C141.598 20.9249 141.526 20.9549 141.45 20.9549H140.112C140.073 20.9563 140.034 20.9496 139.998 20.9352C139.962 20.9208 139.929 20.8991 139.901 20.8714C139.875 20.8438 139.854 20.811 139.841 20.7752C139.827 20.7393 139.821 20.701 139.823 20.6627V20.2452C139.709 20.4063 139.569 20.5473 139.41 20.6627C139.228 20.7943 139.025 20.8944 138.811 20.9591C138.557 21.0379 138.292 21.0759 138.026 21.0718ZM138.567 19.74C138.778 19.7421 138.987 19.6919 139.174 19.5938C139.354 19.4877 139.498 19.3291 139.587 19.1387C139.699 18.8944 139.753 18.627 139.744 18.358V18.1952L138.761 18.3705C138.478 18.4024 138.207 18.5011 137.968 18.6586C137.895 18.7075 137.834 18.7736 137.791 18.8514C137.747 18.9291 137.723 19.0162 137.721 19.1053C137.717 19.2298 137.758 19.3513 137.836 19.4477C137.917 19.5424 138.019 19.6155 138.134 19.6606C138.271 19.7179 138.419 19.745 138.567 19.74Z" fill="white"/>
<path id="Vector_11" d="M144.143 20.9547C144.104 20.9561 144.065 20.9494 144.029 20.935C143.992 20.9207 143.96 20.8989 143.932 20.8712C143.906 20.8436 143.885 20.8109 143.871 20.775C143.858 20.7391 143.852 20.7008 143.853 20.6625V15.168C143.851 15.1296 143.857 15.0912 143.871 15.0553C143.884 15.0193 143.905 14.9866 143.932 14.9593C143.959 14.9309 143.992 14.9088 144.028 14.8944C144.065 14.88 144.104 14.8737 144.143 14.8758H145.472C145.511 14.874 145.549 14.8805 145.585 14.8949C145.62 14.9093 145.652 14.9313 145.679 14.9593C145.706 14.9864 145.728 15.019 145.742 15.0549C145.756 15.0909 145.763 15.1294 145.761 15.168V15.6106C145.979 15.3569 146.246 15.1509 146.546 15.0052C146.903 14.8347 147.295 14.7504 147.69 14.7589C148.105 14.7494 148.515 14.8548 148.875 15.0637C149.233 15.2715 149.52 15.5826 149.701 15.9571C149.912 16.4082 150.014 16.9032 149.999 17.4017V20.6625C150 20.7015 149.992 20.7403 149.977 20.7763C149.962 20.8123 149.94 20.8446 149.912 20.8712C149.858 20.9244 149.785 20.9543 149.709 20.9547H148.252C148.176 20.9547 148.103 20.9248 148.049 20.8712C148.021 20.8446 147.999 20.8123 147.984 20.7763C147.969 20.7403 147.962 20.7015 147.963 20.6625V17.4685C147.978 17.1676 147.886 16.8711 147.702 16.6335C147.604 16.5293 147.484 16.4483 147.352 16.3963C147.219 16.3444 147.076 16.3227 146.934 16.3329C146.794 16.3264 146.654 16.3498 146.523 16.4016C146.392 16.4534 146.273 16.5324 146.174 16.6335C145.977 16.8645 145.877 17.1639 145.894 17.4685V20.6625C145.895 20.7015 145.887 20.7403 145.872 20.7763C145.857 20.8123 145.835 20.8446 145.807 20.8712C145.753 20.9244 145.68 20.9543 145.604 20.9547H144.143Z" fill="white"/>
<path id="Vector_12" d="M84.1528 33.4801C84.1171 33.4815 84.0815 33.4755 84.0482 33.4626C84.0148 33.4497 83.9844 33.43 83.9587 33.4049C83.9342 33.3796 83.9149 33.3496 83.9022 33.3166C83.8894 33.2836 83.8834 33.2483 83.8844 33.2129V26.3198H81.6667C81.5947 26.3216 81.5249 26.2946 81.4726 26.2446C81.448 26.2193 81.4288 26.1893 81.416 26.1563C81.4032 26.1233 81.3972 26.088 81.3983 26.0526V25.5599C81.3965 25.5225 81.4021 25.4852 81.4149 25.45C81.4277 25.4149 81.4473 25.3827 81.4726 25.3553C81.5249 25.3054 81.5947 25.2783 81.6667 25.2802H87.2378C87.2748 25.2782 87.3119 25.2838 87.3467 25.2967C87.3814 25.3096 87.4133 25.3296 87.4402 25.3553C87.4655 25.3827 87.4851 25.4149 87.4978 25.45C87.5106 25.4852 87.5163 25.5225 87.5145 25.5599V26.0526C87.5155 26.088 87.5095 26.1233 87.4967 26.1563C87.484 26.1893 87.4647 26.2193 87.4402 26.2446C87.4133 26.2704 87.3814 26.2904 87.3467 26.3033C87.3119 26.3162 87.2748 26.3218 87.2378 26.3198H85.0283V33.1962C85.0294 33.2316 85.0234 33.2669 85.0106 33.2999C84.9978 33.3329 84.9786 33.3629 84.954 33.3882C84.9271 33.414 84.8953 33.434 84.8605 33.4469C84.8257 33.4598 84.7887 33.4654 84.7517 33.4634L84.1528 33.4801Z" fill="white"/>
<path id="Vector_13" d="M88.799 33.4801C88.764 33.4812 88.7292 33.475 88.6965 33.4621C88.6639 33.4492 88.6341 33.4298 88.6091 33.4049C88.5845 33.3796 88.5653 33.3496 88.5525 33.3166C88.5398 33.2836 88.5337 33.2483 88.5348 33.2129V27.6809C88.533 27.6081 88.5596 27.5376 88.6091 27.4847C88.6326 27.4573 88.6618 27.4355 88.6947 27.4211C88.7276 27.4066 88.7632 27.3998 88.799 27.4012H89.3318C89.3689 27.3998 89.4058 27.4065 89.44 27.4209C89.4742 27.4353 89.5049 27.4571 89.53 27.4847C89.5558 27.5101 89.5762 27.5407 89.5897 27.5745C89.6032 27.6082 89.6096 27.6445 89.6085 27.6809V28.1944C89.7573 27.9371 89.9788 27.7307 90.2445 27.6016C90.5486 27.4607 90.8806 27.3921 91.215 27.4012H91.6776C91.7121 27.3994 91.7465 27.4052 91.7786 27.4182C91.8107 27.4312 91.8396 27.451 91.8634 27.4763C91.9099 27.5291 91.935 27.5977 91.9336 27.6684V28.1485C91.9351 28.183 91.9296 28.2174 91.9176 28.2497C91.9055 28.282 91.8871 28.3115 91.8634 28.3364C91.8388 28.3603 91.8096 28.379 91.7777 28.3912C91.7457 28.4034 91.7117 28.4089 91.6776 28.4074H90.9837C90.8037 28.3974 90.6237 28.4248 90.4546 28.488C90.2855 28.5512 90.1311 28.6488 90.0008 28.7748C89.8794 28.9091 89.7854 29.0665 89.7245 29.2378C89.6635 29.409 89.6367 29.5908 89.6457 29.7726V33.2129C89.6462 33.249 89.639 33.2848 89.6248 33.3179C89.6106 33.351 89.5895 33.3807 89.5631 33.4049C89.5093 33.4552 89.4381 33.4822 89.3648 33.4801H88.799Z" fill="white"/>
<path id="Vector_14" d="M93.9117 26.2654C93.8766 26.2668 93.8417 26.2607 93.809 26.2478C93.7763 26.2349 93.7466 26.2153 93.7217 26.1903C93.6956 26.166 93.6751 26.1362 93.6615 26.103C93.6479 26.0699 93.6417 26.0341 93.6433 25.9982V25.3678C93.6417 25.3319 93.6479 25.2962 93.6615 25.263C93.6751 25.2298 93.6956 25.2001 93.7217 25.1758C93.7458 25.1493 93.7752 25.1286 93.808 25.1149C93.8409 25.1011 93.8762 25.0949 93.9117 25.0964H94.6385C94.674 25.0949 94.7094 25.1011 94.7422 25.1149C94.7751 25.1286 94.8045 25.1493 94.8286 25.1758C94.8538 25.2007 94.8738 25.2306 94.8873 25.2636C94.9008 25.2966 94.9075 25.3321 94.907 25.3678V25.9982C94.9075 26.034 94.9008 26.0694 94.8873 26.1024C94.8738 26.1355 94.8538 26.1654 94.8286 26.1903C94.8037 26.2153 94.774 26.2349 94.7413 26.2478C94.7086 26.2607 94.6736 26.2668 94.6385 26.2654H93.9117ZM94.0026 33.48C93.9675 33.4813 93.9325 33.4753 93.8998 33.4624C93.8672 33.4495 93.8375 33.4299 93.8126 33.4048C93.788 33.3795 93.7688 33.3495 93.756 33.3165C93.7432 33.2835 93.7372 33.2482 93.7383 33.2128V27.6683C93.7372 27.6328 93.7432 27.5976 93.756 27.5646C93.7688 27.5316 93.788 27.5015 93.8126 27.4762C93.8375 27.4512 93.8672 27.4316 93.8998 27.4187C93.9325 27.4058 93.9675 27.3998 94.0026 27.4011H94.5601C94.594 27.3997 94.6277 27.4056 94.6591 27.4186C94.6904 27.4316 94.7186 27.4512 94.7418 27.4762C94.7656 27.5019 94.7841 27.5321 94.7961 27.5651C94.8082 27.5981 94.8136 27.6331 94.812 27.6683V33.2128C94.8136 33.2479 94.8082 33.283 94.7961 33.316C94.7841 33.349 94.7656 33.3792 94.7418 33.4048C94.7186 33.4299 94.6904 33.4495 94.6591 33.4625C94.6277 33.4755 94.594 33.4815 94.5601 33.48H94.0026Z" fill="white"/>
<path id="Vector_15" d="M99.0201 33.5969C98.6573 33.6011 98.2985 33.5212 97.9711 33.3631C97.6685 33.2206 97.4058 33.0039 97.2071 32.7327C97.0157 32.4722 96.9141 32.1553 96.918 31.8308C96.9114 31.5788 96.9673 31.3292 97.0805 31.1046C97.1938 30.88 97.3608 30.6876 97.5664 30.5449C98.0686 30.1986 98.6472 29.9822 99.2513 29.9145L100.978 29.6682V29.33C100.987 29.1696 100.963 29.009 100.909 28.8582C100.854 28.7074 100.769 28.5695 100.66 28.4532C100.367 28.2164 99.9961 28.1027 99.623 28.1359C99.3331 28.1241 99.046 28.1981 98.7971 28.3488C98.5955 28.4757 98.4392 28.6644 98.351 28.8874C98.3349 28.9395 98.3023 28.9848 98.2583 29.0164C98.2143 29.0481 98.1614 29.0644 98.1074 29.0628H97.587C97.5514 29.0656 97.5157 29.0599 97.4827 29.0461C97.4497 29.0323 97.4203 29.0108 97.3971 28.9834C97.3553 28.9333 97.3333 28.8694 97.3351 28.8039C97.3466 28.6563 97.3919 28.5133 97.4673 28.3864C97.5732 28.1951 97.7132 28.0252 97.8803 27.8854C98.0928 27.7056 98.3345 27.5644 98.5947 27.4679C98.9338 27.3459 99.2921 27.2879 99.6519 27.2967C100.049 27.2856 100.445 27.3464 100.821 27.4762C101.104 27.5766 101.358 27.7441 101.564 27.9647C101.752 28.1595 101.893 28.3951 101.977 28.6536C102.059 28.9056 102.101 29.1691 102.101 29.4343V33.2253C102.102 33.2607 102.096 33.296 102.083 33.329C102.07 33.362 102.051 33.3921 102.027 33.4174C101.974 33.4674 101.904 33.4944 101.832 33.4925H101.304C101.267 33.495 101.231 33.4896 101.197 33.4766C101.163 33.4637 101.131 33.4435 101.106 33.4174C101.059 33.3646 101.034 33.296 101.035 33.2253V32.7076C100.918 32.8655 100.779 33.0061 100.622 33.1251C100.43 33.2717 100.215 33.3859 99.9865 33.4633C99.6742 33.5628 99.3473 33.608 99.0201 33.5969ZM99.2637 32.7201C99.5651 32.7249 99.8629 32.6546 100.131 32.5156C100.399 32.374 100.616 32.1504 100.75 31.8768C100.912 31.5388 100.99 31.1663 100.978 30.7913V30.4656L99.6354 30.6618C99.1997 30.7028 98.7775 30.8366 98.3965 31.0543C98.2746 31.1253 98.1727 31.2267 98.1004 31.3487C98.0282 31.4707 97.9879 31.6094 97.9835 31.7515C97.9781 31.9507 98.0474 32.1446 98.1776 32.2943C98.3094 32.4408 98.4755 32.5514 98.6608 32.6158C98.8544 32.685 99.0584 32.7203 99.2637 32.7201Z" fill="white"/>
<path id="Vector_16" d="M106.838 33.4801C106.472 33.4961 106.109 33.4094 105.789 33.2295C105.519 33.0644 105.311 32.8133 105.198 32.5156C105.067 32.1665 105.004 31.795 105.013 31.4217V28.3363H104.112C104.077 28.3377 104.041 28.3318 104.008 28.3189C103.974 28.3059 103.944 28.2863 103.918 28.2612C103.894 28.2359 103.874 28.2058 103.862 28.1728C103.849 28.1398 103.843 28.1046 103.844 28.0691V27.6516C103.843 27.6162 103.849 27.5809 103.862 27.5479C103.874 27.5149 103.894 27.4849 103.918 27.4596C103.944 27.4344 103.974 27.4148 104.008 27.4019C104.041 27.389 104.077 27.383 104.112 27.3844H105.013V25.4305C105.012 25.395 105.018 25.3598 105.03 25.3268C105.043 25.2938 105.062 25.2637 105.087 25.2384C105.112 25.2136 105.142 25.1941 105.174 25.1812C105.207 25.1683 105.242 25.1622 105.277 25.1633H105.822C105.857 25.162 105.892 25.168 105.925 25.1809C105.957 25.1938 105.987 25.2134 106.012 25.2384C106.037 25.2637 106.056 25.2938 106.069 25.3268C106.081 25.3598 106.087 25.395 106.086 25.4305V27.3844H107.524C107.559 27.3834 107.593 27.3895 107.626 27.4024C107.659 27.4153 107.688 27.4347 107.713 27.4596C107.738 27.4849 107.757 27.5149 107.77 27.5479C107.783 27.5809 107.789 27.6162 107.788 27.6516V28.0691C107.789 28.1046 107.783 28.1398 107.77 28.1728C107.757 28.2058 107.738 28.2359 107.713 28.2612C107.688 28.286 107.659 28.3055 107.626 28.3184C107.593 28.3313 107.559 28.3374 107.524 28.3363H106.086V31.3299C106.072 31.6295 106.136 31.9276 106.272 32.1941C106.344 32.3022 106.443 32.3885 106.559 32.4437C106.676 32.4988 106.805 32.5208 106.933 32.5073H107.639C107.675 32.506 107.71 32.5124 107.743 32.5261C107.775 32.5397 107.805 32.5604 107.829 32.5866C107.854 32.6117 107.873 32.6418 107.886 32.6748C107.899 32.7078 107.905 32.7432 107.903 32.7786V33.1961C107.904 33.2316 107.898 33.2668 107.886 33.2998C107.873 33.3329 107.854 33.3629 107.829 33.3882C107.804 33.413 107.774 33.4325 107.742 33.4454C107.709 33.4583 107.674 33.4644 107.639 33.4633L106.838 33.4801Z" fill="white"/>
<path id="Vector_17" d="M110.088 33.4801C110.053 33.4814 110.018 33.4754 109.986 33.4624C109.953 33.4495 109.923 33.4299 109.898 33.4049C109.873 33.3798 109.853 33.3499 109.84 33.3169C109.826 33.2839 109.82 33.2485 109.82 33.2129V25.4472C109.82 25.4115 109.826 25.3761 109.84 25.3431C109.853 25.3101 109.873 25.2802 109.898 25.2551C109.923 25.2301 109.953 25.2105 109.986 25.1976C110.018 25.1847 110.053 25.1787 110.088 25.18H110.666C110.703 25.1783 110.739 25.184 110.773 25.197C110.807 25.2099 110.838 25.2297 110.865 25.2551C110.91 25.3083 110.934 25.377 110.931 25.4472V28.1735C111.139 27.9081 111.399 27.6891 111.695 27.5306C112.05 27.3546 112.443 27.27 112.839 27.2842C113.288 27.2706 113.732 27.3864 114.119 27.6182C114.469 27.8396 114.746 28.1607 114.916 28.5409C115.106 28.973 115.199 29.442 115.189 29.9145V33.2129C115.19 33.2835 115.165 33.3521 115.118 33.4049C115.093 33.431 115.061 33.4512 115.027 33.4642C114.993 33.4771 114.957 33.4826 114.92 33.4801H114.342C114.307 33.4811 114.272 33.475 114.239 33.4621C114.207 33.4492 114.177 33.4297 114.152 33.4049C114.127 33.3796 114.108 33.3495 114.095 33.3165C114.083 33.2835 114.077 33.2483 114.078 33.2129V29.973C114.098 29.5092 113.952 29.0536 113.665 28.6912C113.517 28.5331 113.337 28.4098 113.137 28.3304C112.938 28.251 112.723 28.2174 112.508 28.232C112.295 28.2232 112.081 28.2594 111.882 28.3385C111.683 28.4176 111.503 28.5377 111.352 28.6912C111.043 29.0424 110.884 29.5034 110.91 29.973V33.2129C110.913 33.283 110.889 33.3517 110.844 33.4049C110.818 33.4304 110.787 33.4502 110.753 33.4631C110.718 33.476 110.682 33.4818 110.646 33.4801H110.088Z" fill="white"/>
<path id="Vector_18" d="M117.939 33.4802C117.904 33.4815 117.869 33.4755 117.836 33.4626C117.803 33.4497 117.774 33.4301 117.749 33.405C117.724 33.3798 117.705 33.3497 117.692 33.3167C117.679 33.2837 117.673 33.2484 117.674 33.213V25.4473C117.673 25.4119 117.679 25.3766 117.692 25.3436C117.705 25.3106 117.724 25.2806 117.749 25.2553C117.774 25.2303 117.803 25.2107 117.836 25.1977C117.869 25.1848 117.904 25.1788 117.939 25.1801H118.484C118.52 25.178 118.555 25.1836 118.589 25.1965C118.622 25.2095 118.653 25.2295 118.678 25.2553C118.725 25.308 118.75 25.3766 118.748 25.4473V33.213C118.75 33.2837 118.725 33.3523 118.678 33.405C118.653 33.4308 118.622 33.4509 118.589 33.4638C118.555 33.4768 118.52 33.4824 118.484 33.4802H117.939Z" fill="white"/>
<path id="Vector_19" d="M123.745 33.5967C123.234 33.6149 122.728 33.4984 122.275 33.2585C121.89 33.0399 121.577 32.7118 121.375 32.315C121.158 31.8895 121.039 31.4199 121.028 30.9414C121.028 30.812 121.028 30.6408 121.028 30.4362C121.028 30.2316 121.028 30.0604 121.028 29.9393C121.039 29.4577 121.159 28.985 121.379 28.5574C121.587 28.1642 121.902 27.8396 122.287 27.6222C122.736 27.3832 123.238 27.2667 123.745 27.284C124.251 27.2662 124.752 27.3828 125.199 27.6222C125.585 27.8384 125.901 28.1633 126.107 28.5574C126.329 28.9846 126.45 29.4573 126.463 29.9393C126.463 30.0604 126.463 30.2274 126.463 30.4362C126.463 30.6449 126.463 30.812 126.463 30.9414C126.447 31.4193 126.329 31.888 126.116 32.315C125.911 32.7113 125.597 33.039 125.211 33.2585C124.76 33.4978 124.255 33.6144 123.745 33.5967ZM123.745 32.6949C123.957 32.7043 124.169 32.6682 124.366 32.5891C124.563 32.5099 124.741 32.3895 124.889 32.2356C125.199 31.8557 125.364 31.3754 125.352 30.8829C125.352 30.766 125.352 30.6199 125.352 30.4404C125.352 30.2608 125.352 30.1147 125.352 29.9936C125.363 29.5025 125.199 29.0239 124.889 28.6451C124.742 28.4906 124.564 28.3697 124.366 28.2905C124.169 28.2113 123.957 28.1756 123.745 28.1858C123.532 28.1755 123.319 28.2111 123.12 28.2903C122.922 28.3695 122.742 28.4904 122.593 28.6451C122.28 29.0214 122.116 29.5021 122.135 29.9936C122.135 30.1147 122.135 30.2608 122.135 30.4404C122.135 30.6199 122.135 30.766 122.135 30.8829C122.116 31.3758 122.279 31.8581 122.593 32.2356C122.743 32.3895 122.922 32.5099 123.121 32.589C123.319 32.6681 123.532 32.7042 123.745 32.6949Z" fill="white"/>
<path id="Vector_20" d="M128.994 33.4802C128.959 33.4815 128.924 33.4755 128.891 33.4626C128.859 33.4496 128.829 33.43 128.804 33.405C128.778 33.3805 128.758 33.3507 128.744 33.3176C128.731 33.2845 128.724 33.2488 128.726 33.213V27.6684C128.724 27.6326 128.731 27.5969 128.744 27.5638C128.758 27.5307 128.778 27.5009 128.804 27.4764C128.829 27.4514 128.859 27.4318 128.891 27.4189C128.924 27.4059 128.959 27.4 128.994 27.4013H129.552C129.587 27.3999 129.623 27.4058 129.656 27.4187C129.69 27.4316 129.72 27.4513 129.746 27.4764C129.77 27.5017 129.79 27.5318 129.802 27.5648C129.815 27.5978 129.821 27.633 129.82 27.6684V28.1862C130.022 27.9158 130.28 27.6935 130.576 27.5348C130.941 27.3556 131.343 27.2695 131.749 27.2843C132.198 27.2707 132.642 27.3865 133.029 27.6184C133.378 27.839 133.655 28.1604 133.822 28.5411C134.007 28.9743 134.097 29.4429 134.086 29.9147V33.213C134.088 33.2837 134.063 33.3523 134.016 33.405C133.992 33.4304 133.963 33.4502 133.931 33.4632C133.899 33.4761 133.865 33.482 133.83 33.4802H133.252C133.217 33.4813 133.182 33.4751 133.149 33.4622C133.117 33.4493 133.087 33.4298 133.062 33.405C133.037 33.3797 133.018 33.3497 133.005 33.3167C132.993 33.2837 132.987 33.2484 132.988 33.213V29.9731C133.014 29.512 132.875 29.0567 132.595 28.6914C132.448 28.5332 132.268 28.41 132.068 28.3305C131.868 28.2511 131.653 28.2175 131.439 28.2321C131.226 28.2228 131.013 28.2589 130.815 28.3381C130.616 28.4172 130.436 28.5375 130.287 28.6914C129.989 29.0477 129.841 29.5077 129.874 29.9731V33.213C129.875 33.2484 129.869 33.2837 129.856 33.3167C129.843 33.3497 129.824 33.3797 129.799 33.405C129.774 33.4298 129.745 33.4493 129.712 33.4622C129.679 33.4751 129.645 33.4813 129.61 33.4802H128.994Z" fill="white"/>
<path id="Vector_21" d="M82.3811 46.0054C82.3453 46.0076 82.3094 46.002 82.276 45.989C82.2425 45.9761 82.2122 45.956 82.187 45.9302C82.1632 45.9046 82.1447 45.8744 82.1326 45.8414C82.1205 45.8084 82.1152 45.7733 82.1168 45.7382V38.102C82.1144 38.0648 82.1194 38.0277 82.1315 37.9925C82.1435 37.9574 82.1624 37.925 82.187 37.8974C82.2122 37.8716 82.2425 37.8516 82.276 37.8386C82.3094 37.8257 82.3453 37.8201 82.3811 37.8222H87.1014C87.1372 37.8201 87.1731 37.8257 87.2065 37.8386C87.24 37.8516 87.2704 37.8716 87.2956 37.8974C87.3436 37.9542 87.3687 38.0272 87.3657 38.102V38.5696C87.368 38.606 87.3629 38.6426 87.3509 38.677C87.3388 38.7115 87.32 38.7431 87.2956 38.77C87.2696 38.7944 87.239 38.8132 87.2056 38.8254C87.1723 38.8376 87.1368 38.8429 87.1014 38.841H83.2359V41.5631H86.8702C86.906 41.561 86.9418 41.5665 86.9752 41.5795C87.0087 41.5925 87.0391 41.6125 87.0643 41.6383C87.1123 41.6951 87.1374 41.7681 87.1345 41.8428V42.3105C87.1368 42.3813 87.1116 42.4502 87.0643 42.5025C87.04 42.5297 87.0099 42.551 86.9762 42.5647C86.9426 42.5785 86.9064 42.5843 86.8702 42.5818H83.2359V45.7382C83.237 45.7736 83.231 45.8089 83.2182 45.8419C83.2054 45.8749 83.1862 45.905 83.1616 45.9302C83.1347 45.956 83.1029 45.976 83.0681 45.9889C83.0333 46.0018 82.9963 46.0075 82.9593 46.0054H82.3811Z" fill="white"/>
<path id="Vector_22" d="M91.7928 46.122C91.443 46.1391 91.0936 46.0818 90.767 45.9538C90.4405 45.8258 90.1442 45.6299 89.8973 45.3789C89.4015 44.8217 89.1265 44.0992 89.125 43.3498C89.125 43.2496 89.125 43.1201 89.125 42.9615C89.125 42.7987 89.125 42.6692 89.125 42.569C89.1423 42.0607 89.2722 41.5628 89.505 41.1119C89.7144 40.708 90.034 40.3733 90.4259 40.1475C90.8441 39.9148 91.3156 39.7981 91.7928 39.8093C92.3095 39.7911 92.8208 39.9214 93.2672 40.1851C93.6705 40.436 93.9876 40.8062 94.1757 41.2455C94.3957 41.7545 94.5028 42.306 94.4896 42.8613V43.0575C94.4921 43.0944 94.4867 43.1313 94.4739 43.1659C94.4611 43.2004 94.4411 43.2318 94.4153 43.2579C94.3614 43.3049 94.2923 43.3302 94.2212 43.3289H90.2235V43.4374C90.2338 43.7461 90.3039 44.0497 90.43 44.3309C90.5464 44.5982 90.7301 44.83 90.9628 45.0031C91.2032 45.1775 91.493 45.2683 91.7888 45.262C92.0266 45.271 92.2635 45.2269 92.4825 45.1325C92.6477 45.0607 92.8009 44.9635 92.9368 44.8445C93.0205 44.772 93.0979 44.6924 93.1681 44.6065C93.2063 44.5341 93.2616 44.4724 93.3292 44.4269C93.3881 44.4029 93.4516 44.3929 93.515 44.3977H94.0684C94.1371 44.3947 94.2046 44.417 94.2584 44.4604C94.2828 44.4828 94.3015 44.5108 94.313 44.542C94.3245 44.5732 94.3284 44.6068 94.3244 44.6399C94.2975 44.7924 94.2336 44.9358 94.1386 45.0574C93.9985 45.2482 93.83 45.4159 93.6389 45.5542C93.4015 45.7356 93.1365 45.8766 92.8542 45.9717C92.5107 46.0789 92.1523 46.1296 91.7928 46.122ZM90.2235 42.5189H93.3911V42.4855C93.3953 42.1636 93.3305 41.8445 93.2011 41.5503C93.0799 41.288 92.8899 41.0642 92.6519 40.9032C92.3956 40.7381 92.0966 40.6538 91.7928 40.661C91.5 40.6579 91.2127 40.7422 90.9669 40.9032C90.7301 41.0634 90.5427 41.2876 90.4259 41.5503C90.3012 41.8457 90.2392 42.1643 90.2442 42.4855L90.2235 42.5189Z" fill="white"/>
<path id="Vector_23" d="M98.8839 46.1222C98.5051 46.1331 98.1289 46.0545 97.7854 45.8926C97.4869 45.7509 97.2264 45.539 97.0255 45.2747C96.8271 45.0063 96.6788 44.7035 96.5878 44.3812C96.4902 44.0343 96.4333 43.677 96.4185 43.3166C96.4185 43.1913 96.4185 43.0744 96.4185 42.9659C96.4185 42.8573 96.4185 42.7404 96.4185 42.6152C96.4339 42.259 96.4907 41.9058 96.5878 41.563C96.6795 41.2385 96.8277 40.9331 97.0255 40.6612C97.2259 40.3953 97.4865 40.182 97.7854 40.0391C98.1289 39.8772 98.5051 39.7986 98.8839 39.8095C99.2754 39.7962 99.6641 39.8808 100.015 40.0558C100.3 40.2052 100.551 40.4111 100.755 40.6612V37.9724C100.753 37.9366 100.76 37.9009 100.773 37.8678C100.787 37.8347 100.807 37.8049 100.833 37.7804C100.858 37.7554 100.888 37.7358 100.92 37.7229C100.953 37.7099 100.988 37.704 101.023 37.7053H101.577C101.612 37.704 101.647 37.7099 101.679 37.7229C101.712 37.7358 101.742 37.7554 101.767 37.7804C101.792 37.8049 101.813 37.8347 101.826 37.8678C101.84 37.9009 101.846 37.9366 101.845 37.9724V45.7381C101.846 45.7739 101.84 45.8096 101.826 45.8428C101.813 45.8759 101.792 45.9057 101.767 45.9302C101.742 45.9552 101.712 45.9748 101.679 45.9877C101.647 46.0006 101.612 46.0066 101.577 46.0053H101.056C101.02 46.0075 100.985 46.0019 100.951 45.9889C100.918 45.976 100.887 45.9559 100.862 45.9302C100.838 45.9045 100.82 45.8743 100.808 45.8413C100.796 45.8083 100.79 45.7733 100.792 45.7381V45.2455C100.587 45.5046 100.331 45.7178 100.04 45.8717C99.6811 46.0501 99.2839 46.1362 98.8839 46.1222ZM99.1276 45.1745C99.4567 45.1918 99.7822 45.0978 100.053 44.9073C100.282 44.7291 100.462 44.493 100.573 44.2226C100.686 43.9586 100.748 43.6751 100.755 43.3875C100.755 43.2623 100.755 43.112 100.755 42.9366C100.755 42.7613 100.755 42.611 100.755 42.4857C100.747 42.2067 100.683 41.9323 100.565 41.6799C100.447 41.418 100.263 41.1919 100.032 41.0244C99.7649 40.8446 99.4482 40.7554 99.1276 40.7698C98.7951 40.7515 98.4658 40.8439 98.1902 41.0328C97.96 41.2075 97.7861 41.4472 97.6904 41.7217C97.5889 42.0177 97.5305 42.3272 97.517 42.6402C97.517 42.8657 97.517 43.0911 97.517 43.3166C97.5305 43.6296 97.5889 43.939 97.6904 44.2351C97.7861 44.5095 97.96 44.7493 98.1902 44.924C98.4673 45.1084 98.7964 45.1964 99.1276 45.1745Z" fill="white"/>
<path id="Vector_24" d="M106.768 46.122C106.418 46.1391 106.069 46.0818 105.742 45.9538C105.416 45.8258 105.119 45.6299 104.872 45.3789C104.377 44.8217 104.102 44.0992 104.1 43.3498C104.1 43.2496 104.1 43.1201 104.1 42.9615C104.1 42.7987 104.1 42.6692 104.1 42.569C104.117 42.0607 104.247 41.5628 104.48 41.1119C104.689 40.708 105.009 40.3733 105.401 40.1475C105.819 39.9142 106.291 39.7975 106.768 39.8093C107.285 39.7911 107.796 39.9214 108.242 40.1851C108.646 40.436 108.963 40.8062 109.151 41.2455C109.371 41.7545 109.478 42.306 109.465 42.8613V43.0575C109.467 43.0944 109.462 43.1313 109.449 43.1659C109.436 43.2004 109.416 43.2318 109.39 43.2579C109.337 43.3049 109.267 43.3302 109.196 43.3289H105.186V43.4374C105.196 43.7461 105.267 44.0497 105.393 44.3309C105.509 44.5982 105.693 44.83 105.925 45.0031C106.166 45.1775 106.456 45.2683 106.751 45.262C106.989 45.271 107.226 45.2269 107.445 45.1325C107.61 45.0607 107.764 44.9635 107.899 44.8445C107.983 44.772 108.061 44.6924 108.131 44.6065C108.169 44.5341 108.224 44.4724 108.292 44.4269C108.351 44.4029 108.414 44.3929 108.478 44.3977H109.031C109.1 44.3947 109.167 44.417 109.221 44.4604C109.245 44.4828 109.264 44.5108 109.276 44.542C109.287 44.5732 109.291 44.6068 109.287 44.6399C109.26 44.7924 109.196 44.9358 109.101 45.0574C108.961 45.2482 108.793 45.4159 108.602 45.5542C108.364 45.7356 108.099 45.8766 107.817 45.9717C107.477 46.0776 107.123 46.1283 106.768 46.122ZM105.199 42.5189H108.366V42.4855C108.37 42.1636 108.306 41.8445 108.176 41.5503C108.055 41.288 107.865 41.0642 107.627 40.9032C107.371 40.7381 107.072 40.6538 106.768 40.661C106.475 40.6579 106.188 40.7422 105.942 40.9032C105.705 41.0634 105.518 41.2876 105.401 41.5503C105.276 41.8457 105.214 42.1643 105.219 42.4855L105.199 42.5189Z" fill="white"/>
<path id="Vector_25" d="M111.926 46.0055C111.891 46.0066 111.856 46.0004 111.823 45.9875C111.791 45.9746 111.761 45.9552 111.736 45.9303C111.711 45.905 111.692 45.875 111.679 45.842C111.667 45.809 111.661 45.7737 111.662 45.7383V40.2063C111.66 40.1335 111.687 40.063 111.736 40.0101C111.76 39.9827 111.789 39.9609 111.822 39.9465C111.855 39.932 111.89 39.9252 111.926 39.9266H112.459C112.496 39.9254 112.533 39.9323 112.567 39.9467C112.601 39.9611 112.632 39.9827 112.657 40.0101C112.683 40.0355 112.703 40.0661 112.717 40.0999C112.73 40.1336 112.737 40.1699 112.735 40.2063V40.7198C112.883 40.4615 113.105 40.2548 113.371 40.127C113.676 39.9861 114.008 39.9175 114.342 39.9266H114.805C114.839 39.9248 114.873 39.9306 114.906 39.9436C114.938 39.9565 114.967 39.9764 114.99 40.0017C115.037 40.0545 115.062 40.1231 115.061 40.1938V40.6739C115.062 40.7084 115.057 40.7428 115.045 40.7751C115.032 40.8074 115.014 40.8369 114.99 40.8618C114.966 40.8857 114.937 40.9044 114.905 40.9166C114.873 40.9288 114.839 40.9343 114.805 40.9328H114.111C113.931 40.9228 113.751 40.9502 113.582 41.0134C113.412 41.0766 113.258 41.1742 113.128 41.3002C113.006 41.434 112.911 41.5913 112.85 41.7627C112.789 41.9341 112.763 42.1161 112.773 42.298V45.7383C112.773 45.7744 112.766 45.8102 112.752 45.8433C112.738 45.8764 112.717 45.9061 112.69 45.9303C112.636 45.9806 112.565 46.0076 112.492 46.0055H111.926Z" fill="white"/>
<path id="Vector_26" d="M118.447 46.1223C118.084 46.1265 117.725 46.0465 117.398 45.8885C117.095 45.746 116.833 45.5293 116.634 45.258C116.442 44.9975 116.341 44.6807 116.345 44.3562C116.338 44.1042 116.394 43.8546 116.507 43.63C116.621 43.4054 116.788 43.213 116.993 43.0703C117.495 42.724 118.074 42.5075 118.678 42.4399L120.404 42.1935V41.8554C120.414 41.695 120.39 41.5344 120.335 41.3836C120.281 41.2328 120.196 41.0949 120.086 40.9786C119.794 40.7418 119.423 40.6281 119.05 40.6613C118.76 40.6495 118.473 40.7235 118.224 40.8742C118.022 41.0011 117.866 41.1898 117.778 41.4128C117.762 41.4649 117.729 41.5102 117.685 41.5418C117.641 41.5735 117.588 41.5897 117.534 41.5882H117.014C116.978 41.591 116.942 41.5852 116.909 41.5715C116.876 41.5577 116.847 41.5362 116.824 41.5088C116.782 41.4587 116.76 41.3948 116.762 41.3293C116.773 41.1817 116.819 41.0387 116.894 40.9118C117 40.7205 117.14 40.5506 117.307 40.4108C117.52 40.231 117.761 40.0898 118.021 39.9933C118.361 39.8713 118.719 39.8133 119.079 39.8221C119.476 39.811 119.872 39.8718 120.247 40.0016C120.53 40.102 120.785 40.2695 120.991 40.4901C121.171 40.687 121.305 40.9224 121.383 41.179C121.465 41.431 121.507 41.6945 121.507 41.9597V45.7507C121.508 45.7861 121.502 45.8214 121.489 45.8544C121.476 45.8874 121.457 45.9175 121.433 45.9428C121.38 45.9928 121.311 46.0198 121.239 46.0179H120.71C120.674 46.0204 120.637 46.015 120.603 46.002C120.569 45.9891 120.538 45.9689 120.512 45.9428C120.465 45.89 120.44 45.8214 120.442 45.7507V45.233C120.324 45.3909 120.185 45.5314 120.029 45.6505C119.836 45.7971 119.621 45.9113 119.393 45.9887C119.087 46.0859 118.767 46.1311 118.447 46.1223ZM118.69 45.2455C118.992 45.2503 119.29 45.18 119.558 45.041C119.826 44.8994 120.043 44.6758 120.177 44.4022C120.339 44.0642 120.417 43.6917 120.404 43.3166V42.991L119.062 43.1872C118.626 43.2282 118.204 43.362 117.823 43.5797C117.701 43.6507 117.599 43.7521 117.527 43.8741C117.455 43.9961 117.415 44.1348 117.41 44.2769C117.405 44.4761 117.474 44.67 117.604 44.8197C117.736 44.9662 117.902 45.0768 118.088 45.1412C118.281 45.2104 118.485 45.2457 118.69 45.2455Z" fill="white"/>
<path id="Vector_27" d="M126.248 46.0055C125.882 46.0215 125.519 45.9348 125.199 45.7549C124.929 45.5898 124.722 45.3387 124.609 45.041C124.478 44.6919 124.414 44.3204 124.423 43.9471V40.8617H123.522C123.487 40.8631 123.451 40.8572 123.418 40.8443C123.384 40.8313 123.354 40.8117 123.328 40.7866C123.304 40.7613 123.285 40.7312 123.272 40.6982C123.259 40.6652 123.253 40.6299 123.254 40.5945V40.177C123.253 40.1416 123.259 40.1063 123.272 40.0733C123.285 40.0403 123.304 40.0102 123.328 39.985C123.354 39.9598 123.384 39.9402 123.418 39.9273C123.451 39.9144 123.487 39.9084 123.522 39.9098H124.423V37.9559C124.422 37.9204 124.428 37.8852 124.441 37.8522C124.453 37.8192 124.473 37.7891 124.497 37.7638C124.522 37.739 124.552 37.7195 124.584 37.7066C124.617 37.6937 124.652 37.6876 124.687 37.6887H125.232C125.267 37.6873 125.302 37.6934 125.335 37.7063C125.368 37.7192 125.397 37.7388 125.422 37.7638C125.447 37.7891 125.466 37.8192 125.479 37.8522C125.492 37.8852 125.498 37.9204 125.497 37.9559V39.9098H126.934C126.969 39.9087 127.004 39.9149 127.036 39.9278C127.069 39.9407 127.099 39.9601 127.124 39.985C127.148 40.0102 127.167 40.0403 127.18 40.0733C127.193 40.1063 127.199 40.1416 127.198 40.177V40.5945C127.199 40.6299 127.193 40.6652 127.18 40.6982C127.167 40.7312 127.148 40.7613 127.124 40.7866C127.099 40.8114 127.069 40.8309 127.036 40.8438C127.004 40.8567 126.969 40.8628 126.934 40.8617H125.497V43.8553C125.482 44.1549 125.546 44.453 125.682 44.7195C125.754 44.8276 125.853 44.9139 125.97 44.969C126.086 45.0242 126.215 45.0462 126.343 45.0326H127.049C127.085 45.0314 127.12 45.0378 127.153 45.0515C127.186 45.0651 127.215 45.0858 127.239 45.112C127.264 45.1371 127.283 45.1672 127.296 45.2002C127.309 45.2332 127.315 45.2686 127.314 45.304V45.7215C127.315 45.7569 127.309 45.7922 127.296 45.8252C127.283 45.8582 127.264 45.8883 127.239 45.9136C127.214 45.9384 127.185 45.9579 127.152 45.9708C127.119 45.9837 127.084 45.9898 127.049 45.9887L126.248 46.0055Z" fill="white"/>
<path id="Vector_28" d="M129.411 38.7908C129.376 38.7921 129.341 38.7861 129.309 38.7732C129.276 38.7603 129.246 38.7407 129.221 38.7157C129.195 38.6914 129.175 38.6616 129.161 38.6284C129.147 38.5953 129.141 38.5595 129.143 38.5236V37.8932C129.141 37.8573 129.147 37.8216 129.161 37.7884C129.175 37.7552 129.195 37.7254 129.221 37.7011C129.245 37.6747 129.275 37.6539 129.308 37.6402C129.34 37.6265 129.376 37.6202 129.411 37.6218H130.138C130.174 37.6202 130.209 37.6265 130.242 37.6402C130.275 37.6539 130.304 37.6747 130.328 37.7011C130.353 37.7261 130.373 37.756 130.387 37.789C130.4 37.822 130.407 37.8575 130.407 37.8932V38.5236C130.407 38.5593 130.4 38.5948 130.387 38.6278C130.373 38.6608 130.353 38.6907 130.328 38.7157C130.303 38.7407 130.273 38.7603 130.241 38.7732C130.208 38.7861 130.173 38.7921 130.138 38.7908H129.411ZM129.502 46.0054C129.467 46.0067 129.432 46.0007 129.399 45.9878C129.367 45.9748 129.337 45.9553 129.312 45.9302C129.288 45.9049 129.268 45.8749 129.256 45.8419C129.243 45.8089 129.237 45.7736 129.238 45.7382V40.1937C129.237 40.1582 129.243 40.123 129.256 40.09C129.268 40.057 129.288 40.0269 129.312 40.0016C129.337 39.9766 129.367 39.957 129.399 39.9441C129.432 39.9312 129.467 39.9252 129.502 39.9265H130.06C130.093 39.925 130.127 39.931 130.159 39.944C130.19 39.957 130.218 39.9766 130.241 40.0016C130.265 40.0273 130.284 40.0575 130.296 40.0905C130.308 40.1234 130.313 40.1585 130.312 40.1937V45.7382C130.313 45.7733 130.308 45.8084 130.296 45.8414C130.284 45.8744 130.265 45.9046 130.241 45.9302C130.218 45.9552 130.19 45.9749 130.159 45.9879C130.127 46.0008 130.093 46.0068 130.06 46.0054H129.502Z" fill="white"/>
<path id="Vector_29" d="M135.333 46.1221C134.824 46.1398 134.319 46.0232 133.867 45.7839C133.482 45.5644 133.168 45.2367 132.963 44.8404C132.749 44.4139 132.632 43.9447 132.62 43.4668C132.62 43.3373 132.62 43.1662 132.62 42.9616C132.62 42.757 132.62 42.5858 132.62 42.4647C132.629 41.9828 132.75 41.5097 132.971 41.0828C133.178 40.6887 133.494 40.3638 133.88 40.1476C134.327 39.9082 134.828 39.7916 135.333 39.8094C135.84 39.792 136.343 39.9086 136.791 40.1476C137.176 40.365 137.492 40.6896 137.7 41.0828C137.919 41.5104 138.04 41.9831 138.051 42.4647C138.051 42.5858 138.051 42.7528 138.051 42.9616C138.051 43.1703 138.051 43.3373 138.051 43.4668C138.039 43.9452 137.921 44.4149 137.704 44.8404C137.502 45.2372 137.189 45.5653 136.804 45.7839C136.351 46.0238 135.844 46.1403 135.333 46.1221ZM135.333 45.2203C135.546 45.23 135.758 45.1941 135.956 45.115C136.154 45.0358 136.333 44.9152 136.481 44.761C136.792 44.3811 136.956 43.9008 136.944 43.4083C136.944 43.2914 136.944 43.1453 136.944 42.9658C136.944 42.7862 136.944 42.6401 136.944 42.519C136.955 42.0279 136.791 41.5493 136.481 41.1705C136.334 41.0157 136.155 40.8946 135.957 40.8154C135.759 40.7362 135.546 40.7007 135.333 40.7112C135.121 40.7015 134.909 40.7374 134.711 40.8165C134.513 40.8957 134.334 41.0163 134.185 41.1705C133.872 41.5468 133.709 42.0275 133.727 42.519C133.727 42.6401 133.727 42.7862 133.727 42.9658C133.727 43.1453 133.727 43.2914 133.727 43.4083C133.708 43.9012 133.871 44.3834 134.185 44.761C134.334 44.9145 134.513 45.0347 134.711 45.1138C134.909 45.193 135.121 45.2292 135.333 45.2203Z" fill="white"/>
<path id="Vector_30" d="M140.57 46.0054C140.498 46.0072 140.429 45.9802 140.376 45.9302C140.352 45.9049 140.332 45.8749 140.32 45.8419C140.307 45.8089 140.301 45.7736 140.302 45.7382V40.1936C140.301 40.1582 140.307 40.123 140.32 40.09C140.332 40.057 140.352 40.0269 140.376 40.0016C140.429 39.9516 140.498 39.9246 140.57 39.9265H141.115C141.151 39.9252 141.185 39.9311 141.218 39.9441C141.251 39.957 141.281 39.9766 141.305 40.0016C141.331 40.0261 141.352 40.0559 141.365 40.089C141.379 40.1221 141.385 40.1578 141.384 40.1936V40.7114C141.586 40.441 141.844 40.2187 142.14 40.06C142.504 39.8794 142.907 39.7934 143.312 39.8095C143.762 39.7959 144.206 39.9117 144.593 40.1435C144.941 40.3649 145.215 40.6862 145.382 41.0663C145.568 41.4992 145.659 41.9678 145.65 42.4398V45.7382C145.651 45.8089 145.626 45.8775 145.58 45.9302C145.556 45.9556 145.527 45.9754 145.495 45.9884C145.463 46.0013 145.428 46.0072 145.394 46.0054H144.832C144.797 46.0064 144.762 46.0003 144.73 45.9874C144.697 45.9745 144.667 45.955 144.642 45.9302C144.618 45.9049 144.598 45.8749 144.586 45.8419C144.573 45.8089 144.567 45.7736 144.568 45.7382V42.4983C144.595 42.0372 144.455 41.5819 144.176 41.2165C144.028 41.0584 143.848 40.9351 143.648 40.8557C143.448 40.7763 143.234 40.7427 143.019 40.7573C142.806 40.748 142.593 40.7841 142.395 40.8633C142.196 40.9424 142.017 41.0627 141.867 41.2165C141.569 41.5729 141.421 42.0329 141.454 42.4983V45.7382C141.455 45.7736 141.449 45.8089 141.436 45.8419C141.424 45.8749 141.404 45.9049 141.38 45.9302C141.355 45.955 141.325 45.9745 141.292 45.9874C141.26 46.0003 141.225 46.0064 141.19 46.0054H140.57Z" fill="white"/>
<path id="Vector_31" d="M60.2703 45.3789C57.5573 47.0035 54.4618 47.8601 51.3086 47.8589C48.1781 47.8597 45.1042 47.0151 42.4048 45.4123C37.8874 42.7678 32.7576 41.3805 27.5375 41.3917C21.6272 41.3914 15.8508 43.1718 10.946 46.5056C6.04113 49.8394 2.23032 54.5752 0 60.1086H13.9174C15.5717 58.0722 17.6519 56.4318 20.0085 55.3056C22.365 54.1794 24.9392 53.5954 27.5457 53.5955C30.6763 53.5946 33.7502 54.4393 36.4496 56.0421C40.9666 58.688 46.0964 60.0767 51.3169 60.0669C56.591 60.0749 61.7712 58.6564 66.3204 55.9586L60.2703 45.3789Z" fill="white"/>
<path id="Vector_32" d="M41.459 12.4459L28.4997 35.1417C28.19 35.1417 27.8803 35.1417 27.5664 35.1417C22.2836 35.1322 17.0645 36.3086 12.2861 38.5862L34.3227 0L41.459 12.4459Z" fill="white"/>
</g>
</svg>
