<svg width="17" height="17" viewBox="0 0 17 17" fill="none" xmlns="http://www.w3.org/2000/svg">
<path d="M8.49195 0.403229C4.18354 0.403229 0.677429 3.90934 0.677429 8.21775C0.677429 12.5261 4.18354 16.0323 8.49195 16.0323C12.8003 16.0323 16.3065 12.5261 16.3065 8.21775C16.3065 3.90934 12.8003 0.403229 8.49195 0.403229ZM8.49195 1.70565C12.0964 1.70565 15.004 4.6133 15.004 8.21775C15.0056 9.77672 14.4466 11.2843 13.429 12.4653C12.4114 13.6464 11.003 14.4221 9.46095 14.651V10.1167H11.3156L11.6067 8.23272H9.46095V7.20381C9.46095 6.42236 9.71817 5.72752 10.4495 5.72752H11.6249V4.08387C11.4185 4.05586 10.9815 3.9953 10.1558 3.9953C8.43138 3.9953 7.42071 4.90569 7.42071 6.98045V8.23272H5.64811V10.1167H7.42071V14.6348C5.89997 14.3845 4.51777 13.6016 3.52106 12.4261C2.52436 11.2506 1.97808 9.75894 1.97985 8.21775C1.97985 4.6133 4.8875 1.70565 8.49195 1.70565Z" fill="white"/>
</svg>
