<svg width="14" height="15" viewBox="0 0 14 15" fill="none" xmlns="http://www.w3.org/2000/svg">
<path d="M4.06 1.0127H9.94C11.9039 1.0127 13.5 2.60884 13.5 4.5727V10.4527C13.5 11.3969 13.1249 12.3024 12.4573 12.97C11.7897 13.6376 10.8842 14.0127 9.94 14.0127H4.06C2.09614 14.0127 0.5 12.4166 0.5 10.4527V4.5727C0.5 3.62852 0.87507 2.72302 1.5427 2.0554C2.21033 1.38777 3.11583 1.0127 4.06 1.0127ZM1.78454 2.29723L2.13809 2.65079L1.78454 2.29723C1.21818 2.86359 0.9 3.63174 0.9 4.4327V10.5927C0.9 12.2618 2.25086 13.6127 3.92 13.6127H10.08C10.881 13.6127 11.6491 13.2945 12.2155 12.7282C12.7818 12.1618 13.1 11.3936 13.1 10.5927V4.4327C13.1 2.76355 11.7491 1.4127 10.08 1.4127H3.92C3.11905 1.4127 2.3509 1.73087 1.78454 2.29723ZM10.675 3.4627C10.7745 3.4627 10.8698 3.5022 10.9402 3.57253C11.0105 3.64286 11.05 3.73824 11.05 3.8377C11.05 3.93715 11.0105 4.03253 10.9402 4.10286C10.8698 4.17319 10.7745 4.2127 10.675 4.2127C10.5755 4.2127 10.4802 4.17319 10.4098 4.10286C10.3395 4.03254 10.3 3.93715 10.3 3.8377C10.3 3.73824 10.3395 3.64286 10.4098 3.57253C10.4802 3.5022 10.5755 3.4627 10.675 3.4627ZM7 4.5127C7.79565 4.5127 8.55871 4.82877 9.12132 5.39137C9.68393 5.95398 10 6.71705 10 7.5127C10 8.30834 9.68393 9.07141 9.12132 9.63402C8.55871 10.1966 7.79565 10.5127 7 10.5127C6.20435 10.5127 5.44129 10.1966 4.87868 9.63402C4.31607 9.07141 4 8.30834 4 7.5127C4 6.71705 4.31607 5.95398 4.87868 5.39137C5.44129 4.82877 6.20435 4.5127 7 4.5127ZM7 4.9127C6.31044 4.9127 5.64912 5.18662 5.16152 5.67422C4.67393 6.16181 4.4 6.82313 4.4 7.5127C4.4 8.20226 4.67393 8.86358 5.16152 9.35117C5.64912 9.83877 6.31044 10.1127 7 10.1127C7.68956 10.1127 8.35088 9.83877 8.83848 9.35117C9.32607 8.86358 9.6 8.20226 9.6 7.5127C9.6 6.82313 9.32607 6.16181 8.83848 5.67422C8.35088 5.18662 7.68956 4.9127 7 4.9127Z" fill="#7F392C" stroke="#7F392C"/>
</svg>
