<svg width="14" height="15" viewBox="0 0 14 15" fill="none" xmlns="http://www.w3.org/2000/svg">
<path d="M11.6053 2.9024L11.6071 2.90417C12.8284 4.11936 13.5 5.73481 13.5 7.45672C13.5 11.0002 10.5956 13.8937 7.02814 13.8937C5.94416 13.8937 4.87926 13.6208 3.93176 13.1071L3.75808 13.013L3.56695 13.063L0.710758 13.81L1.46718 11.0467L1.52222 10.8457L1.41815 10.6651C0.856382 9.69015 0.556282 8.58611 0.556282 7.44972C0.556282 3.90623 3.46071 1.01274 7.02814 1.01274L7.02987 1.01273C7.88061 1.00979 8.72337 1.17542 9.50897 1.4999C10.2946 1.82439 11.0072 2.30119 11.6053 2.9024ZM3.81707 12.842L3.81706 12.842L3.82006 12.8438C4.78981 13.4136 5.89728 13.7177 7.02814 13.7177C10.494 13.7177 13.3253 10.915 13.3111 7.45648C13.3139 6.63266 13.1524 5.81651 12.8362 5.05529C12.5198 4.29385 12.0549 3.60259 11.4684 3.02146C10.2839 1.83572 8.70051 1.18173 7.0211 1.18173C3.55336 1.18173 0.72412 3.99322 0.72412 7.44972L0.724121 7.45009C0.724993 8.62881 1.05886 9.78338 1.68739 10.782L1.68735 10.7821L1.69103 10.7877L1.70975 10.8166L1.18516 12.7284L0.955998 13.5635L1.79384 13.3444L3.786 12.8235L3.81707 12.842ZM9.99255 9.35689C10.0166 9.36837 10.0398 9.37918 10.061 9.38899C10.0493 9.48665 10.022 9.61468 9.97034 9.75673L9.97029 9.75671L9.96777 9.76398C9.95481 9.80136 9.86838 9.91831 9.65721 10.0534C9.45976 10.1797 9.27001 10.2474 9.19467 10.2587C8.92696 10.2958 8.6329 10.3077 8.32041 10.2076L8.32043 10.2075L8.31328 10.2053C8.0706 10.1315 7.76724 10.0331 7.37667 9.86178L7.37312 9.86026C5.84872 9.20584 4.80202 7.69297 4.62658 7.4394C4.61842 7.42761 4.61215 7.41854 4.6078 7.41241L4.60362 7.40652L4.59928 7.40075L4.59801 7.39907C4.55896 7.34728 4.4039 7.14162 4.25838 6.8566C4.10756 6.56122 3.98945 6.2235 3.98945 5.90972C3.98945 5.3183 4.25768 5.02416 4.42556 4.84007C4.43917 4.82515 4.45211 4.81095 4.4642 4.79738C4.49206 4.76802 4.51473 4.75621 4.52822 4.75081C4.54421 4.74442 4.55602 4.74373 4.55879 4.74373H4.83156C4.95472 5.04966 5.24754 5.76265 5.34949 5.99413C5.32293 6.04544 5.31069 6.06398 5.2845 6.09438C5.24045 6.14551 5.20426 6.18921 5.17292 6.22706C5.12407 6.28605 5.087 6.33081 5.05035 6.36728L5.05035 6.36728C5.04839 6.36923 5.04611 6.37146 5.04355 6.37398C5.00172 6.41507 4.88332 6.53138 4.82282 6.69887C4.74216 6.92219 4.78694 7.14102 4.8899 7.32395L4.89358 7.33049L4.89745 7.33691C5.00649 7.51773 5.38348 8.14092 5.96443 8.65653C6.59763 9.21949 7.16975 9.46198 7.40099 9.56C7.43241 9.57331 7.45753 9.58396 7.47566 9.59238C7.59662 9.65394 7.77085 9.72146 7.97275 9.69817C8.19902 9.67206 8.3556 9.54628 8.45608 9.42708C8.53808 9.33349 8.77217 9.05738 8.93313 8.84768C9.11588 8.93232 9.46711 9.10257 9.72411 9.22715C9.84172 9.28416 9.93959 9.3316 9.99255 9.35689Z" fill="#7F392C" stroke="#7F392C"/>
</svg>
