<svg width="17" height="17" viewBox="0 0 17 17" fill="none" xmlns="http://www.w3.org/2000/svg">
<path d="M5.13033 1.22582H11.5794C13.7333 1.22582 15.4839 2.97642 15.4839 5.13033V11.5794C15.4839 12.6149 15.0725 13.608 14.3403 14.3403C13.608 15.0725 12.6149 15.4839 11.5794 15.4839H5.13033C2.97642 15.4839 1.22582 13.7333 1.22582 11.5794V5.13033C1.22582 4.09479 1.63718 3.10166 2.36942 2.36942C3.10166 1.63718 4.09479 1.22582 5.13033 1.22582ZM2.63466 2.63466L3.02243 3.02243L2.63466 2.63466C2.0135 3.25583 1.66453 4.09832 1.66453 4.97678V11.7329C1.66453 13.5636 3.14611 15.0452 4.97678 15.0452H11.7329C12.6114 15.0452 13.4539 14.6962 14.075 14.075C14.6962 13.4539 15.0452 12.6114 15.0452 11.7329V4.97678C15.0452 3.14611 13.5636 1.66453 11.7329 1.66453H4.97678C4.09832 1.66453 3.25583 2.0135 2.63466 2.63466ZM12.0947 4.61503L11.7069 5.0028L12.0947 4.61503C12.0175 4.5379 11.9742 4.43328 11.9742 4.3242C11.9742 4.21512 12.0175 4.11051 12.0947 4.03338C12.1718 3.95625 12.2764 3.91291 12.3855 3.91291C12.4946 3.91291 12.5992 3.95625 12.6763 4.03338C12.7535 4.11051 12.7968 4.21512 12.7968 4.3242C12.7968 4.43329 12.7535 4.5379 12.6763 4.61503C12.5992 4.69216 12.4946 4.73549 12.3855 4.73549C12.2764 4.73549 12.1718 4.69216 12.0947 4.61503ZM8.35485 5.06453C9.2275 5.06453 10.0644 5.41118 10.6815 6.02824C11.2985 6.64529 11.6452 7.4822 11.6452 8.35485C11.6452 9.2275 11.2985 10.0644 10.6815 10.6815C10.0644 11.2985 9.2275 11.6452 8.35485 11.6452C7.4822 11.6452 6.64529 11.2985 6.02824 10.6815C5.41118 10.0644 5.06453 9.2275 5.06453 8.35485C5.06453 7.4822 5.41118 6.64529 6.02824 6.02824C6.64529 5.41118 7.4822 5.06453 8.35485 5.06453ZM8.35485 5.50324C7.59855 5.50324 6.87323 5.80367 6.33845 6.33845C5.80367 6.87323 5.50324 7.59855 5.50324 8.35485C5.50324 9.11114 5.80367 9.83646 6.33845 10.3712C6.87323 10.906 7.59855 11.2065 8.35485 11.2065C9.11114 11.2065 9.83646 10.906 10.3712 10.3712C10.906 9.83646 11.2065 9.11114 11.2065 8.35485C11.2065 7.59855 10.906 6.87323 10.3712 6.33845C9.83646 5.80367 9.11114 5.50324 8.35485 5.50324Z" stroke="white" stroke-width="1.09677"/>
</svg>
