<svg width="15" height="18" viewBox="0 0 15 18" fill="none" xmlns="http://www.w3.org/2000/svg">
<path d="M8.2508 17.0314C8.10377 17.1363 7.92764 17.1927 7.74701 17.1927C7.56637 17.1927 7.39025 17.1363 7.24322 17.0314C2.89892 13.9348 -1.71167 7.56548 2.94929 2.96299C4.22844 1.70362 5.95195 0.998439 7.74701 1C9.54626 1 11.2726 1.70621 12.5447 2.96209C17.2057 7.56458 12.5951 13.933 8.2508 17.0314Z" stroke="white" stroke-width="0.852247" stroke-linecap="round" stroke-linejoin="round"/>
<path d="M7.74701 9.09631C8.2242 9.09631 8.68185 8.90675 9.01927 8.56932C9.3567 8.2319 9.54626 7.77425 9.54626 7.29706C9.54626 6.81987 9.3567 6.36222 9.01927 6.02479C8.68185 5.68737 8.2242 5.4978 7.74701 5.4978C7.26982 5.4978 6.81217 5.68737 6.47474 6.02479C6.13732 6.36222 5.94775 6.81987 5.94775 7.29706C5.94775 7.77425 6.13732 8.2319 6.47474 8.56932C6.81217 8.90675 7.26982 9.09631 7.74701 9.09631Z" stroke="white" stroke-width="0.852247" stroke-linecap="round" stroke-linejoin="round"/>
</svg>
