<svg width="14" height="15" viewBox="0 0 14 15" fill="none" xmlns="http://www.w3.org/2000/svg">
<path d="M13.1379 9.7924L9.92596 8.35311L9.91709 8.34902C9.75035 8.2777 9.56845 8.24908 9.38786 8.26575C9.20726 8.28242 9.03368 8.34384 8.8828 8.44448C8.86503 8.45621 8.84796 8.46896 8.83166 8.48266L7.17216 9.8974C6.12082 9.38673 5.03539 8.30948 4.52472 7.27177L5.9415 5.58703C5.95514 5.56999 5.96809 5.55294 5.98037 5.53454C6.07884 5.38406 6.13858 5.21158 6.15428 5.03244C6.16999 4.85329 6.14116 4.67305 6.07036 4.50774V4.49956L4.62699 1.28212C4.5334 1.06617 4.37249 0.886276 4.16826 0.769294C3.96404 0.652313 3.72745 0.604518 3.49383 0.633044C2.56997 0.754614 1.72195 1.20833 1.10816 1.90945C0.494369 2.61056 0.156783 3.51114 0.158453 4.44297C0.158453 9.85649 4.5629 14.2609 9.97641 14.2609C10.9082 14.2626 11.8088 13.925 12.5099 13.3112C13.211 12.6974 13.6648 11.8494 13.7863 10.9256C13.8149 10.692 13.7672 10.4555 13.6504 10.2513C13.5335 10.0471 13.3538 9.8861 13.1379 9.7924ZM9.97641 13.1701C7.66262 13.1675 5.44432 12.2473 3.80823 10.6112C2.17213 8.97506 1.25186 6.75676 1.24934 4.44297C1.24677 3.77718 1.48664 3.13322 1.92414 2.63135C2.36165 2.12948 2.96687 1.80402 3.62678 1.71575C3.62651 1.71847 3.62651 1.72121 3.62678 1.72393L5.05857 4.92841L3.64928 6.6152C3.63498 6.63165 3.62198 6.64921 3.61042 6.66769C3.50782 6.82513 3.44763 7.00641 3.43568 7.19395C3.42374 7.38149 3.46044 7.56894 3.54224 7.73813C4.15995 9.00151 5.43288 10.2649 6.70989 10.8819C6.88032 10.963 7.06885 10.9984 7.25707 10.9848C7.44529 10.9711 7.62675 10.9089 7.78373 10.8042C7.80124 10.7924 7.81808 10.7797 7.83419 10.766L9.49165 9.35196L12.6961 10.7872H12.7036C12.6164 11.448 12.2915 12.0544 11.7895 12.493C11.2875 12.9316 10.643 13.1723 9.97641 13.1701Z" fill="white"/>
</svg>
