<svg width="17" height="17" viewBox="0 0 17 17" fill="none" xmlns="http://www.w3.org/2000/svg">
<path d="M13.7945 2.91158C13.0871 2.2006 12.2445 1.63688 11.3158 1.2533C10.3872 0.869728 9.39108 0.673974 8.38559 0.67746C4.17265 0.67746 0.739035 4.0939 0.739035 8.28576C0.739035 9.6293 1.09397 10.9345 1.75755 12.0861L0.677307 16.0323L4.72821 14.9728C5.84703 15.5793 7.10473 15.9017 8.38559 15.9017C12.5985 15.9017 16.0321 12.4853 16.0321 8.29344C16.0321 6.25893 15.2374 4.34725 13.7945 2.91158ZM8.38559 14.6119C7.24362 14.6119 6.1248 14.3048 5.14487 13.729L4.91339 13.5908L2.506 14.2204L3.14643 11.8865L2.99211 11.6485C2.35766 10.6404 2.02077 9.47517 2.01989 8.28576C2.01989 4.80022 4.87481 1.95958 8.37787 1.95958C10.0754 1.95958 11.6726 2.61984 12.8686 3.81752C13.4608 4.40404 13.9301 5.10168 14.2493 5.87001C14.5685 6.63833 14.7313 7.46206 14.7281 8.29344C14.7436 11.779 11.8887 14.6119 8.38559 14.6119ZM11.8732 9.88266C11.6803 9.79053 10.739 9.32989 10.5692 9.26079C10.3917 9.19937 10.2683 9.16866 10.1371 9.35292C10.0059 9.54485 9.6433 9.97479 9.53527 10.0976C9.42725 10.2281 9.31151 10.2435 9.11861 10.1437C8.92571 10.0516 8.30843 9.84427 7.58313 9.19937C7.01214 8.69266 6.63406 8.07079 6.51832 7.87886C6.41029 7.68692 6.50289 7.58712 6.60319 7.48731C6.68807 7.40286 6.79609 7.26467 6.88869 7.15718C6.98128 7.0497 7.01986 6.96525 7.08159 6.84241C7.14331 6.71189 7.11245 6.60441 7.06615 6.51228C7.01986 6.42015 6.63406 5.48351 6.47974 5.09964C6.32542 4.73112 6.16338 4.77719 6.04764 4.76951H5.67727C5.5461 4.76951 5.34549 4.81558 5.16802 5.00751C4.99827 5.19945 4.50444 5.66009 4.50444 6.59673C4.50444 7.53337 5.19117 8.43931 5.28376 8.56215C5.37635 8.69266 6.63406 10.612 8.54763 11.4335C9.00287 11.6331 9.35781 11.7483 9.63558 11.8327C10.0908 11.9786 10.5075 11.9556 10.8393 11.9095C11.2096 11.8557 11.9735 11.4488 12.1278 11.0036C12.2899 10.5583 12.2899 10.1821 12.2359 10.0976C12.1819 10.0132 12.0661 9.97479 11.8732 9.88266Z" fill="white"/>
</svg>
