<svg width="42" height="18" viewBox="0 0 42 18" fill="none" xmlns="http://www.w3.org/2000/svg">
<path fill-rule="evenodd" clip-rule="evenodd" d="M24.7376 13.3163C24.4675 13.5264 24.1674 13.7064 23.8674 13.8565C23.5373 14.0665 23.1472 14.2165 22.7871 14.3666C22.397 14.5166 22.0069 14.6066 21.5868 14.6066C21.2867 14.6066 20.9566 14.5766 20.7166 14.3966C20.5065 14.2466 20.4165 14.0065 20.4165 13.7664C20.4165 13.5564 20.4765 13.3463 20.5965 13.1363C20.7166 12.9262 20.8366 12.7462 20.9866 12.5661C21.2567 12.206 21.5568 11.8759 21.8869 11.5459C22.2169 11.2158 22.547 10.8857 22.9071 10.5856C22.9671 10.5256 23.0572 10.4656 23.1172 10.4056C23.0271 10.4656 22.9071 10.5256 22.8171 10.5856C22.607 10.7056 22.427 10.8257 22.2169 10.9757C21.9769 11.1258 21.7368 11.3058 21.4968 11.4858C21.2867 11.6359 21.1067 11.7559 20.9266 11.906C20.8666 11.966 20.8066 11.996 20.7466 12.056C20.6866 12.086 20.6565 12.116 20.5965 12.146C20.5065 12.206 20.4165 12.206 20.3265 12.176C20.2965 12.176 20.2965 12.146 20.2664 12.116C20.2364 12.056 20.2664 11.966 20.3265 11.906C20.3565 11.8459 20.4165 11.7859 20.4765 11.7559C20.5665 11.6959 20.6265 11.6059 20.7166 11.5459C20.9266 11.3658 21.1367 11.2158 21.3767 11.0657C21.6768 10.8257 22.0069 10.6156 22.337 10.4056C22.6371 10.1955 22.9671 9.98546 23.2972 9.80541C23.5673 9.65538 23.8374 9.50534 24.1074 9.38531C24.3175 9.29528 24.5575 9.20526 24.7676 9.17525C24.9776 9.14525 25.1877 9.11524 25.4278 9.11524C25.5778 9.11524 25.7278 9.11524 25.8779 9.11524C25.9679 9.11524 26.0879 9.14525 26.1179 9.20526C26.238 9.3553 25.9679 9.59536 25.8779 9.68538C25.5478 9.98546 25.2477 10.2855 24.9476 10.6156C24.6176 10.9457 24.2875 11.3058 23.9574 11.6659C23.6873 11.966 23.4173 12.236 23.1772 12.5361C23.0872 12.6561 22.9971 12.7762 22.9071 12.8962C22.8471 12.9862 22.7571 13.0763 22.6971 13.1663C22.6371 13.2863 22.547 13.4363 22.517 13.5564C22.517 13.6164 22.517 13.7064 22.577 13.7364C22.6671 13.7964 22.7871 13.7964 22.8771 13.7664C23.0272 13.7364 23.2072 13.6764 23.3572 13.6164C23.4773 13.5864 23.5673 13.5264 23.6573 13.4664C23.7773 13.4063 23.8974 13.3163 24.0474 13.2563C24.3475 13.0763 24.6476 12.8962 24.9176 12.6862C25.1277 12.5361 25.3377 12.3861 25.5478 12.236C25.7278 12.116 25.8779 11.996 26.0579 11.8759C26.178 11.7859 26.298 11.6659 26.418 11.5759C26.478 11.5459 26.508 11.4858 26.5681 11.4558C26.7781 11.3058 26.9882 11.1258 27.1982 10.9757C27.4683 10.7657 27.7084 10.5556 27.9784 10.3456C28.2185 10.1655 28.4585 9.95545 28.6986 9.7454C28.8486 9.59536 29.0287 9.47533 29.1787 9.32529C29.0587 9.23527 28.9687 9.08523 28.9687 8.90518C28.9687 8.66512 29.0887 8.45507 29.2387 8.30503C29.4188 8.12498 29.6288 8.00495 29.8389 7.91493C30.109 7.82491 30.379 7.76489 30.6491 7.76489C30.7991 7.76489 30.9492 7.7949 31.0992 7.85491C31.2193 7.91493 31.3393 8.00495 31.3693 8.12498V8.185L31.3093 8.21501C31.1892 8.27502 31.0992 8.33504 31.0092 8.42506C30.9192 8.48508 30.8292 8.5751 30.7091 8.63512C30.6191 8.72514 30.5291 8.81516 30.4691 8.90518C30.439 8.93519 30.409 8.99521 30.4391 9.05522C30.4691 9.17525 30.6791 9.17525 30.7691 9.17525C31.0992 9.17525 31.4293 9.20526 31.7594 9.20526C32.0295 9.23527 32.2995 9.26528 32.5396 9.3553C32.7496 9.44532 32.8997 9.59536 32.8997 9.80541V9.83542C32.8997 10.0155 32.7496 10.2255 32.6296 10.3456C32.4496 10.5556 32.2095 10.7657 31.9995 10.9757C31.7294 11.2158 31.4893 11.4558 31.2192 11.7259C30.9492 11.996 30.7091 12.266 30.4391 12.5661C30.349 12.6862 30.259 12.7762 30.169 12.8962C30.109 12.9862 30.049 13.0763 29.9889 13.1663C29.9289 13.2563 29.8689 13.3763 29.8689 13.4964C29.8689 13.5564 29.8689 13.6164 29.9289 13.6464C29.9889 13.6764 30.109 13.6764 30.169 13.6764C30.319 13.6464 30.4991 13.5864 30.6491 13.5264C30.8892 13.4063 31.1592 13.2863 31.3993 13.1363C31.6994 12.9562 31.9994 12.7762 32.2695 12.5961C32.5996 12.3861 32.8997 12.146 33.2298 11.936C33.4398 11.7859 33.6799 11.6059 33.8899 11.4558C33.9199 11.4258 33.95 11.4258 33.95 11.3958C34.01 11.3658 34.04 11.3058 34.1 11.2758C34.25 11.1558 34.4001 11.0357 34.5801 10.9157C34.8502 10.7056 35.0902 10.4956 35.3603 10.2855C35.6004 10.1055 35.8404 9.89544 36.0805 9.68538C36.2305 9.53535 36.4106 9.41531 36.5606 9.26528C36.4406 9.17525 36.3506 9.02522 36.3506 8.84517C36.3506 8.60511 36.4706 8.39505 36.6206 8.24502C36.8007 8.06497 37.0107 7.94494 37.2208 7.85491C37.4909 7.76489 37.7609 7.70488 38.031 7.70488C38.181 7.70488 38.3311 7.73488 38.4811 7.7949C38.6011 7.85492 38.7212 7.94494 38.7512 8.06497V8.12498L38.6912 8.15499C38.5711 8.21501 38.4811 8.27502 38.3911 8.36505C38.3011 8.42506 38.211 8.51508 38.091 8.5751C38.001 8.66512 37.911 8.75515 37.851 8.84517C37.8209 8.87518 37.7909 8.93519 37.8209 8.99521C37.8509 9.11524 38.061 9.11524 38.151 9.11524C38.4811 9.11524 38.8112 9.14525 39.1413 9.14525C39.4114 9.17525 39.6814 9.20526 39.9215 9.29528C40.1315 9.38531 40.2816 9.53535 40.2816 9.7454V9.77541C40.2816 9.95545 40.1315 10.1655 40.0115 10.2855C39.8315 10.4956 39.5914 10.7056 39.3813 10.9157C39.1113 11.1558 38.8712 11.3958 38.6011 11.6659C38.3311 11.936 38.091 12.206 37.8209 12.5061C37.7309 12.6261 37.6409 12.7162 37.5509 12.8362C37.4909 12.9262 37.4308 13.0162 37.3708 13.1063C37.3108 13.1963 37.2508 13.3163 37.2508 13.4363C37.2508 13.4964 37.2508 13.5564 37.3108 13.5864C37.3708 13.6164 37.4909 13.6164 37.5509 13.6164C37.7009 13.5864 37.881 13.5264 38.031 13.4664C38.2711 13.3463 38.5411 13.2263 38.7812 13.0763C39.0813 12.8962 39.3813 12.7162 39.6514 12.5361C39.9815 12.3261 40.2816 12.086 40.6117 11.8759C40.8517 11.6959 41.0918 11.5159 41.3318 11.3358C41.4219 11.2458 41.5719 11.1558 41.6919 11.0957C41.782 11.0657 41.902 11.0057 41.962 11.0957C41.992 11.1258 41.992 11.1258 41.992 11.1558C42.022 11.2458 41.962 11.3358 41.902 11.3958C41.782 11.5159 41.6619 11.6059 41.5419 11.7259C41.2718 11.966 40.9718 12.176 40.7017 12.3861C40.3116 12.6862 39.8915 12.9562 39.5014 13.2263C39.2013 13.4063 38.9012 13.5864 38.6011 13.7664C38.2411 13.9765 37.851 14.1265 37.4609 14.2766C37.0708 14.4266 36.6506 14.4866 36.2605 14.5166C35.9605 14.5166 35.6004 14.4866 35.3603 14.2766C35.1503 14.1265 35.0302 13.9165 35.0602 13.6464C35.0902 13.3763 35.2103 13.1063 35.3603 12.8962C35.5404 12.6261 35.7804 12.3561 36.0205 12.116C36.2605 11.8759 36.5306 11.6359 36.8307 11.3958C37.0708 11.2158 37.3108 11.0357 37.5509 10.8557C37.7909 10.6756 38.031 10.4956 38.3011 10.3456C38.5111 10.1955 38.6912 10.0755 38.9012 9.92545C38.9612 9.86543 39.1413 9.7454 39.1713 9.68538C39.2013 9.62537 39.1713 9.59536 39.1113 9.56535C38.9612 9.53535 38.7512 9.53535 38.6011 9.53535C38.3311 9.53535 38.061 9.53535 37.7909 9.56535C37.6409 9.56535 37.4609 9.56535 37.3108 9.56535C37.1908 9.56535 37.1008 9.56535 36.9807 9.53535C36.8007 9.71539 36.6206 9.86543 36.4406 10.0155C36.1705 10.2555 35.9305 10.4656 35.6604 10.6756C35.3903 10.8857 35.1203 11.0957 34.8502 11.3058C34.6401 11.4558 34.4301 11.6359 34.22 11.7859C34.19 11.8159 34.19 11.8159 34.16 11.8159C33.8899 12.056 33.5899 12.266 33.3198 12.4761C32.9297 12.7762 32.5096 13.0462 32.1195 13.3163C31.8194 13.4964 31.5193 13.6764 31.2192 13.8565C30.8592 14.0665 30.4691 14.2165 30.079 14.3666C29.6889 14.5166 29.2688 14.5766 28.8787 14.6066C28.5786 14.6066 28.2185 14.5766 27.9784 14.3666C27.7684 14.2165 27.6483 14.0065 27.6783 13.7364C27.7084 13.4664 27.8284 13.1963 27.9784 12.9862C28.1585 12.7162 28.3985 12.4461 28.6386 12.206C28.8787 11.966 29.1487 11.7259 29.4488 11.4858C29.6889 11.3058 29.9289 11.1258 30.169 10.9457C30.409 10.7657 30.6491 10.5856 30.9192 10.4356C31.1292 10.2855 31.3093 10.1655 31.5193 10.0155C31.5793 9.95545 31.7594 9.83542 31.7894 9.77541C31.8194 9.71539 31.7894 9.68538 31.7294 9.65538C31.5793 9.62537 31.3693 9.62537 31.2192 9.62537C30.9492 9.62537 30.6791 9.62537 30.409 9.65538C30.259 9.65538 30.079 9.65538 29.9289 9.65538C29.8089 9.65538 29.7189 9.65538 29.5988 9.62537C29.4188 9.80541 29.2387 9.95545 29.0587 10.1055C28.7886 10.3456 28.5486 10.5556 28.2785 10.7657C28.0084 10.9757 27.7384 11.1858 27.4683 11.3958C27.2582 11.5759 27.0482 11.7259 26.8381 11.906C26.6581 12.056 26.478 12.176 26.298 12.3261C26.0579 12.5061 25.8179 12.6862 25.5778 12.8962C25.2477 12.9562 25.0077 13.1363 24.7376 13.3163ZM23.0872 4.88415C23.1172 4.88415 23.1772 4.85415 23.2072 4.85415C23.3272 4.82414 23.4173 4.79413 23.5373 4.73412C24.0474 4.55407 24.5275 4.34401 25.0077 4.10395C25.4578 3.8939 25.9079 3.65384 26.328 3.38377C26.6581 3.17372 27.0182 2.90365 27.2882 2.60357C27.4683 2.39352 27.6483 2.15345 27.7084 1.85338C27.7384 1.67333 27.6783 1.5533 27.5283 1.46328C27.3483 1.37325 27.1382 1.37325 26.9582 1.37325C26.6881 1.40326 26.418 1.52329 26.178 1.64332C25.8779 1.79336 25.6078 2.00342 25.3377 2.24348C25.0677 2.45353 24.8276 2.7236 24.6176 2.96366C24.3175 3.29375 24.0474 3.62383 23.7773 3.95391C23.5373 4.284 23.2972 4.58408 23.0872 4.88415ZM14.3849 8.54509C14.0248 8.69513 13.6648 8.84517 13.3047 8.99521C12.8846 9.14525 12.4644 9.32529 12.0443 9.50534C11.3542 9.80541 10.664 10.1055 10.0038 10.4356C9.25362 10.7957 8.50343 11.1858 7.78324 11.5759C8.14334 11.7259 8.50343 11.8159 8.86352 11.906C9.22361 11.966 9.61372 12.026 10.0038 12.026C10.5139 12.026 11.0241 11.936 11.5342 11.8159C12.0443 11.6959 12.5245 11.4858 12.9446 11.2458C13.3647 11.0057 13.7248 10.7357 14.0248 10.3456C14.2949 10.0155 14.445 9.62537 14.475 9.20526C14.475 8.9652 14.445 8.72514 14.3849 8.54509ZM14.9251 10.5256C14.565 10.9457 14.1149 11.3058 13.6347 11.5459C13.0946 11.8459 12.5245 12.056 11.9243 12.176C11.3242 12.3261 10.724 12.4161 10.0938 12.4161C9.61371 12.4161 9.1636 12.3861 8.68347 12.2961C8.20335 12.206 7.75324 12.056 7.33313 11.8459C6.97304 12.056 6.61294 12.266 6.28286 12.4761C5.92277 12.6862 5.56268 12.8962 5.20258 13.1363C4.99253 13.2563 4.81248 13.4063 4.60243 13.5264C4.42238 13.6464 4.27234 13.7664 4.0923 13.8865C4.54241 14.2165 5.05254 14.4566 5.62269 14.6367C6.25285 14.8167 6.91302 14.9367 7.57319 14.9667C8.23336 14.9967 8.89353 15.0268 9.5537 14.9667C10.754 14.8767 11.9543 14.5766 13.0346 14.0365C14.1449 13.4964 15.1351 12.7462 16.0054 11.8759C17.0256 10.8557 17.8958 9.68538 18.676 8.48508C18.9461 8.09498 19.1862 7.70488 19.4562 7.31478C19.6663 6.98469 19.9064 6.68462 20.1164 6.38454C19.3362 6.65461 18.526 6.95468 17.7458 7.25476C16.9056 7.55484 16.0654 7.91493 15.2552 8.24502C15.3152 8.36505 15.3452 8.51508 15.4052 8.63512C15.4352 8.81516 15.4652 8.9652 15.4652 9.14525C15.4352 9.65538 15.2552 10.1355 14.9251 10.5256ZM26.388 7.04471C26.388 6.83465 26.418 6.6246 26.508 6.41455C26.6281 6.17448 26.8381 5.99444 27.1082 5.90441C27.4083 5.81439 27.7084 5.78438 28.0384 5.78438H28.0684C28.2785 5.78438 28.4886 5.8444 28.6086 6.05445V6.08446C28.6686 6.29452 28.5186 6.53458 28.3685 6.68462C28.2185 6.86466 28.0084 7.0147 27.7984 7.13473C27.5883 7.25476 27.3783 7.34478 27.1382 7.43481C26.9882 7.49482 26.7781 7.55484 26.5981 7.55484H26.5681L26.5381 7.52483C26.448 7.4048 26.388 7.22475 26.388 7.04471ZM9.01356 6.29452C9.5537 6.2345 10.0638 6.2345 10.604 6.26451C11.1741 6.29452 11.7443 6.35453 12.2844 6.47456C12.8245 6.56458 13.3347 6.74463 13.8148 6.95468C14.2349 7.13473 14.595 7.4048 14.8951 7.73488C15.8253 7.4048 16.7555 7.04471 17.6858 6.71462C18.616 6.38454 19.5163 6.05445 20.4465 5.72437C21.0767 4.91416 21.7368 4.16397 22.457 3.44379C23.1172 2.81362 23.8374 2.24348 24.6176 1.76335C24.9776 1.5533 25.3678 1.37325 25.7879 1.22322C26.148 1.10318 26.508 1.01316 26.8981 0.983154C27.1082 0.983154 27.3183 0.983154 27.4983 1.01316C27.7084 1.04317 27.8584 1.13319 28.0084 1.28323C28.1585 1.43327 28.2185 1.64332 28.1885 1.85338C28.1285 2.30349 27.7984 2.69359 27.4983 2.99367C27.0182 3.44379 26.448 3.83388 25.8779 4.13396C25.1577 4.52406 24.4075 4.85415 23.6573 5.15422C23.5073 5.21424 23.3272 5.27425 23.1772 5.33427C23.0272 5.39428 22.8471 5.4543 22.6971 5.51432C22.367 6.02445 22.0669 6.53458 21.7668 7.07472C21.4667 7.55484 21.1967 8.06497 20.8966 8.54509C20.0564 9.95545 18.9761 11.2458 17.6858 12.2961C16.4855 13.2563 15.1651 13.9765 13.7248 14.4866C12.2544 14.9967 10.754 15.2668 9.22361 15.3868C8.53344 15.4469 7.87327 15.4169 7.18309 15.3868C6.49291 15.3568 5.80274 15.2668 5.11256 15.1168C4.4824 14.9667 3.88225 14.7567 3.3121 14.4566C2.71195 14.9067 2.1418 15.4169 1.57165 15.927C1.33159 16.137 1.12154 16.3771 0.911484 16.6172C0.761445 16.8272 0.611407 17.0373 0.461368 17.2473C0.43136 17.3373 0.371345 17.3974 0.31133 17.4874C0.251314 17.5474 0.1913 17.6074 0.101277 17.5774C0.0112537 17.5174 -0.018755 17.4274 0.0112527 17.3373C0.0112527 17.2773 0.0412595 17.1873 0.0712672 17.1273C0.281321 16.5872 0.671422 16.077 1.06152 15.6269C1.57165 15.0568 2.11179 14.5466 2.71195 14.0665C2.47188 13.8865 2.26183 13.6464 2.05178 13.4063C1.84172 13.1063 1.66167 12.7762 1.54164 12.4161C1.42161 12.026 1.3616 11.6059 1.3916 11.2158C1.45162 10.6156 1.66167 10.0455 2.02177 9.53535C2.41187 9.02522 2.86198 8.5751 3.40212 8.21501C3.97227 7.82491 4.57242 7.49482 5.23259 7.25476C5.86275 6.98469 6.52292 6.77464 7.18309 6.6246C7.81325 6.44455 8.41341 6.35453 9.01356 6.29452ZM7.12308 11.1558C7.90328 10.7657 8.68347 10.3756 9.49368 10.0155C10.3039 9.65538 11.1141 9.29528 11.9243 8.99521C12.7045 8.69513 13.4547 8.39505 14.2349 8.09498C14.0248 7.7949 13.7248 7.55484 13.3647 7.37479C12.9446 7.16474 12.4945 7.0147 12.0143 6.89467C11.5042 6.80465 10.9941 6.71462 10.4839 6.71462C10.0038 6.68461 9.52369 6.71462 9.04357 6.74463C8.50343 6.77464 7.96329 6.86466 7.45316 6.98469C6.91302 7.13473 6.37288 7.31478 5.83274 7.52483C5.32261 7.76489 4.84249 8.03496 4.39237 8.39505C3.97227 8.72514 3.61217 9.11524 3.3421 9.56535C3.07203 10.0155 2.89199 10.5256 2.86198 11.0657C2.83198 11.5159 2.89199 11.996 3.04203 12.4461C3.16206 12.8062 3.34211 13.1063 3.61218 13.3763C3.76221 13.2563 3.91225 13.1363 4.0923 13.0162C4.30235 12.8662 4.4824 12.7462 4.69245 12.5961C5.02253 12.3861 5.35262 12.176 5.68271 11.996C6.01279 11.7859 6.34288 11.6059 6.70297 11.4258C6.52292 11.3058 6.40289 11.1258 6.28286 10.9457C6.13282 10.7357 6.0428 10.5256 6.01279 10.2855C5.98278 10.1955 5.98278 10.1355 6.01279 10.0455C6.0428 9.95545 6.10281 9.89544 6.19284 9.89544C6.28286 9.89544 6.31287 9.95545 6.34287 10.0155C6.34287 10.0755 6.37288 10.1355 6.37288 10.1655C6.4329 10.3756 6.55293 10.5556 6.70297 10.7056C6.79299 10.8857 6.94303 11.0357 7.12308 11.1558Z" fill="#7F392C"/>
</svg>
