<svg width="166" height="65" viewBox="0 0 166 65" fill="none" xmlns="http://www.w3.org/2000/svg">
<g clip-path="url(#clip0_626_150)">
<path fill-rule="evenodd" clip-rule="evenodd" d="M110.07 55.5724H107.433V56.9723H109.842C110.005 56.9723 110.168 57.0049 110.233 57.1025C110.33 57.1676 110.363 57.2979 110.363 57.4281C110.363 57.5583 110.33 57.656 110.233 57.7536C110.135 57.8513 110.005 57.8839 109.842 57.8839H107.433V59.5116H110.135C110.33 59.5116 110.461 59.5442 110.558 59.6418C110.656 59.7395 110.688 59.8372 110.688 59.9674C110.688 60.0976 110.656 60.2278 110.558 60.2929C110.461 60.3906 110.33 60.4232 110.135 60.4232H106.977C106.717 60.4232 106.554 60.3581 106.424 60.2604C106.326 60.1627 106.261 59.9674 106.261 59.707V55.3771C106.261 55.2143 106.293 55.0841 106.326 54.9539C106.391 54.8562 106.456 54.7585 106.554 54.726C106.652 54.6934 106.782 54.6609 106.945 54.6609H110.037C110.233 54.6609 110.363 54.6934 110.461 54.7911C110.558 54.8888 110.591 54.9864 110.591 55.1166C110.591 55.2469 110.558 55.3771 110.461 55.4422C110.395 55.5399 110.265 55.5724 110.07 55.5724ZM105.154 58.6977C105.154 59.0558 105.056 59.3488 104.894 59.6418C104.731 59.9348 104.438 60.1302 104.112 60.2929C103.754 60.4557 103.364 60.5208 102.875 60.5208C102.322 60.5208 101.833 60.4232 101.475 60.1953C101.215 60.0325 100.987 59.8372 100.824 59.5767C100.661 59.3163 100.564 59.0558 100.564 58.828C100.564 58.6977 100.629 58.5675 100.727 58.4699C100.824 58.3722 100.954 58.3071 101.117 58.3071C101.247 58.3071 101.345 58.3396 101.443 58.4373C101.54 58.5024 101.606 58.6326 101.671 58.7954C101.736 58.9907 101.833 59.121 101.899 59.2512C101.996 59.3814 102.094 59.4791 102.257 59.5442C102.419 59.6093 102.615 59.6744 102.875 59.6744C103.233 59.6744 103.494 59.6093 103.722 59.4465C103.95 59.2837 104.047 59.0884 104.047 58.828C104.047 58.6326 103.982 58.4698 103.884 58.3722C103.754 58.242 103.624 58.1768 103.429 58.1117C103.233 58.0466 103.005 57.9815 102.68 57.9164C102.257 57.8187 101.931 57.7211 101.638 57.5908C101.345 57.4606 101.15 57.2979 100.987 57.07C100.824 56.8421 100.727 56.5816 100.727 56.2235C100.727 55.898 100.824 55.6375 100.987 55.3771C101.15 55.1166 101.41 54.9539 101.736 54.8236C102.061 54.6934 102.452 54.6283 102.875 54.6283C103.233 54.6283 103.526 54.6609 103.787 54.7585C104.047 54.8562 104.243 54.9539 104.438 55.1166C104.601 55.2469 104.731 55.4096 104.796 55.5724C104.861 55.7352 104.926 55.898 104.926 56.0282C104.926 56.1584 104.861 56.2886 104.763 56.3863C104.666 56.484 104.536 56.5491 104.405 56.5491C104.275 56.5491 104.177 56.5165 104.112 56.4514C104.047 56.3863 103.982 56.2886 103.884 56.1259C103.787 55.898 103.657 55.7352 103.494 55.605C103.364 55.4748 103.103 55.4096 102.778 55.4096C102.485 55.4096 102.224 55.4748 102.061 55.605C101.866 55.7352 101.768 55.898 101.768 56.0933C101.768 56.2235 101.801 56.3212 101.866 56.3863C101.931 56.484 102.029 56.5491 102.126 56.6142C102.224 56.6793 102.354 56.7119 102.452 56.7444C102.55 56.777 102.745 56.8421 103.005 56.9072C103.331 56.9723 103.624 57.07 103.884 57.1676C104.145 57.2653 104.373 57.363 104.568 57.4932C104.763 57.6234 104.894 57.7862 104.991 57.9815C105.089 58.1443 105.154 58.4047 105.154 58.6977ZM94.6061 58.0466V55.2794C94.6061 55.0515 94.6712 54.8562 94.7689 54.7585C94.8665 54.6283 95.0293 54.5958 95.1921 54.5958C95.3874 54.5958 95.5177 54.6609 95.6153 54.7585C95.713 54.8888 95.7781 55.0515 95.7781 55.2794V58.1117C95.7781 58.4373 95.8107 58.6977 95.8758 58.9256C95.9409 59.1535 96.0711 59.3163 96.2664 59.414C96.4618 59.5442 96.6897 59.5767 97.0478 59.5767C97.5035 59.5767 97.8291 59.4465 98.0244 59.2186C98.2198 58.9907 98.3174 58.6001 98.3174 58.1117V55.2469C98.3174 55.019 98.3825 54.8236 98.4802 54.726C98.5779 54.5958 98.7406 54.5632 98.9034 54.5632C99.0662 54.5632 99.229 54.6283 99.3266 54.726C99.4243 54.8562 99.4894 55.019 99.4894 55.2469V58.0141C99.4894 58.4698 99.4569 58.828 99.3592 59.1535C99.2615 59.4465 99.0988 59.707 98.8709 59.9348C98.6755 60.1302 98.4151 60.2604 98.1546 60.3581C97.8616 60.4557 97.5686 60.4883 97.178 60.4883C96.7222 60.4883 96.3641 60.4557 96.0385 60.3581C95.713 60.2604 95.4525 60.1302 95.2572 59.9023C95.0619 59.707 94.8991 59.4465 94.8014 59.121C94.6712 58.8605 94.6061 58.4698 94.6061 58.0466ZM92.5226 57.5257C92.5226 57.1025 92.4575 56.7444 92.3272 56.4189C92.197 56.1259 92.0017 55.8654 91.7412 55.7026C91.4808 55.5399 91.1878 55.4747 90.8622 55.4747C90.6343 55.4747 90.4065 55.5073 90.2111 55.605C90.0158 55.7026 89.853 55.8329 89.6902 55.9956C89.56 56.1584 89.4298 56.3863 89.3647 56.6467C89.267 56.9072 89.2345 57.2002 89.2345 57.5257C89.2345 57.8513 89.267 58.1443 89.3647 58.4047C89.4623 58.6652 89.56 58.8931 89.7228 59.0558C89.8856 59.2186 90.0484 59.3488 90.2437 59.4465C90.439 59.5442 90.6669 59.5767 90.8948 59.5767C91.1878 59.5767 91.4808 59.5116 91.7087 59.3488C91.9691 59.1861 92.1645 58.9582 92.2947 58.6652C92.4249 58.3722 92.5226 57.9815 92.5226 57.5257ZM90.8622 54.5632C91.4482 54.5632 91.9691 54.6934 92.3923 54.9213C92.8156 55.1492 93.1411 55.5073 93.369 55.9631C93.5969 56.4189 93.6945 56.9397 93.6945 57.5257C93.6945 57.9815 93.6294 58.3722 93.4992 58.7303C93.369 59.0884 93.2062 59.414 92.9458 59.6744C92.7179 59.9348 92.4249 60.1302 92.0668 60.2929C91.7087 60.4232 91.318 60.4883 90.8622 60.4883C90.4065 60.4883 90.0158 60.4232 89.6577 60.2604C89.2996 60.1302 89.0066 59.9023 88.7787 59.6418C88.5508 59.3814 88.3555 59.0558 88.2252 58.6977C88.095 58.3396 88.0299 57.9164 88.0299 57.4932C88.0299 57.0374 88.095 56.6467 88.2252 56.2886C88.3555 55.9305 88.5508 55.605 88.7787 55.3445C89.0066 55.0841 89.2996 54.8888 89.6577 54.7585C90.0158 54.6283 90.4065 54.5632 90.8622 54.5632ZM83.3094 55.2794V56.9397H85.8161V55.2794C85.8161 55.0515 85.8813 54.8562 85.9789 54.7585C86.0766 54.6283 86.2394 54.5958 86.4021 54.5958C86.5649 54.5958 86.7277 54.6609 86.8254 54.7585C86.923 54.8888 86.9881 55.0515 86.9881 55.2794V59.8046C86.9881 60.0325 86.923 60.2278 86.8254 60.3255C86.7277 60.4557 86.5649 60.4883 86.4021 60.4883C86.2394 60.4883 86.0766 60.4232 85.9789 60.3255C85.8813 60.1953 85.8161 60.0325 85.8161 59.8046V57.8839H83.3094V59.8046C83.3094 60.0325 83.2443 60.2278 83.1466 60.3255C83.0489 60.4557 82.8862 60.4883 82.7234 60.4883C82.5606 60.4883 82.3978 60.4232 82.3002 60.3255C82.2025 60.1953 82.1374 60.0325 82.1374 59.8046V55.2794C82.1374 55.0515 82.2025 54.8562 82.3002 54.7585C82.3978 54.6283 82.5281 54.5958 82.7234 54.5958C82.8862 54.5958 83.0489 54.6609 83.1466 54.7585C83.2443 54.8562 83.3094 55.0515 83.3094 55.2794ZM76.1797 55.5724H73.5428V56.9723H75.9519C76.1146 56.9723 76.2774 57.0049 76.3425 57.1025C76.4402 57.1676 76.4727 57.2979 76.4727 57.4281C76.4727 57.5583 76.4402 57.656 76.3425 57.7536C76.2449 57.8513 76.1146 57.8839 75.9519 57.8839H73.5428V59.5116H76.2449C76.4402 59.5116 76.5704 59.5442 76.6681 59.6418C76.7657 59.7395 76.7983 59.8372 76.7983 59.9674C76.7983 60.0976 76.7657 60.2278 76.6681 60.2929C76.5704 60.3906 76.4402 60.4232 76.2449 60.4232H73.087C72.8265 60.4232 72.6638 60.3581 72.5335 60.2604C72.4359 60.1627 72.3708 59.9674 72.3708 59.707V55.3771C72.3708 55.2143 72.4033 55.0841 72.4359 54.9539C72.501 54.8562 72.5661 54.7585 72.6638 54.726C72.7614 54.6934 72.8916 54.6609 73.0544 54.6609H76.1472C76.3425 54.6609 76.4727 54.6934 76.5704 54.7911C76.6681 54.8888 76.7006 54.9864 76.7006 55.1166C76.7006 55.2469 76.6681 55.3771 76.5704 55.4422C76.5053 55.5399 76.3425 55.5724 76.1797 55.5724ZM68.1711 55.2794V57.2979L70.45 54.9213C70.5477 54.7911 70.6453 54.726 70.743 54.6609C70.8081 54.5958 70.9383 54.5632 71.036 54.5632C71.1988 54.5632 71.329 54.6283 71.4592 54.726C71.5569 54.8236 71.622 54.9539 71.622 55.0841C71.622 55.2469 71.5243 55.4096 71.3615 55.605L69.9617 56.9397L71.5894 59.2837C71.7197 59.4465 71.7848 59.5767 71.8499 59.707C71.915 59.8372 71.9475 59.9348 71.9475 60.0651C71.9475 60.1953 71.8824 60.293 71.7848 60.3906C71.6871 60.4883 71.5569 60.5208 71.3615 60.5208C71.1988 60.5208 71.0685 60.4883 70.9709 60.4232C70.8732 60.3581 70.7756 60.2604 70.7104 60.1627C70.6453 60.0325 70.5802 59.9348 70.5151 59.8372L69.1478 57.7211L68.2037 58.6326V59.8372C68.2037 60.0651 68.1386 60.2604 68.0409 60.3581C67.9432 60.4883 67.7805 60.5208 67.6177 60.5208C67.52 60.5208 67.4223 60.4883 67.3247 60.4557C67.227 60.3906 67.1619 60.3255 67.0968 60.2278C67.0642 60.1627 67.0317 60.0651 67.0317 59.9674C67.0317 59.8697 67.0317 59.7395 67.0317 59.5442V55.2794C67.0317 55.0515 67.0968 54.8562 67.1945 54.7585C67.2921 54.6283 67.4223 54.5958 67.6177 54.5958C67.7805 54.5958 67.9432 54.6609 68.0409 54.7585C68.1386 54.8562 68.1711 55.0515 68.1711 55.2794ZM63.0599 58.1768H64.7854L63.9064 55.8003L63.0599 58.1768ZM65.3714 59.7721L65.1109 59.0558H62.7669L62.5065 59.8046C62.4088 60.0976 62.3111 60.293 62.246 60.3906C62.1809 60.4883 62.0507 60.5534 61.8879 60.5534C61.7577 60.5534 61.6275 60.4883 61.4973 60.3906C61.3996 60.293 61.3345 60.1627 61.3345 60.0325C61.3345 59.9674 61.3345 59.8697 61.367 59.8046C61.3996 59.707 61.4321 59.6093 61.4973 59.4465L62.9622 55.7026C62.9948 55.605 63.0599 55.4747 63.125 55.312C63.1901 55.1492 63.2552 55.0515 63.3204 54.9213C63.3855 54.8236 63.4831 54.726 63.5808 54.6934C63.6785 54.6283 63.8087 54.5958 63.9715 54.5958C64.1342 54.5958 64.2645 54.6283 64.3621 54.6934C64.4598 54.7585 64.5575 54.8236 64.6226 54.9213C64.6877 55.019 64.7528 55.1166 64.7854 55.2469C64.8179 55.3445 64.883 55.5073 64.9481 55.7026L66.4457 59.414C66.5759 59.707 66.6085 59.9023 66.6085 60.0325C66.6085 60.1627 66.5433 60.293 66.4457 60.3906C66.348 60.4883 66.1852 60.5534 66.055 60.5534C65.9573 60.5534 65.8922 60.5534 65.8271 60.4883C65.762 60.4557 65.6969 60.4232 65.6644 60.3581C65.6318 60.2929 65.5667 60.2278 65.5341 60.0976C65.469 59.9674 65.4039 59.8697 65.3714 59.7721ZM60.781 58.6001C60.781 58.7954 60.7485 58.9907 60.6508 59.1861C60.5532 59.414 60.4229 59.6093 60.2276 59.8046C60.0323 60 59.7718 60.1627 59.4788 60.2929C59.1858 60.4232 58.8277 60.4883 58.437 60.4883C58.1441 60.4883 57.8511 60.4557 57.6232 60.3906C57.3627 60.3255 57.1348 60.2278 56.9395 60.1302C56.7442 60 56.5488 59.8372 56.3861 59.6418C56.2233 59.4465 56.0931 59.2512 55.9954 59.0233C55.8977 58.7954 55.8001 58.5675 55.7675 58.3071C55.7024 58.0466 55.7024 57.7862 55.7024 57.4932C55.7024 57.0374 55.7675 56.6142 55.8977 56.2561C56.028 55.898 56.2233 55.5724 56.4837 55.312C56.7442 55.0515 57.0372 54.8562 57.3627 54.726C57.6883 54.5958 58.0464 54.5306 58.437 54.5306C58.8928 54.5306 59.3161 54.6283 59.6742 54.8236C60.0323 55.019 60.3253 55.2469 60.5206 55.5073C60.7159 55.7677 60.8136 56.0282 60.8136 56.2886C60.8136 56.4189 60.781 56.5491 60.6834 56.6467C60.5857 56.7444 60.488 56.8095 60.3578 56.8095C60.195 56.8095 60.0974 56.777 60.0323 56.7119C59.9672 56.6467 59.8695 56.5165 59.7718 56.3537C59.609 56.0608 59.4463 55.8654 59.2509 55.7026C59.0556 55.5724 58.7952 55.4747 58.5022 55.4747C58.0138 55.4747 57.6557 55.6701 57.3627 56.0282C57.0697 56.3863 56.9395 56.9072 56.9395 57.5908C56.9395 58.0466 57.0046 58.4047 57.1348 58.6977C57.2651 58.9907 57.4278 59.2186 57.6557 59.3488C57.8836 59.4791 58.1441 59.5767 58.4696 59.5767C58.7952 59.5767 59.0882 59.4791 59.316 59.3163C59.5439 59.1535 59.7067 58.8931 59.8369 58.5675C59.902 58.4047 59.9346 58.3071 60.0323 58.2094C60.0974 58.1117 60.2276 58.0792 60.3904 58.0792C60.5206 58.0792 60.6508 58.1117 60.7485 58.2094C60.7485 58.3396 60.781 58.4698 60.781 58.6001ZM112.837 56.9072H150.178V58.1443H112.837V56.9072ZM15.822 50.917H150.178V64.167H15.822V58.1768H53.1631V56.9397H15.822V50.917Z" fill="#7F392C"/>
<path fill-rule="evenodd" clip-rule="evenodd" d="M85.6208 0.0977457C85.6208 0.0977457 86.6301 0.618632 86.7603 3.58117C86.9231 6.54372 88.7787 7.42271 93.9225 6.34838C99.0662 5.27406 103.168 8.92026 105.74 11.0689C108.312 13.2176 113.814 18.7845 114.139 19.0775C114.465 19.4031 114.79 19.8589 114.79 19.8589L116.028 18.5567C116.028 18.5567 111.73 14.5523 111.307 13.9663C110.884 13.3478 111.242 12.7292 112.056 13.5431C112.837 14.3896 114.27 15.8871 114.27 15.8871L115.409 14.6175C115.409 14.6175 106.977 7.48782 106.001 6.70649C104.991 5.92516 100.238 2.79984 95.1921 2.63707C94.4434 2.60451 93.3365 2.66962 92.5226 2.86496C90.7972 3.25562 89.4298 3.90673 88.8764 3.25562C88.3555 2.66962 88.6485 1.98596 89.0066 1.66041C89.4298 1.23718 89.8856 1.53018 89.9507 1.75807C89.9833 1.85574 89.9833 1.92085 89.7554 1.9534C89.2671 1.98596 88.7787 3.09284 89.6577 3.22306C90.146 3.28818 90.5042 2.93007 90.6669 2.47429C91.0576 1.26974 90.2763 0.683743 89.4624 0.586077C88.7136 0.488411 87.9323 0.976742 87.9323 1.79063C87.9323 1.79063 87.7044 0.813965 86.8254 0.325634C85.9139 -0.195253 85.6208 0.0977457 85.6208 0.0977457Z" fill="#7F392C"/>
<path fill-rule="evenodd" clip-rule="evenodd" d="M85.6208 40.1081C85.6208 40.1081 86.6301 39.5872 86.7603 36.6247C86.9231 33.6622 88.7787 32.7832 93.9225 33.8575C99.0662 34.9318 103.168 31.2856 105.74 29.1369C108.312 26.9883 111.958 21.6818 112.284 21.3888C112.609 21.0632 112.935 20.6074 112.935 20.6074L114.172 21.9096C114.172 21.9096 112.381 24.2862 111.958 24.9047C111.535 25.5233 111.893 26.1419 112.707 25.328C113.488 24.4815 117.558 20.5098 117.558 20.5098L118.697 21.7794C118.697 21.7794 107.01 32.7506 106.001 33.4994C104.991 34.2807 100.238 37.406 95.1921 37.5688C94.4434 37.6014 93.3365 37.5362 92.5226 37.3409C90.8297 36.9502 89.4949 36.2991 88.9089 36.9177C88.3881 37.5037 88.6811 38.1874 89.0392 38.5129C89.4624 38.9361 89.9182 38.6431 89.9833 38.4152C90.0158 38.3176 90.0158 38.2525 89.7879 38.2199C89.2996 38.1874 88.8113 37.0805 89.6903 36.9502C90.1786 36.8851 90.5367 37.2432 90.6995 37.699C91.0902 38.9036 90.3088 39.4896 89.4949 39.5872C88.7462 39.6849 87.9648 39.1966 87.9648 38.3827C87.9648 38.3827 87.7369 39.3593 86.858 39.8477C85.9138 40.4011 85.6208 40.1081 85.6208 40.1081Z" fill="#7F392C"/>
<path fill-rule="evenodd" clip-rule="evenodd" d="M120.911 7.58527C120.911 7.58527 120.195 7.06438 119.544 7.65038C118.892 8.23638 118.567 8.49682 117.916 8.26893C117.265 8.04105 116.679 7.52016 116.744 7.55272C116.809 7.58527 116.972 8.56193 116.744 9.34326C116.516 10.1246 114.986 10.7431 114.204 9.63626C113.423 8.52938 113.456 7.52016 114.27 7.84571C115.051 8.17127 115.311 8.62704 115.311 8.62704C115.311 8.62704 115.604 6.8365 114.497 6.73883C113.391 6.64116 112.805 8.00849 113 8.92004C113.195 9.86415 114.139 11.2966 115.995 11.0361C117.851 10.7431 117.72 10.385 118.795 10.385C119.869 10.385 120.781 11.4268 120.781 11.4268C120.781 11.4268 118.892 11.0361 117.688 11.6221C116.483 12.2081 114.042 12.2081 112.707 10.5804C111.372 8.9526 111.893 7.45505 111.34 6.8365C110.688 6.08772 109.321 6.18539 110.102 7.38994C110.298 7.68294 110.558 7.7806 110.526 7.7806C110.461 7.7806 109.549 8.33405 108.93 6.99927C108.312 5.6645 108.898 4.85062 110.265 5.17617C111.633 5.50173 112.153 7.74805 112.153 7.74805C112.153 7.74805 112.284 5.89239 114.139 5.69706C115.995 5.50173 116.679 7.42249 118.404 6.41328C119.348 5.89239 119.967 6.2505 120.227 6.47839C120.488 6.70628 120.911 7.58527 120.911 7.58527Z" fill="#7F392C"/>
<path fill-rule="evenodd" clip-rule="evenodd" d="M122.832 30.7651C122.832 30.7651 122.115 31.2859 121.464 30.6999C120.813 30.1139 120.488 29.8535 119.836 30.0814C119.185 30.3093 118.599 30.8302 118.664 30.7976C118.73 30.7651 118.892 29.7884 118.664 29.0071C118.437 28.2257 116.906 27.6072 116.125 28.7141C115.344 29.8209 115.376 30.8302 116.19 30.5046C116.972 30.1791 117.232 29.7233 117.232 29.7233C117.232 29.7233 117.525 31.5138 116.418 31.6115C115.311 31.7092 114.725 30.3418 114.921 29.4303C115.116 28.4862 116.06 27.0537 117.916 27.3142C119.771 27.6072 119.641 27.9653 120.715 27.9653C121.79 27.9653 122.701 26.9235 122.701 26.9235C122.701 26.9235 120.813 27.3142 119.609 26.7282C118.404 26.1422 115.962 26.1422 114.628 27.77C113.293 29.3977 113.814 30.8953 113.26 31.5138C112.609 32.2626 111.242 32.1649 112.023 30.9604C112.218 30.6674 112.479 30.5697 112.446 30.5697C112.381 30.5697 111.47 30.0163 110.851 31.3511C110.233 32.6858 110.819 33.4997 112.186 33.1742C113.553 32.8486 114.074 30.6023 114.074 30.6023C114.074 30.6023 114.204 32.4579 116.06 32.6533C117.916 32.8486 118.599 30.9278 120.325 31.9371C121.269 32.4579 121.887 32.0998 122.148 31.8719C122.408 31.6441 122.832 30.7651 122.832 30.7651Z" fill="#7F392C"/>
<path fill-rule="evenodd" clip-rule="evenodd" d="M159.066 18.3938L160.433 20.1843L159.326 21.9749L157.959 20.1843L159.066 18.3938ZM97.6339 39.978L97.5037 38.7409C97.5037 38.7409 101.801 38.7409 103.689 37.5038C105.577 36.2667 105.903 35.8435 105.903 35.8435L121.041 36.0714C121.041 36.0714 122.897 36.5272 123.776 34.7692C124.655 33.0112 126.25 31.7741 127.422 32.8158C128.562 33.8251 128.203 35.7458 127.585 36.3318C126.966 36.9178 125.697 36.4946 125.599 35.5831C125.404 34.053 126.836 34.0529 126.673 35.5505C126.673 35.5505 127.39 34.9319 127.031 34.2808C126.673 33.6297 125.013 33.3367 124.915 35.1598C124.85 36.9829 126.315 37.4713 127.357 37.1783C128.399 36.8853 128.464 35.7784 128.464 35.7784C128.464 35.7784 130.678 37.8619 133.543 35.8435C136.407 33.8251 136.928 32.3275 137.384 30.83C137.84 29.3324 137.514 28.486 137.514 28.486C140.77 31.0579 144.611 25.6862 146.402 23.7654C147.834 22.2353 149.202 21.1936 149.82 20.8029C150.439 20.4122 150.699 20.2495 150.797 20.1843C150.699 20.1192 150.406 19.9565 149.723 19.5658C149.039 19.1751 147.541 18.1334 145.914 16.6033C143.863 14.6825 139.272 9.31084 136.375 11.8827C136.375 11.8827 136.57 11.0037 135.919 9.53873C135.268 8.04118 134.552 6.54363 131.394 4.5252C128.236 2.50676 126.315 4.59031 126.315 4.59031C126.315 4.59031 126.12 3.48342 125.013 3.19042C123.939 2.89743 122.506 3.38576 122.832 5.20886C123.157 7.03196 124.785 6.73896 125.046 6.08786C125.306 5.43675 124.525 4.81819 124.525 4.81819C124.915 6.31574 123.45 6.3483 123.45 4.78564C123.45 3.90664 124.622 3.48342 125.339 4.03686C126.055 4.62286 126.706 6.51108 125.697 7.55285C124.687 8.56207 122.929 7.35752 121.79 5.59952C120.683 3.84153 118.893 4.29731 118.893 4.29731L103.787 4.5252C103.787 4.5252 103.429 4.10198 101.345 2.86487C99.1966 1.62776 94.8993 1.62776 94.8993 1.62776L94.8667 0.390659L105.252 0.45577C105.252 0.45577 105.252 0.45577 113.554 0.325549C116.646 0.292993 118.697 0.0651053 119.999 0.585992C121.757 1.30221 122.669 2.27887 122.669 2.27887C122.669 2.27887 123.092 1.98587 124.101 1.26966C124.915 0.683658 126.511 -0.130227 129.636 0.520881C136.57 1.92076 138.003 8.33418 138.003 8.33418C138.003 8.33418 139.403 7.91096 140.965 8.7574C145.653 11.2967 148.127 16.2451 153.076 18.2636C153.076 18.2636 155.355 18.4915 155.355 17.645C155.322 16.7986 153.922 17.059 153.922 17.059C153.922 17.059 153.499 15.9521 155.159 15.301C156.82 14.6499 157.048 16.8637 157.048 16.8637C157.048 16.8637 157.438 16.8311 157.341 15.7894C157.243 14.7476 157.08 13.4454 159.326 13.6733C161.573 13.9012 160.987 17.645 160.791 18.0357C160.596 18.4264 160.791 18.4915 161.508 17.9706C162.224 17.4822 163.884 16.18 165.089 17.1241C166.098 17.938 166.423 22.4307 165.512 23.2771C164.438 24.2212 162.582 22.9516 161.801 22.4307C161.019 21.9423 160.824 22.0074 161.084 22.3656C161.345 22.7562 162.452 26.5001 160.238 26.728C158.024 26.9559 157.992 25.6211 157.959 24.6119C157.927 23.5701 157.536 23.5376 157.536 23.5376C157.536 23.5376 157.601 25.7513 155.843 25.1002C154.085 24.4491 154.345 23.3422 154.345 23.3422C154.345 23.3422 155.778 23.6027 155.713 22.7562C155.615 21.9098 153.369 22.1377 153.369 22.1377C148.713 24.1561 146.923 29.1045 142.593 31.6438C141.16 32.4903 139.695 32.0671 139.695 32.0671C139.695 32.0671 139.142 38.4479 132.403 39.8804C129.375 40.5315 127.65 39.7176 126.771 39.1316C125.664 38.4154 125.208 38.1224 125.208 38.1224C125.208 38.1224 124.427 39.099 122.799 39.7827C121.562 40.3036 119.479 40.1083 116.386 40.0431C108.052 39.9129 108.052 39.9129 108.052 39.9129L97.6339 39.978Z" fill="#7F392C"/>
<path fill-rule="evenodd" clip-rule="evenodd" d="M115.604 17.3848L117.037 18.6544C117.037 18.6544 119.153 16.4081 121.106 15.6919C123.027 15.0082 124.004 14.8455 124.004 14.8455L124.492 12.4038C124.492 12.4038 122.409 12.4364 119.479 14.0641C116.549 15.7245 115.604 17.3848 115.604 17.3848Z" fill="#7F392C"/>
<path fill-rule="evenodd" clip-rule="evenodd" d="M119.381 17.645L117.851 18.9472C117.851 18.9472 118.795 19.9565 120.976 20.9006C123.157 21.8447 124.655 21.9098 124.655 21.9098L124.297 19.5658C124.297 19.5658 122.864 19.6309 121.562 18.9798C119.674 18.0682 119.381 17.645 119.381 17.645Z" fill="#7F392C"/>
<path fill-rule="evenodd" clip-rule="evenodd" d="M120.455 17.6775L122.864 18.9797C122.864 18.9797 123.743 18.3937 125.436 18.4914C127.129 18.5891 127.682 18.9472 127.682 18.9472L129.538 17.5799C129.538 17.5799 127.813 16.5055 125.143 16.5055C122.506 16.473 120.455 17.6775 120.455 17.6775Z" fill="#7F392C"/>
<path fill-rule="evenodd" clip-rule="evenodd" d="M124.59 15.7571L126.51 15.9199C126.51 15.9199 126.771 10.8738 129.538 9.99484C132.305 9.11585 132.37 12.6318 132.37 13.5434C132.37 14.4549 132.305 14.7805 132.305 14.7805L133.673 15.9199C133.673 15.9199 134.877 10.9389 132.663 8.72518C130.678 6.7393 128.041 7.6183 126.445 9.57162C125.338 10.9064 124.948 12.8597 124.72 14.3898C124.655 15.1386 124.557 15.7571 124.59 15.7571Z" fill="#7F392C"/>
<path fill-rule="evenodd" clip-rule="evenodd" d="M134.845 17.6126L134.128 18.5893C134.128 18.5893 131.947 16.5383 129.831 15.6267C127.715 14.7152 127.389 14.7803 127.389 14.7803L127.91 12.8921C127.91 12.8921 128.594 13.0874 131.133 14.5199C133.64 15.9849 134.845 17.6126 134.845 17.6126Z" fill="#7F392C"/>
<path fill-rule="evenodd" clip-rule="evenodd" d="M131.003 17.0591L132.501 18.1334C132.501 18.1334 131.719 19.4682 129.929 20.5751C128.138 21.6819 127.845 21.6494 127.845 21.6494L127.227 19.4682C127.227 19.4682 128.399 19.2403 129.505 18.459C130.645 17.7102 131.003 17.0591 131.003 17.0591Z" fill="#7F392C"/>
<path fill-rule="evenodd" clip-rule="evenodd" d="M124.85 19.3052L126.608 19.2075C126.608 19.2075 127.064 21.5515 127.389 22.3328C127.715 23.1142 127.715 23.1142 127.715 23.1142L125.631 23.0816C125.631 23.0816 125.208 21.8771 125.045 20.8027C124.882 19.7284 124.85 19.3052 124.85 19.3052Z" fill="#7F392C"/>
<path fill-rule="evenodd" clip-rule="evenodd" d="M119.706 21.5518L118.209 22.7889C118.209 22.7889 121.464 25.491 125.045 25.8816C126.185 26.0118 127.552 25.9793 128.626 25.6863C130.905 25.1003 132.533 23.5051 132.533 23.5051L131.491 21.9424C131.491 21.9424 130.189 23.6353 126.803 23.7981C123.418 24.026 119.706 21.5518 119.706 21.5518Z" fill="#7F392C"/>
<path fill-rule="evenodd" clip-rule="evenodd" d="M131.263 20.9332L132.566 19.7612C136.114 23.0493 137.807 32.6857 132.012 31.4486C128.985 30.7975 126.771 26.6955 126.771 26.6955L129.05 26.4676C129.05 26.4676 130.515 28.9419 132.305 29.2349C134.096 29.5279 134.324 27.1513 133.9 25.2305C133.51 23.2772 131.263 20.9332 131.263 20.9332Z" fill="#7F392C"/>
<path fill-rule="evenodd" clip-rule="evenodd" d="M133.607 20.1517L134.584 21.6167C134.584 21.6167 137.221 18.1333 138.816 17.9705C140.412 17.8077 141.844 19.0774 141.844 19.0774C141.844 19.0774 141.128 20.3796 139.663 20.3796C138.198 20.4121 137.547 19.6308 137.351 19.468L136.407 20.5424C136.407 20.5424 139.012 21.8446 139.37 22.9515C139.728 24.0583 139.565 24.9048 138.784 24.7094C138.002 24.5141 137.709 23.9932 138.133 23.7979C138.588 23.6026 138.947 23.8305 138.947 23.8305C138.947 23.8305 138.751 22.1701 137.416 22.6585C136.082 23.1468 137.416 25.5884 138.784 26.2396C140.151 26.8907 141.193 25.8163 141.649 24.9373C142.104 24.0583 143.276 23.7653 143.276 23.7653C143.276 23.7653 143.341 23.1142 142.365 22.8212C141.388 22.5282 140.998 22.6259 140.998 22.6259C140.998 22.6259 143.146 22.105 143.569 21.0307C143.993 19.9564 145.034 19.2727 145.034 19.2727C145.034 19.2727 144.09 18.9797 143.504 17.9705C142.918 16.9613 142.235 16.2776 141.551 16.1474C140.867 16.0172 140.216 15.6916 140.216 15.6916C140.216 15.6916 141.16 16.0497 141.844 15.366C142.528 14.6824 142.365 14.5196 142.365 14.5196C140.053 15.0405 140.184 12.9244 138.556 12.3058C136.603 11.5571 135.496 13.7708 135.951 14.8452C136.179 15.3986 136.603 15.5614 136.83 15.6265C137.123 15.7242 137.514 15.5614 137.644 15.3009C137.775 15.073 137.709 14.7801 137.709 14.7801C137.709 14.7801 136.863 14.9754 136.798 14.5522C136.7 13.7708 137.579 13.5755 138.1 13.9011C138.686 14.2592 138.849 15.2033 137.514 16.245C136.668 16.9287 134.389 19.1425 133.998 19.6308C133.607 20.1517 133.607 20.1517 133.607 20.1517Z" fill="#7F392C"/>
<path fill-rule="evenodd" clip-rule="evenodd" d="M87.9648 23.3744C87.6718 23.6023 87.3463 23.7976 87.0207 23.9604C86.6626 24.1883 86.2394 24.3511 85.8487 24.5139C85.4255 24.6766 85.0023 24.7743 84.5465 24.7743C84.2209 24.7743 83.8628 24.7417 83.6024 24.5464C83.3745 24.3836 83.2768 24.1232 83.2768 23.8627C83.2768 23.6349 83.3419 23.407 83.4722 23.1791C83.6024 22.9512 83.7326 22.7559 83.8954 22.5605C84.1884 22.1699 84.5139 21.8118 84.8721 21.4536C85.2302 21.0955 85.5883 20.7374 85.9789 20.4119C86.044 20.3468 86.1417 20.2816 86.2068 20.2165C86.1091 20.2816 85.9789 20.3468 85.8813 20.4119C85.6534 20.5421 85.458 20.6723 85.2302 20.8351C84.9697 20.9979 84.7093 21.1932 84.4488 21.3885C84.2209 21.5513 84.0256 21.6815 83.8303 21.8443C83.7652 21.9094 83.7001 21.942 83.6349 22.0071C83.5698 22.0396 83.5373 22.0722 83.4722 22.1048C83.3745 22.1699 83.2768 22.1699 83.1792 22.1373C83.1466 22.1373 83.1466 22.1048 83.1141 22.0722C83.0815 22.0071 83.1141 21.9094 83.1792 21.8443C83.2117 21.7792 83.2768 21.7141 83.3419 21.6815C83.4396 21.6164 83.5047 21.5188 83.6024 21.4536C83.8303 21.2583 84.0582 21.0955 84.3186 20.9328C84.6442 20.6723 85.0023 20.4444 85.3604 20.2165C85.6859 19.9886 86.044 19.7608 86.4021 19.5654C86.6951 19.4027 86.9881 19.2399 87.2811 19.1097C87.509 19.012 87.7695 18.9143 87.9974 18.8818C88.2253 18.8492 88.4531 18.8167 88.7136 18.8167C88.8764 18.8167 89.0391 18.8167 89.2019 18.8167C89.2996 18.8167 89.4298 18.8492 89.4624 18.9143C89.5926 19.0771 89.2996 19.3375 89.2019 19.4352C88.8438 19.7608 88.5182 20.0863 88.1927 20.4444C87.8346 20.8025 87.4765 21.1932 87.1184 21.5839C86.8254 21.9094 86.5324 22.2024 86.2719 22.528C86.1743 22.6582 86.0766 22.7884 85.9789 22.9186C85.9138 23.0163 85.8162 23.114 85.751 23.2116C85.6859 23.3419 85.5883 23.5046 85.5557 23.6349C85.5557 23.7 85.5557 23.7976 85.6208 23.8302C85.7185 23.8953 85.8487 23.8953 85.9464 23.8627C86.1092 23.8302 86.3045 23.7651 86.4673 23.7C86.5975 23.6674 86.6952 23.6023 86.7928 23.5372C86.923 23.4721 87.0533 23.3744 87.216 23.3093C87.5416 23.114 87.8671 22.9186 88.1601 22.6907C88.388 22.528 88.6159 22.3652 88.8438 22.2024C89.0391 22.0722 89.2019 21.942 89.3973 21.8118C89.5275 21.7141 89.6577 21.5839 89.7879 21.4862C89.853 21.4536 89.8856 21.3885 89.9507 21.356C90.1786 21.1932 90.4065 20.9979 90.6344 20.8351C90.9274 20.6072 91.1878 20.3793 91.4808 20.1514C91.7412 19.9561 92.0017 19.7282 92.2621 19.5003C92.4249 19.3375 92.6202 19.2073 92.783 19.0445C92.6528 18.9469 92.5551 18.7841 92.5551 18.5888C92.5551 18.3283 92.6853 18.1004 92.8481 17.9377C93.0435 17.7423 93.2713 17.6121 93.4992 17.5144C93.7922 17.4168 94.0852 17.3517 94.3782 17.3517C94.541 17.3517 94.7038 17.3842 94.8666 17.4493C94.9968 17.5144 95.127 17.6121 95.1595 17.7423V17.8074L95.0944 17.84C94.9642 17.9051 94.8666 17.9702 94.7689 18.0679C94.6712 18.133 94.5736 18.2307 94.4433 18.2958C94.3457 18.3934 94.248 18.4911 94.1829 18.5888C94.1503 18.6213 94.1178 18.6864 94.1503 18.7515C94.1829 18.8818 94.4108 18.8818 94.5084 18.8818C94.8666 18.8818 95.2247 18.9143 95.5828 18.9143C95.8758 18.9469 96.1688 18.9794 96.4292 19.0771C96.6571 19.1748 96.8199 19.3375 96.8199 19.5654V19.598C96.8199 19.7933 96.6571 20.0212 96.5269 20.1514C96.3316 20.3793 96.0711 20.6072 95.8432 20.8351C95.5502 21.0955 95.2898 21.356 94.9968 21.649C94.7038 21.942 94.4433 22.235 94.1503 22.5605C94.0527 22.6907 93.955 22.7884 93.8573 22.9186C93.7922 23.0163 93.7271 23.114 93.662 23.2116C93.5969 23.3093 93.5318 23.4395 93.5318 23.5697C93.5318 23.6349 93.5318 23.7 93.5969 23.7325C93.662 23.7651 93.7922 23.7651 93.8573 23.7651C94.0201 23.7325 94.2154 23.6674 94.3782 23.6023C94.6387 23.4721 94.9317 23.3419 95.1921 23.1791C95.5177 22.9837 95.8432 22.7884 96.1362 22.5931C96.4943 22.3652 96.8199 22.1047 97.178 21.8769C97.4059 21.7141 97.6663 21.5188 97.8942 21.356C97.9268 21.3234 97.9593 21.3234 97.9593 21.2909C98.0244 21.2583 98.057 21.1932 98.1221 21.1606C98.2849 21.0304 98.4477 20.9002 98.643 20.77C98.936 20.5421 99.1964 20.3142 99.4894 20.0863C99.7499 19.891 100.01 19.6631 100.271 19.4352C100.434 19.2724 100.629 19.1422 100.792 18.9794C100.661 18.8818 100.564 18.719 100.564 18.5237C100.564 18.2632 100.694 18.0353 100.857 17.8725C101.052 17.6772 101.28 17.547 101.508 17.4493C101.801 17.3517 102.094 17.2865 102.387 17.2865C102.55 17.2865 102.712 17.3191 102.875 17.3842C103.005 17.4493 103.136 17.547 103.168 17.6772V17.7423L103.103 17.7749C102.973 17.84 102.875 17.9051 102.778 18.0028C102.68 18.0679 102.582 18.1655 102.452 18.2307C102.354 18.3283 102.257 18.426 102.192 18.5237C102.159 18.5562 102.126 18.6213 102.159 18.6864C102.192 18.8167 102.419 18.8167 102.517 18.8167C102.875 18.8167 103.233 18.8492 103.591 18.8492C103.884 18.8818 104.177 18.9143 104.438 19.012C104.666 19.1097 104.829 19.2724 104.829 19.5003V19.5329C104.829 19.7282 104.666 19.9561 104.536 20.0863C104.34 20.3142 104.08 20.5421 103.852 20.77C103.559 21.0304 103.298 21.2909 103.005 21.5839C102.712 21.8769 102.452 22.1699 102.159 22.4954C102.061 22.6256 101.964 22.7233 101.866 22.8535C101.801 22.9512 101.736 23.0489 101.671 23.1465C101.606 23.2442 101.54 23.3744 101.54 23.5046C101.54 23.5697 101.54 23.6349 101.606 23.6674C101.671 23.7 101.801 23.7 101.866 23.7C102.029 23.6674 102.224 23.6023 102.387 23.5372C102.647 23.407 102.94 23.2767 103.201 23.114C103.526 22.9186 103.852 22.7233 104.145 22.528C104.503 22.3001 104.829 22.0396 105.187 21.8118C105.447 21.6164 105.708 21.4211 105.968 21.2258C106.066 21.1281 106.228 21.0304 106.359 20.9653C106.456 20.9328 106.587 20.8676 106.652 20.9653C106.684 20.9979 106.684 20.9979 106.684 21.0304C106.717 21.1281 106.652 21.2258 106.587 21.2909C106.456 21.4211 106.326 21.5188 106.196 21.649C105.903 21.9094 105.577 22.1373 105.284 22.3652C104.861 22.6907 104.405 22.9837 103.982 23.2767C103.657 23.4721 103.331 23.6674 103.005 23.8627C102.615 24.0906 102.192 24.2534 101.768 24.4162C101.345 24.579 100.889 24.6441 100.466 24.6766C100.141 24.6766 99.7499 24.6441 99.4894 24.4162C99.2615 24.2534 99.1313 24.0255 99.1639 23.7325C99.1964 23.4395 99.3266 23.1465 99.4894 22.9186C99.6848 22.6256 99.9452 22.3326 100.206 22.0722C100.466 21.8118 100.759 21.5513 101.085 21.2909C101.345 21.0955 101.606 20.9002 101.866 20.7049C102.126 20.5095 102.387 20.3142 102.68 20.1514C102.908 19.9886 103.103 19.8584 103.331 19.6957C103.396 19.6305 103.591 19.5003 103.624 19.4352C103.657 19.3701 103.624 19.3375 103.559 19.305C103.396 19.2724 103.168 19.2724 103.005 19.2724C102.712 19.2724 102.419 19.2724 102.126 19.305C101.964 19.305 101.768 19.305 101.606 19.305C101.475 19.305 101.378 19.305 101.247 19.2724C101.052 19.4678 100.857 19.6305 100.661 19.7933C100.368 20.0538 100.108 20.2816 99.815 20.5095C99.522 20.7374 99.229 20.9653 98.936 21.1932C98.7081 21.356 98.4802 21.5513 98.2523 21.7141C98.2198 21.7466 98.2198 21.7466 98.1872 21.7466C97.8942 22.0071 97.5686 22.235 97.2757 22.4629C96.8524 22.7884 96.3967 23.0814 95.9734 23.3744C95.6479 23.5697 95.3223 23.7651 94.9968 23.9604C94.6061 24.1883 94.1829 24.3511 93.7597 24.5139C93.3365 24.6766 92.8807 24.7417 92.4575 24.7743C92.1319 24.7743 91.7412 24.7417 91.4808 24.5139C91.2529 24.3511 91.1227 24.1232 91.1552 23.8302C91.1878 23.5372 91.318 23.2442 91.4808 23.0163C91.6761 22.7233 91.9366 22.4303 92.197 22.1699C92.4575 21.9094 92.7505 21.649 93.076 21.3885C93.3364 21.1932 93.5969 20.9979 93.8573 20.8025C94.1178 20.6072 94.3782 20.4119 94.6712 20.2491C94.8991 20.0863 95.0944 19.9561 95.3223 19.7933C95.3874 19.7282 95.5828 19.598 95.6153 19.5329C95.6479 19.4678 95.6153 19.4352 95.5502 19.4027C95.3874 19.3701 95.1595 19.3701 94.9968 19.3701C94.7038 19.3701 94.4108 19.3701 94.1178 19.4027C93.955 19.4027 93.7597 19.4027 93.5969 19.4027C93.4667 19.4027 93.369 19.4027 93.2388 19.3701C93.0435 19.5654 92.8481 19.7282 92.6528 19.891C92.3598 20.1514 92.0993 20.3793 91.8063 20.6072C91.5133 20.8351 91.2203 21.063 90.9273 21.2909C90.6995 21.4862 90.4716 21.649 90.2437 21.8443C90.0484 22.0071 89.853 22.1373 89.6577 22.3001C89.3972 22.4954 89.1368 22.6907 88.8764 22.9186C88.5183 22.9837 88.2578 23.1791 87.9648 23.3744ZM86.1743 14.2263C86.2068 14.2263 86.2719 14.1938 86.3045 14.1938C86.4347 14.1612 86.5324 14.1287 86.6626 14.0636C87.216 13.8682 87.7369 13.6403 88.2578 13.3799C88.7461 13.152 89.2345 12.8916 89.6902 12.5986C90.0484 12.3707 90.439 12.0777 90.732 11.7521C90.9274 11.5242 91.1227 11.2638 91.1878 10.9382C91.2204 10.7429 91.1552 10.6127 90.9925 10.515C90.7971 10.4174 90.5692 10.4174 90.3739 10.4174C90.0809 10.4499 89.7879 10.5801 89.5275 10.7104C89.2019 10.8731 88.9089 11.101 88.6159 11.3615C88.3229 11.5894 88.0625 11.8824 87.8346 12.1428C87.509 12.5009 87.216 12.859 86.923 13.2171C86.6626 13.5752 86.4022 13.9008 86.1743 14.2263ZM76.7332 18.1981C76.3425 18.3609 75.9519 18.5237 75.5612 18.6864C75.1054 18.8492 74.6496 19.0445 74.1939 19.2399C73.4451 19.5654 72.6963 19.891 71.9801 20.2491C71.1662 20.6398 70.3523 21.063 69.571 21.4862C69.9617 21.649 70.3523 21.7466 70.743 21.8443C71.1337 21.9094 71.5569 21.9745 71.9801 21.9745C72.5336 21.9745 73.087 21.8769 73.6404 21.7466C74.1939 21.6164 74.7148 21.3885 75.1705 21.1281C75.6263 20.8676 76.017 20.5746 76.3425 20.1514C76.6355 19.7933 76.7983 19.3701 76.8309 18.9143C76.8309 18.6539 76.7983 18.3934 76.7332 18.1981ZM77.3192 20.3468C76.9285 20.8025 76.4402 21.1932 75.9193 21.4536C75.3333 21.7792 74.7148 22.0071 74.0637 22.1373C73.4125 22.3001 72.7614 22.3977 72.0778 22.3977C71.5569 22.3977 71.0686 22.3652 70.5477 22.2675C70.0268 22.1699 69.5385 22.0071 69.0827 21.7792C68.692 22.0071 68.3013 22.235 67.9432 22.4629C67.5526 22.6907 67.1619 22.9186 66.7712 23.1791C66.5434 23.3093 66.348 23.4721 66.1201 23.6023C65.9248 23.7325 65.762 23.8627 65.5667 23.993C66.055 24.3511 66.6085 24.6115 67.227 24.8068C67.9107 25.0022 68.6269 25.1324 69.3431 25.165C70.0593 25.1975 70.7756 25.2301 71.4918 25.165C72.794 25.0673 74.0962 24.7417 75.2682 24.1557C76.4728 23.5697 77.5471 22.7559 78.4912 21.8118C79.5981 20.7049 80.5422 19.4352 81.3886 18.133C81.6816 17.7098 81.9421 17.2866 82.2351 16.8633C82.4629 16.5052 82.7234 16.1797 82.9513 15.8541C82.1048 16.1471 81.2258 16.4727 80.3794 16.7982C79.4678 17.1238 78.5563 17.5144 77.6773 17.8725C77.7424 18.0028 77.775 18.1655 77.8401 18.2958C77.8726 18.4911 77.9052 18.6539 77.9052 18.8492C77.8726 19.4027 77.6773 19.9235 77.3192 20.3468ZM89.7554 16.5703C89.7554 16.3424 89.7879 16.1146 89.8856 15.8867C90.0158 15.6262 90.2437 15.4309 90.5367 15.3332C90.8622 15.2356 91.1878 15.203 91.5459 15.203H91.5785C91.8063 15.203 92.0342 15.2681 92.1645 15.496V15.5286C92.2296 15.7564 92.0668 16.0169 91.904 16.1797C91.7412 16.375 91.5133 16.5378 91.2855 16.668C91.0576 16.7982 90.8297 16.8959 90.5692 16.9936C90.4065 17.0587 90.1786 17.1238 89.9832 17.1238H89.9507L89.9181 17.0912C89.8205 16.961 89.7554 16.7657 89.7554 16.5703ZM70.9058 15.7564C71.4918 15.6913 72.0452 15.6913 72.6312 15.7239C73.2498 15.7564 73.8683 15.8216 74.4543 15.9518C75.0403 16.0494 75.5938 16.2448 76.1146 16.4727C76.5704 16.668 76.9611 16.961 77.2866 17.3191C78.2959 16.961 79.3051 16.5703 80.3143 16.2122C81.3235 15.8541 82.3002 15.496 83.3094 15.1379C83.993 14.2589 84.7093 13.445 85.4906 12.6637C86.2068 11.98 86.9881 11.3615 87.8346 10.8406C88.2253 10.6127 88.6485 10.4174 89.1043 10.2546C89.4949 10.1244 89.8856 10.0267 90.3088 9.99414C90.5367 9.99414 90.7646 9.99414 90.9599 10.0267C91.1878 10.0593 91.3506 10.1569 91.5134 10.3197C91.6761 10.4825 91.7412 10.7104 91.7087 10.9382C91.6436 11.4266 91.2855 11.8498 90.9599 12.1754C90.439 12.6637 89.8205 13.0869 89.2019 13.4125C88.4206 13.8357 87.6067 14.1938 86.7928 14.5193C86.63 14.5845 86.4347 14.6496 86.2719 14.7147C86.1092 14.7798 85.9138 14.8449 85.751 14.91C85.3929 15.4634 85.0674 16.0169 84.7418 16.6029C84.4163 17.1238 84.1233 17.6772 83.7977 18.1981C82.8862 19.7282 81.7142 21.1281 80.3143 22.2675C79.0121 23.3093 77.5796 24.0906 76.017 24.6441C74.4218 25.1975 72.794 25.4905 71.1337 25.6207C70.3849 25.6858 69.6687 25.6533 68.9199 25.6207C68.1711 25.5882 67.4224 25.4905 66.6736 25.3277C65.9899 25.165 65.3388 24.9371 64.7203 24.6115C64.0691 25.0998 63.4506 25.6533 62.832 26.2067C62.5716 26.4346 62.3437 26.6951 62.1158 26.9555C61.953 27.1834 61.7903 27.4113 61.6275 27.6392C61.5949 27.7368 61.5298 27.8019 61.4647 27.8996C61.3996 27.9647 61.3345 28.0298 61.2368 27.9973C61.1392 27.9322 61.1066 27.8345 61.1392 27.7368C61.1392 27.6717 61.1717 27.5741 61.2043 27.5089C61.4322 26.9229 61.8554 26.3695 62.2786 25.8812C62.832 25.2626 63.418 24.7092 64.0691 24.1883C63.8087 23.993 63.5808 23.7325 63.3529 23.4721C63.125 23.1465 62.9297 22.7884 62.7995 22.3977C62.6693 21.9745 62.6042 21.5188 62.6367 21.0955C62.7018 20.4444 62.9297 19.8259 63.3204 19.2724C63.7436 18.719 64.2319 18.2307 64.8179 17.84C65.4365 17.4168 66.0876 17.0587 66.8038 16.7982C67.4875 16.5052 68.2037 16.2773 68.9199 16.1146C69.6036 15.9192 70.2547 15.8216 70.9058 15.7564ZM68.8548 21.0304C69.7012 20.6072 70.5477 20.184 71.4267 19.7933C72.3057 19.4027 73.1847 19.012 74.0637 18.6864C74.9101 18.3609 75.724 18.0353 76.5704 17.7098C76.3425 17.3842 76.017 17.1238 75.6263 16.9284C75.1705 16.7006 74.6822 16.5378 74.1613 16.4076C73.6079 16.3099 73.0544 16.2122 72.501 16.2122C71.9801 16.1797 71.4592 16.2122 70.9383 16.2448C70.3523 16.2773 69.7663 16.375 69.2129 16.5052C68.6269 16.668 68.0409 16.8633 67.4549 17.0912C66.9015 17.3517 66.3806 17.6447 65.8922 18.0353C65.4365 18.3934 65.0458 18.8167 64.7528 19.305C64.4598 19.7933 64.2645 20.3468 64.2319 20.9328C64.1994 21.4211 64.2645 21.942 64.4273 22.4303C64.5575 22.821 64.7528 23.1465 65.0458 23.4395C65.2086 23.3093 65.3714 23.1791 65.5667 23.0489C65.7946 22.8861 65.9899 22.7559 66.2178 22.5931C66.5759 22.3652 66.934 22.1373 67.2921 21.942C67.6502 21.7141 68.0084 21.5188 68.399 21.3234C68.2037 21.1932 68.0735 20.9979 67.9432 20.8025C67.7805 20.5746 67.6828 20.3468 67.6502 20.0863C67.6177 19.9886 67.6177 19.9235 67.6502 19.8259C67.6828 19.7282 67.7479 19.6631 67.8456 19.6631C67.9432 19.6631 67.9758 19.7282 68.0083 19.7933C68.0083 19.8584 68.0409 19.9235 68.0409 19.9561C68.106 20.184 68.2362 20.3793 68.399 20.5421C68.4967 20.7374 68.6595 20.9002 68.8548 21.0304Z" fill="#7F392C"/>
<path fill-rule="evenodd" clip-rule="evenodd" d="M80.3796 0.098003C80.3796 0.098003 79.3704 0.618889 79.2402 3.58143C79.0774 6.54397 77.2218 7.42297 72.078 6.34864C66.9343 5.27431 62.8323 8.92052 60.2604 11.0692C57.6885 13.2178 52.1867 18.7848 51.8611 19.0778C51.5356 19.4034 51.21 19.8591 51.21 19.8591L49.9729 18.5569C49.9729 18.5569 54.2702 14.5526 54.6934 13.9666C55.1167 13.3481 54.7585 12.7295 53.9447 13.5434C53.1633 14.3898 51.7309 15.8874 51.7309 15.8874L50.5915 14.6177C50.5915 14.6177 59.0233 7.48808 60 6.70675C61.0092 5.92542 65.7623 2.8001 70.8084 2.63732C71.5571 2.60477 72.664 2.66988 73.4779 2.86521C75.1708 3.25588 76.5056 3.90699 77.0916 3.28843C77.6124 2.70244 77.3194 2.01877 76.9613 1.69322C76.5381 1.27 76.0823 1.563 76.0172 1.79088C75.9847 1.88855 75.9847 1.95366 76.2126 1.98622C76.7009 2.01877 77.1892 3.12566 76.3102 3.25588C75.8219 3.32099 75.4638 2.96288 75.301 2.5071C74.9103 1.30255 75.6917 0.716556 76.5056 0.61889C77.2543 0.521223 78.0357 1.00955 78.0357 1.82344C78.0357 1.82344 78.2635 0.846777 79.1425 0.358446C80.0541 -0.194996 80.3796 0.098003 80.3796 0.098003Z" fill="#7F392C"/>
<path fill-rule="evenodd" clip-rule="evenodd" d="M80.3793 40.1081C80.3793 40.1081 79.37 39.5872 79.2398 36.6247C79.077 33.6622 77.2214 32.7832 72.0776 33.8575C66.9339 34.9318 62.8319 31.2856 60.26 29.1369C57.6882 26.9883 54.0419 21.6818 53.7164 21.3888C53.3908 21.0632 53.0653 20.6074 53.0653 20.6074L51.8282 21.9096C51.8282 21.9096 53.6187 24.2862 54.0419 24.9047C54.4652 25.5233 54.1071 26.1419 53.2932 25.328C52.5118 24.4815 48.4424 20.5098 48.4424 20.5098L47.303 21.7794C47.303 21.7794 58.9904 32.7506 59.9996 33.4994C61.0088 34.2807 65.7619 37.406 70.808 37.5688C71.5568 37.6014 72.6636 37.5362 73.4775 37.3409C75.1704 36.9502 76.5052 36.2991 77.0912 36.9177C77.6121 37.5037 77.3191 38.1874 76.9609 38.5129C76.5377 38.9361 76.082 38.6431 76.0168 38.4152C75.9843 38.3176 75.9843 38.2525 76.2122 38.2199C76.7005 38.1874 77.1888 37.0805 76.3098 36.9502C75.8215 36.8851 75.4634 37.2432 75.3006 37.699C74.91 38.9036 75.6913 39.4896 76.5052 39.5872C77.254 39.6849 78.0353 39.1966 78.0353 38.3827C78.0353 38.3827 78.2632 39.3593 79.1422 39.8477C80.0212 40.336 80.3793 40.1081 80.3793 40.1081Z" fill="#7F392C"/>
<path fill-rule="evenodd" clip-rule="evenodd" d="M45.0894 7.58527C45.0894 7.58527 45.8056 7.06438 46.4567 7.65038C47.1078 8.23638 47.4333 8.49682 48.0845 8.26893C48.7356 8.04105 49.3216 7.52016 49.2564 7.55272C49.1913 7.58527 49.0286 8.56193 49.2564 9.34326C49.4843 10.1246 51.0144 10.7431 51.7958 9.63626C52.5771 8.52938 52.5445 7.52016 51.7307 7.84571C50.9493 8.17127 50.6889 8.62704 50.6889 8.62704C50.6889 8.62704 50.3959 6.8365 51.5028 6.73883C52.6097 6.64116 53.1957 8.00849 53.0003 8.92004C52.805 9.86415 51.8609 11.2966 50.0052 11.0361C48.1496 10.7431 48.2798 10.385 47.2055 10.385C46.1311 10.385 45.2196 11.4268 45.2196 11.4268C45.2196 11.4268 47.1078 11.0361 48.3123 11.6221C49.5169 12.2081 51.9585 12.2081 53.2933 10.5804C54.6281 8.9526 54.1072 7.45505 54.6606 6.8365C55.3118 6.08772 56.6791 6.18539 55.8977 7.38994C55.7024 7.68294 55.442 7.7806 55.4745 7.7806C55.5396 7.7806 56.4512 8.33405 57.0697 6.99927C57.6883 5.6645 57.1023 4.85062 55.735 5.17617C54.3676 5.50173 53.8468 7.74805 53.8468 7.74805C53.8468 7.74805 53.7165 5.89239 51.8609 5.69706C50.0052 5.50173 49.3216 7.42249 47.5961 6.41328C46.652 5.89239 46.0335 6.2505 45.773 6.47839C45.5126 6.70628 45.0894 7.58527 45.0894 7.58527Z" fill="#7F392C"/>
<path fill-rule="evenodd" clip-rule="evenodd" d="M43.1687 30.7651C43.1687 30.7651 43.8849 31.2859 44.536 30.6999C45.1871 30.1139 45.5127 29.8535 46.1638 30.0814C46.8149 30.3093 47.4009 30.8302 47.3358 30.7976C47.2707 30.7651 47.1079 29.7884 47.3358 29.0071C47.5637 28.2257 49.0938 27.6072 49.8751 28.7141C50.6564 29.8209 50.6239 30.8302 49.81 30.5046C49.0287 30.1791 48.7682 29.7233 48.7682 29.7233C48.7682 29.7233 48.4752 31.5138 49.5821 31.6115C50.689 31.7092 51.275 30.3418 51.0797 29.4303C50.8843 28.4862 49.9402 27.0537 48.0846 27.3142C46.2289 27.6072 46.3591 27.9653 45.2848 27.9653C44.2105 27.9653 43.2989 26.9235 43.2989 26.9235C43.2989 26.9235 45.1871 27.3142 46.3917 26.7282C47.5962 26.1422 50.0379 26.1422 51.3727 27.77C52.7074 29.3977 52.1865 30.8953 52.74 31.5138C53.3911 32.2626 54.7584 32.1649 53.9771 30.9604C53.7818 30.6674 53.5213 30.5697 53.5539 30.5697C53.619 30.5697 54.5305 30.0163 55.1491 31.3511C55.7676 32.6858 55.1816 33.4997 53.8143 33.1742C52.447 32.8486 51.9261 30.6023 51.9261 30.6023C51.9261 30.6023 51.7959 32.4579 49.9402 32.6533C48.0846 32.8486 47.4009 30.9278 45.6755 31.9371C44.7314 32.4579 44.1128 32.0998 43.8524 31.8719C43.5919 31.6441 43.1687 30.7651 43.1687 30.7651Z" fill="#7F392C"/>
<path fill-rule="evenodd" clip-rule="evenodd" d="M6.9344 18.3938L5.59963 20.1843L6.70651 21.9749L8.07384 20.1843L6.9344 18.3938ZM68.3664 39.978L68.4967 38.7409C68.4967 38.7409 64.1993 38.7409 62.3111 37.5038C60.4229 36.2667 60.0974 35.8435 60.0974 35.8435L44.9591 36.0714C44.9591 36.0714 43.1035 36.5272 42.2245 34.7692C41.3455 33.0112 39.7502 31.7741 38.5783 32.8158C37.4388 33.8251 37.7969 35.7458 38.4155 36.3318C39.034 36.9178 40.3037 36.4946 40.4014 35.5831C40.5967 34.053 39.1642 34.0529 39.327 35.5505C39.327 35.5505 38.6108 34.9319 38.9689 34.2808C39.327 33.6297 40.9874 33.3367 41.085 35.1598C41.1501 36.9829 39.6851 37.4713 38.6434 37.1783C37.6016 36.8853 37.5365 35.7784 37.5365 35.7784C37.5365 35.7784 35.3227 37.8619 32.4578 35.8435C29.593 33.8251 29.0721 32.3275 28.6163 30.83C28.1605 29.3324 28.4861 28.486 28.4861 28.486C25.2305 31.0579 21.389 25.6862 19.5985 23.7654C18.166 22.2353 16.7987 21.1936 16.1801 20.8029C15.5616 20.4122 15.3011 20.2495 15.2035 20.1843C15.3011 20.1192 15.5941 19.9565 16.2778 19.5658C16.9615 19.1751 18.459 18.1334 20.0868 16.6033C22.1378 14.6825 26.7281 9.31084 29.6255 11.8827C29.6255 11.8827 29.4302 11.0037 30.0813 9.53873C30.7324 8.04118 31.4486 6.54363 34.6065 4.5252C37.7644 2.50676 39.6851 4.59031 39.6851 4.59031C39.6851 4.59031 39.8805 3.48342 40.9874 3.19042C42.0617 2.89743 43.4941 3.38576 43.1686 5.20886C42.843 7.03196 41.2152 6.73896 40.9548 6.08786C40.6944 5.43675 41.4757 4.81819 41.4757 4.81819C41.085 6.31574 42.55 6.3483 42.55 4.78564C42.55 3.90664 41.378 3.48342 40.6618 4.03686C39.9456 4.62286 39.2945 6.51108 40.3037 7.55285C41.3129 8.56207 43.0709 7.35752 44.2103 5.59952C45.3172 3.84153 47.1078 4.29731 47.1078 4.29731L62.2135 4.5252C62.2135 4.5252 62.5716 4.10198 64.6551 2.86487C66.7712 1.62776 71.0685 1.62776 71.0685 1.62776L71.1011 0.390659L60.7159 0.45577C60.7159 0.45577 60.7159 0.45577 52.4143 0.325549C49.3215 0.292993 47.2705 0.0651053 45.9683 0.585992C44.2429 1.30221 43.3313 2.27887 43.3313 2.27887C43.3313 2.27887 42.9081 1.98587 41.8989 1.26966C41.085 0.683658 39.4898 -0.130227 36.3645 0.520881C29.4302 1.92076 27.9977 8.30162 27.9977 8.30162C27.9977 8.30162 26.5979 7.8784 25.0352 8.72484C20.3472 11.2642 17.873 16.2126 12.9246 18.231C12.9246 18.231 10.6457 18.4589 10.6457 17.6125C10.6783 16.766 12.0782 17.0265 12.0782 17.0265C12.0782 17.0265 12.5014 15.9196 10.841 15.2685C9.18072 14.6174 8.95284 16.8311 8.95284 16.8311C8.95284 16.8311 8.56217 16.7986 8.65984 15.7568C8.7575 14.715 8.92028 13.4128 6.67396 13.6407C4.42764 13.8686 5.01363 17.6125 5.20897 18.0031C5.4043 18.3938 5.20897 18.4589 4.49275 17.938C3.77653 17.4497 2.1162 16.1475 0.911652 17.0916C-0.0975649 17.9055 -0.423119 22.3981 0.488432 23.2446C1.56276 24.1887 3.41842 22.919 4.19975 22.3981C4.98108 21.9098 5.17641 21.9749 4.91597 22.333C4.65552 22.7237 3.54864 26.4675 5.76241 26.6954C7.97618 26.9233 8.00873 25.5885 8.04129 24.5793C8.07384 23.5376 8.46451 23.505 8.46451 23.505C8.46451 23.505 8.43195 25.7188 10.1899 25.0677C11.9479 24.4165 11.6875 23.3097 11.6875 23.3097C11.6875 23.3097 10.2551 23.5701 10.3202 22.7237C10.4178 21.8772 12.6642 22.1051 12.6642 22.1051C17.3196 24.1561 19.1101 29.1045 23.44 31.6438C24.8724 32.4903 26.3374 32.0671 26.3374 32.0671C26.3374 32.0671 26.8909 38.4479 33.6298 39.8804C36.6575 40.5315 38.3829 39.7176 39.2619 39.1316C40.3688 38.4154 40.8246 38.1224 40.8246 38.1224C40.8246 38.1224 41.6059 39.099 43.2337 39.7827C44.4708 40.3036 46.5543 40.1083 49.6471 40.0431C57.9813 39.9129 57.9813 39.9129 57.9813 39.9129L68.3664 39.978Z" fill="#7F392C"/>
<path fill-rule="evenodd" clip-rule="evenodd" d="M50.3959 17.3848L48.9635 18.6544C48.9635 18.6544 46.8474 16.4081 44.8941 15.6919C42.9733 15.0082 41.9966 14.8455 41.9966 14.8455L41.5083 12.4038C41.5083 12.4038 43.5918 12.4364 46.5218 14.0641C49.4518 15.7245 50.3959 17.3848 50.3959 17.3848Z" fill="#7F392C"/>
<path fill-rule="evenodd" clip-rule="evenodd" d="M46.6194 17.645L48.1495 18.9472C48.1495 18.9472 47.2054 19.9565 45.0242 20.9006C42.843 21.8447 41.3455 21.9098 41.3455 21.9098L41.7036 19.5658C41.7036 19.5658 43.136 19.6309 44.4382 18.9798C46.3264 18.0682 46.6194 17.645 46.6194 17.645Z" fill="#7F392C"/>
<path fill-rule="evenodd" clip-rule="evenodd" d="M45.5451 17.6775L43.136 18.9797C43.136 18.9797 42.257 18.3937 40.5641 18.4914C38.8713 18.5891 38.3178 18.9472 38.3178 18.9472L36.4622 17.5799C36.4622 17.5799 38.1876 16.5055 40.8571 16.5055C43.4616 16.473 45.5451 17.6775 45.5451 17.6775Z" fill="#7F392C"/>
<path fill-rule="evenodd" clip-rule="evenodd" d="M41.4106 15.7571L39.4898 15.9199C39.4898 15.9199 39.2294 10.8738 36.4621 9.99484C33.6624 9.11585 33.6298 12.6318 33.6298 13.5434C33.6298 14.4549 33.6949 14.7805 33.6949 14.7805L32.3276 15.9199C32.3276 15.9199 31.1231 10.9389 33.3368 8.72518C35.3227 6.7393 37.9597 7.6183 39.5549 9.57162C40.6618 10.9064 41.0525 12.8597 41.2803 14.3898C41.3455 15.1386 41.4431 15.7571 41.4106 15.7571Z" fill="#7F392C"/>
<path fill-rule="evenodd" clip-rule="evenodd" d="M31.1558 17.6126L31.872 18.5893C31.872 18.5893 34.0532 16.5383 36.1693 15.6267C38.2854 14.7152 38.6109 14.7803 38.6109 14.7803L38.0901 12.8921C38.0901 12.8921 37.4064 13.0874 34.8671 14.5199C32.3603 15.9849 31.1558 17.6126 31.1558 17.6126Z" fill="#7F392C"/>
<path fill-rule="evenodd" clip-rule="evenodd" d="M34.9973 17.0591L33.4998 18.1334C33.4998 18.1334 34.2811 19.4682 36.0716 20.5751C37.8622 21.6819 38.1552 21.6494 38.1552 21.6494L38.7737 19.4682C38.7737 19.4682 37.6017 19.2403 36.4949 18.459C35.3229 17.7102 34.9973 17.0591 34.9973 17.0591Z" fill="#7F392C"/>
<path fill-rule="evenodd" clip-rule="evenodd" d="M41.1503 19.3052L39.3923 19.2075C39.3923 19.2075 38.9365 21.5515 38.611 22.3328C38.2854 23.1142 38.2854 23.1142 38.2854 23.1142H40.3689C40.3689 23.1142 40.7922 21.9096 40.9549 20.8353C41.1177 19.7284 41.1503 19.3052 41.1503 19.3052Z" fill="#7F392C"/>
<path fill-rule="evenodd" clip-rule="evenodd" d="M46.2614 21.5518L47.7589 22.7889C47.7589 22.7889 44.5034 25.491 40.9223 25.8816C39.7829 26.0118 38.4155 25.9793 37.3412 25.6863C35.0623 25.1003 33.4346 23.5051 33.4346 23.5051L34.4763 21.9424C34.4763 21.9424 35.7786 23.6353 39.1643 23.7981C42.5826 24.026 46.2614 21.5518 46.2614 21.5518Z" fill="#7F392C"/>
<path fill-rule="evenodd" clip-rule="evenodd" d="M34.7367 20.9332L33.4345 19.7612C29.886 23.0493 28.1931 32.6857 33.9879 31.4486C37.0156 30.7975 39.2294 26.6955 39.2294 26.6955L36.9505 26.4676C36.9505 26.4676 35.4855 28.9419 33.6949 29.2349C31.9044 29.5279 31.6765 27.1513 32.0997 25.2305C32.4904 23.2772 34.7367 20.9332 34.7367 20.9332Z" fill="#7F392C"/>
<path fill-rule="evenodd" clip-rule="evenodd" d="M32.3928 20.1517L31.4161 21.6167C31.4161 21.6167 28.7791 18.1333 27.1839 17.9705C25.5887 17.8077 24.1562 19.0774 24.1562 19.0774C24.1562 19.0774 24.8725 20.3796 26.3375 20.3796C27.8025 20.4121 28.4536 19.6308 28.6489 19.468L29.593 20.5424C29.593 20.5424 26.9886 21.8446 26.6305 22.9515C26.2724 24.0583 26.4351 24.9048 27.2165 24.7094C27.9978 24.5141 28.2908 23.9932 27.8676 23.7979C27.4118 23.6026 27.0537 23.8305 27.0537 23.8305C27.0537 23.8305 27.249 22.1701 28.5838 22.6585C29.9186 23.1468 28.5838 25.5884 27.2165 26.2396C25.8491 26.8907 24.8074 25.8163 24.3516 24.9373C23.8958 24.0583 22.7238 23.7653 22.7238 23.7653C22.7238 23.7653 22.6587 23.1142 23.6354 22.8212C24.612 22.5282 25.0027 22.6259 25.0027 22.6259C25.0027 22.6259 22.854 22.105 22.4308 21.0307C22.0076 19.9564 20.9658 19.2727 20.9658 19.2727C20.9658 19.2727 21.9099 18.9797 22.4959 17.9705C23.0819 16.9613 23.7656 16.2776 24.4492 16.1474C25.1329 16.0172 25.784 15.6916 25.784 15.6916C25.784 15.6916 24.8399 16.0497 24.1562 15.366C23.4726 14.6824 23.6354 14.5196 23.6354 14.5196C25.9468 15.0405 25.8166 12.9244 27.4443 12.3058C29.3977 11.5571 30.5046 13.7708 30.0488 14.8452C29.8209 15.3986 29.3977 15.5614 29.1698 15.6265C28.8768 15.7242 28.4861 15.5614 28.3559 15.3009C28.2257 15.073 28.2908 14.7801 28.2908 14.7801C28.2908 14.7801 29.1372 14.9754 29.2023 14.5522C29.3 13.7708 28.421 13.5755 27.9001 13.9011C27.3141 14.2592 27.1513 15.2033 28.4861 16.245C29.3326 16.9287 31.6114 19.1425 32.0021 19.6308C32.3928 20.1517 32.3928 20.1517 32.3928 20.1517Z" fill="#7F392C"/>
<path fill-rule="evenodd" clip-rule="evenodd" d="M82.9837 1.62744C83.5697 1.62744 84.0581 2.21344 84.0581 2.8971C84.0581 3.61332 83.5697 4.16676 82.9837 4.16676C82.3978 4.16676 81.9094 3.58077 81.9094 2.8971C81.9094 2.18088 82.3978 1.62744 82.9837 1.62744Z" fill="#7F392C"/>
<path fill-rule="evenodd" clip-rule="evenodd" d="M82.9837 35.9414C83.5697 35.9414 84.0581 36.5274 84.0581 37.2111C84.0581 37.8947 83.5697 38.4807 82.9837 38.4807C82.3978 38.4807 81.9094 37.8947 81.9094 37.2111C81.9094 36.5274 82.3978 35.9414 82.9837 35.9414Z" fill="#7F392C"/>
</g>
<defs>
<clipPath id="clip0_626_150">
<rect width="166" height="64.1667" fill="white"/>
</clipPath>
</defs>
</svg>
