<svg width="190" height="74" viewBox="0 0 190 74" fill="none" xmlns="http://www.w3.org/2000/svg">
<g clip-path="url(#clip0_83_11424)">
<path fill-rule="evenodd" clip-rule="evenodd" d="M125.983 63.6066H122.965V65.2089H125.723C125.909 65.2089 126.095 65.2462 126.17 65.358C126.282 65.4325 126.319 65.5815 126.319 65.7306C126.319 65.8796 126.282 65.9914 126.17 66.1032C126.058 66.215 125.909 66.2523 125.723 66.2523H122.965V68.1154H126.058C126.282 68.1154 126.431 68.1526 126.542 68.2644C126.654 68.3762 126.691 68.488 126.691 68.637C126.691 68.7861 126.654 68.9351 126.542 69.0097C126.431 69.1214 126.282 69.1587 126.058 69.1587H122.444C122.145 69.1587 121.959 69.0842 121.81 68.9724C121.698 68.8606 121.624 68.637 121.624 68.3389V63.3831C121.624 63.1968 121.661 63.0477 121.698 62.8987C121.773 62.7869 121.847 62.6751 121.959 62.6378C122.071 62.6006 122.22 62.5633 122.406 62.5633H125.946C126.17 62.5633 126.319 62.6006 126.431 62.7123C126.542 62.8241 126.58 62.9359 126.58 63.085C126.58 63.234 126.542 63.3831 126.431 63.4576C126.356 63.5694 126.207 63.6066 125.983 63.6066ZM120.357 67.1838C120.357 67.5937 120.245 67.9291 120.059 68.2644C119.872 68.5998 119.537 68.8233 119.164 69.0097C118.755 69.196 118.307 69.2705 117.749 69.2705C117.115 69.2705 116.556 69.1587 116.146 68.8979C115.848 68.7116 115.587 68.488 115.401 68.1899C115.215 67.8918 115.103 67.5937 115.103 67.3329C115.103 67.1838 115.177 67.0348 115.289 66.923C115.401 66.8112 115.55 66.7367 115.736 66.7367C115.885 66.7367 115.997 66.7739 116.109 66.8857C116.221 66.9602 116.295 67.1093 116.37 67.2956C116.444 67.5192 116.556 67.6682 116.631 67.8173C116.742 67.9663 116.854 68.0781 117.041 68.1526C117.227 68.2271 117.45 68.3017 117.749 68.3017C118.158 68.3017 118.456 68.2272 118.717 68.0408C118.978 67.8545 119.09 67.631 119.09 67.3329C119.09 67.1093 119.015 66.923 118.904 66.8112C118.755 66.6621 118.606 66.5876 118.382 66.5131C118.158 66.4386 117.898 66.364 117.525 66.2895C117.041 66.1777 116.668 66.0659 116.333 65.9169C115.997 65.7678 115.774 65.5815 115.587 65.3207C115.401 65.0599 115.289 64.7618 115.289 64.3519C115.289 63.9793 115.401 63.6812 115.587 63.3831C115.774 63.085 116.072 62.8987 116.444 62.7496C116.817 62.6006 117.264 62.526 117.749 62.526C118.158 62.526 118.494 62.5633 118.792 62.6751C119.09 62.7869 119.314 62.8987 119.537 63.085C119.723 63.234 119.872 63.4203 119.947 63.6066C120.022 63.7929 120.096 63.9793 120.096 64.1283C120.096 64.2774 120.022 64.4264 119.91 64.5382C119.798 64.65 119.649 64.7245 119.5 64.7245C119.351 64.7245 119.239 64.6872 119.164 64.6127C119.09 64.5382 119.015 64.4264 118.904 64.2401C118.792 63.9793 118.643 63.7929 118.456 63.6439C118.307 63.4949 118.009 63.4203 117.637 63.4203C117.301 63.4203 117.003 63.4949 116.817 63.6439C116.593 63.7929 116.482 63.9793 116.482 64.2028C116.482 64.3519 116.519 64.4637 116.593 64.5382C116.668 64.65 116.78 64.7245 116.891 64.799C117.003 64.8735 117.152 64.9108 117.264 64.9481C117.376 64.9853 117.599 65.0599 117.898 65.1344C118.27 65.2089 118.606 65.3207 118.904 65.4325C119.202 65.5443 119.463 65.6561 119.686 65.8051C119.91 65.9542 120.059 66.1405 120.171 66.364C120.282 66.5504 120.357 66.8484 120.357 67.1838ZM108.284 66.4386V63.2713C108.284 63.0104 108.358 62.7869 108.47 62.6751C108.582 62.526 108.768 62.4888 108.955 62.4888C109.178 62.4888 109.327 62.5633 109.439 62.6751C109.551 62.8241 109.625 63.0104 109.625 63.2713V66.5131C109.625 66.8857 109.663 67.1838 109.737 67.4446C109.812 67.7055 109.961 67.8918 110.184 68.0036C110.408 68.1526 110.669 68.1899 111.079 68.1899C111.6 68.1899 111.973 68.0408 112.196 67.78C112.42 67.5192 112.532 67.072 112.532 66.5131V63.234C112.532 62.9732 112.606 62.7496 112.718 62.6378C112.83 62.4888 113.016 62.4515 113.203 62.4515C113.389 62.4515 113.575 62.526 113.687 62.6378C113.799 62.7869 113.873 62.9732 113.873 63.234V66.4013C113.873 66.923 113.836 67.3329 113.724 67.7055C113.612 68.0408 113.426 68.3389 113.165 68.5998C112.942 68.8233 112.644 68.9724 112.345 69.0842C112.01 69.196 111.675 69.2332 111.228 69.2332C110.706 69.2332 110.296 69.196 109.923 69.0842C109.551 68.9724 109.253 68.8233 109.029 68.5625C108.806 68.3389 108.619 68.0408 108.507 67.6682C108.358 67.3701 108.284 66.923 108.284 66.4386ZM105.899 65.8424C105.899 65.358 105.825 64.9481 105.676 64.5755C105.527 64.2401 105.303 63.942 105.005 63.7557C104.707 63.5694 104.371 63.4948 103.999 63.4948C103.738 63.4948 103.477 63.5321 103.254 63.6439C103.03 63.7557 102.844 63.9047 102.657 64.091C102.508 64.2774 102.359 64.5382 102.285 64.8363C102.173 65.1344 102.136 65.4697 102.136 65.8424C102.136 66.215 102.173 66.5503 102.285 66.8484C102.396 67.1465 102.508 67.4074 102.695 67.5937C102.881 67.78 103.067 67.9291 103.291 68.0408C103.514 68.1526 103.775 68.1899 104.036 68.1899C104.371 68.1899 104.707 68.1154 104.968 67.9291C105.266 67.7427 105.489 67.4819 105.638 67.1465C105.787 66.8112 105.899 66.364 105.899 65.8424ZM103.999 62.4515C104.669 62.4515 105.266 62.6006 105.75 62.8614C106.234 63.1222 106.607 63.5321 106.868 64.0538C107.129 64.5755 107.241 65.1716 107.241 65.8424C107.241 66.364 107.166 66.8112 107.017 67.2211C106.868 67.631 106.682 68.0036 106.384 68.3017C106.123 68.5998 105.787 68.8233 105.377 69.0097C104.968 69.1587 104.52 69.2332 103.999 69.2332C103.477 69.2332 103.03 69.1587 102.62 68.9724C102.21 68.8233 101.875 68.5625 101.614 68.2644C101.353 67.9663 101.13 67.5937 100.981 67.1838C100.831 66.7739 100.757 66.2895 100.757 65.8051C100.757 65.2834 100.831 64.8363 100.981 64.4264C101.13 64.0165 101.353 63.6439 101.614 63.3458C101.875 63.0477 102.21 62.8241 102.62 62.6751C103.03 62.526 103.477 62.4515 103.999 62.4515ZM95.3539 63.2713V65.1716H98.2231V63.2713C98.2231 63.0104 98.2976 62.7869 98.4094 62.6751C98.5212 62.526 98.7075 62.4888 98.8938 62.4888C99.0801 62.4888 99.2665 62.5633 99.3783 62.6751C99.49 62.8241 99.5646 63.0104 99.5646 63.2713V68.4507C99.5646 68.7116 99.49 68.9351 99.3783 69.0469C99.2665 69.196 99.0801 69.2332 98.8938 69.2332C98.7075 69.2332 98.5212 69.1587 98.4094 69.0469C98.2976 68.8979 98.2231 68.7116 98.2231 68.4507V66.2523H95.3539V68.4507C95.3539 68.7116 95.2794 68.9351 95.1676 69.0469C95.0558 69.196 94.8695 69.2332 94.6832 69.2332C94.4969 69.2332 94.3106 69.1587 94.1988 69.0469C94.087 68.8979 94.0125 68.7116 94.0125 68.4507V63.2713C94.0125 63.0104 94.087 62.7869 94.1988 62.6751C94.3106 62.526 94.4596 62.4888 94.6832 62.4888C94.8695 62.4888 95.0558 62.5633 95.1676 62.6751C95.2794 62.7869 95.3539 63.0104 95.3539 63.2713ZM87.1935 63.6066H84.1753V65.2089H86.9327C87.119 65.2089 87.3053 65.2462 87.3798 65.358C87.4916 65.4325 87.5289 65.5815 87.5289 65.7306C87.5289 65.8796 87.4916 65.9914 87.3798 66.1032C87.268 66.215 87.119 66.2523 86.9327 66.2523H84.1753V68.1154H87.268C87.4916 68.1154 87.6406 68.1526 87.7524 68.2644C87.8642 68.3762 87.9015 68.488 87.9015 68.637C87.9015 68.7861 87.8642 68.9351 87.7524 69.0097C87.6406 69.1214 87.4916 69.1587 87.268 69.1587H83.6536C83.3555 69.1587 83.1692 69.0842 83.0201 68.9724C82.9084 68.8606 82.8338 68.637 82.8338 68.3389V63.3831C82.8338 63.1968 82.8711 63.0477 82.9083 62.8987C82.9829 62.7869 83.0574 62.6751 83.1692 62.6378C83.281 62.6006 83.43 62.5633 83.6163 62.5633H87.1562C87.3798 62.5633 87.5289 62.6006 87.6407 62.7123C87.7524 62.8241 87.7897 62.9359 87.7897 63.085C87.7897 63.234 87.7524 63.3831 87.6407 63.4576C87.5661 63.5694 87.3798 63.6066 87.1935 63.6066ZM78.027 63.2713V65.5815L80.6354 62.8614C80.7471 62.7123 80.8589 62.6378 80.9707 62.5633C81.0452 62.4888 81.1943 62.4515 81.3061 62.4515C81.4924 62.4515 81.6414 62.526 81.7905 62.6378C81.9023 62.7496 81.9768 62.8987 81.9768 63.0477C81.9768 63.234 81.865 63.4203 81.6787 63.6439L80.0764 65.1716L81.9395 67.8545C82.0886 68.0408 82.1631 68.1899 82.2376 68.3389C82.3122 68.488 82.3494 68.5998 82.3494 68.7488C82.3494 68.8979 82.2749 69.0097 82.1631 69.1214C82.0513 69.2332 81.9023 69.2705 81.6787 69.2705C81.4924 69.2705 81.3433 69.2332 81.2316 69.1587C81.1198 69.0842 81.008 68.9724 80.9335 68.8606C80.8589 68.7116 80.7844 68.5998 80.7099 68.488L79.1449 66.0659L78.0643 67.1093V68.488C78.0643 68.7488 77.9897 68.9724 77.878 69.0842C77.7662 69.2332 77.5799 69.2705 77.3936 69.2705C77.2818 69.2705 77.17 69.2332 77.0582 69.196C76.9464 69.1214 76.8719 69.0469 76.7974 68.9351C76.7601 68.8606 76.7228 68.7488 76.7228 68.637C76.7228 68.5252 76.7228 68.3762 76.7228 68.1526V63.2713C76.7228 63.0104 76.7973 62.7869 76.9091 62.6751C77.0209 62.526 77.17 62.4888 77.3936 62.4888C77.5799 62.4888 77.7662 62.5633 77.878 62.6751C77.9897 62.7869 78.027 63.0104 78.027 63.2713ZM72.1768 66.5876H74.1517L73.1457 63.8675L72.1768 66.5876ZM74.8225 68.4135L74.5244 67.5937H71.8415L71.5434 68.4507C71.4316 68.7861 71.3198 69.0097 71.2453 69.1214C71.1708 69.2332 71.0217 69.3078 70.8354 69.3078C70.6863 69.3078 70.5373 69.2332 70.3882 69.1214C70.2765 69.0097 70.2019 68.8606 70.2019 68.7116C70.2019 68.637 70.2019 68.5252 70.2392 68.4507C70.2765 68.3389 70.3137 68.2272 70.3882 68.0408L72.065 63.7557C72.1023 63.6439 72.1768 63.4948 72.2514 63.3085C72.3259 63.1222 72.4004 63.0104 72.4749 62.8614C72.5495 62.7496 72.6613 62.6378 72.773 62.6006C72.8848 62.526 73.0339 62.4888 73.2202 62.4888C73.4065 62.4888 73.5555 62.526 73.6673 62.6006C73.7791 62.6751 73.8909 62.7496 73.9654 62.8614C74.0399 62.9732 74.1145 63.085 74.1517 63.234C74.189 63.3458 74.2635 63.5321 74.338 63.7557L76.0521 68.0036C76.2012 68.3389 76.2384 68.5625 76.2384 68.7116C76.2384 68.8606 76.1639 69.0097 76.0521 69.1214C75.9403 69.2332 75.754 69.3078 75.605 69.3078C75.4932 69.3078 75.4187 69.3078 75.3441 69.2332C75.2696 69.196 75.1951 69.1587 75.1578 69.0842C75.1206 69.0097 75.046 68.9351 75.0088 68.7861C74.9342 68.637 74.8597 68.5252 74.8225 68.4135ZM69.5685 67.072C69.5685 67.2956 69.5312 67.5192 69.4194 67.7427C69.3077 68.0036 69.1586 68.2271 68.935 68.4507C68.7114 68.6743 68.4134 68.8606 68.078 69.0097C67.7426 69.1587 67.3327 69.2332 66.8856 69.2332C66.5502 69.2332 66.2149 69.196 65.954 69.1214C65.6559 69.0469 65.3951 68.9351 65.1715 68.8233C64.948 68.6743 64.7244 68.488 64.5381 68.2644C64.3518 68.0408 64.2027 67.8173 64.0909 67.5564C63.9792 67.2956 63.8674 67.0348 63.8301 66.7367C63.7556 66.4386 63.7556 66.1405 63.7556 65.8051C63.7556 65.2834 63.8301 64.799 63.9792 64.3891C64.1282 63.9793 64.3518 63.6066 64.6499 63.3085C64.948 63.0104 65.2833 62.7869 65.656 62.6378C66.0286 62.4888 66.4385 62.4142 66.8856 62.4142C67.4073 62.4142 67.8917 62.526 68.3016 62.7496C68.7115 62.9732 69.0468 63.234 69.2704 63.5321C69.494 63.8302 69.6058 64.1283 69.6058 64.4264C69.6058 64.5755 69.5685 64.7245 69.4567 64.8363C69.3449 64.9481 69.2331 65.0226 69.0841 65.0226C68.8978 65.0226 68.786 64.9853 68.7114 64.9108C68.6369 64.8363 68.5251 64.6872 68.4134 64.5009C68.227 64.1656 68.0407 63.942 67.8172 63.7557C67.5936 63.6066 67.2955 63.4948 66.9601 63.4948C66.4012 63.4948 65.9913 63.7184 65.656 64.1283C65.3206 64.5382 65.1715 65.1344 65.1715 65.9169C65.1715 66.4386 65.2461 66.8484 65.3951 67.1838C65.5442 67.5192 65.7305 67.78 65.9913 67.9291C66.2521 68.0781 66.5502 68.1899 66.9229 68.1899C67.2955 68.1899 67.6309 68.0781 67.8917 67.8918C68.1525 67.7055 68.3388 67.4074 68.4879 67.0348C68.5624 66.8484 68.5997 66.7367 68.7114 66.6249C68.786 66.5131 68.935 66.4758 69.1213 66.4758C69.2704 66.4758 69.4194 66.5131 69.5312 66.6249C69.5312 66.7739 69.5685 66.923 69.5685 67.072ZM129.151 65.1344H171.891V66.5504H129.151V65.1344ZM18.1094 58.2781H171.891V73.4439H18.1094V66.5876H60.8491V65.1716H18.1094V58.2781Z" fill="white"/>
<path fill-rule="evenodd" clip-rule="evenodd" d="M97.9996 0.111816C97.9996 0.111816 99.1548 0.708011 99.3038 4.09887C99.4901 7.48973 101.614 8.49581 107.501 7.26616C113.389 6.03651 118.084 10.2099 121.028 12.6692C123.971 15.1285 130.269 21.5003 130.641 21.8357C131.014 22.2083 131.387 22.73 131.387 22.73L132.803 21.2395C132.803 21.2395 127.884 16.6562 127.4 15.9855C126.915 15.2775 127.325 14.5696 128.257 15.5011C129.151 16.4699 130.79 18.184 130.79 18.184L132.095 16.7308C132.095 16.7308 122.444 8.57034 121.326 7.67604C120.171 6.78175 114.73 3.20458 108.955 3.01827C108.098 2.98101 106.831 3.05553 105.899 3.2791C103.924 3.72625 102.359 4.47149 101.726 3.72625C101.13 3.05553 101.465 2.27302 101.875 1.9004C102.359 1.41599 102.881 1.75135 102.956 2.01219C102.993 2.12398 102.993 2.1985 102.732 2.23576C102.173 2.27302 101.614 3.53994 102.62 3.68899C103.179 3.76351 103.589 3.35363 103.775 2.83196C104.222 1.45326 103.328 0.782536 102.397 0.670749C101.54 0.558962 100.645 1.1179 100.645 2.04945C100.645 2.04945 100.384 0.931584 99.3783 0.372651C98.335 -0.223544 97.9996 0.111816 97.9996 0.111816Z" fill="white"/>
<path fill-rule="evenodd" clip-rule="evenodd" d="M97.9996 45.9071C97.9996 45.9071 99.1548 45.3109 99.3038 41.92C99.4901 38.5292 101.614 37.5231 107.501 38.7527C113.389 39.9824 118.084 35.809 121.028 33.3497C123.971 30.8904 128.145 24.8167 128.517 24.4813C128.89 24.1087 129.263 23.587 129.263 23.587L130.679 25.0775C130.679 25.0775 128.629 27.7976 128.145 28.5056C127.66 29.2136 128.07 29.9216 129.002 28.99C129.896 28.0212 134.554 23.4752 134.554 23.4752L135.858 24.9284C135.858 24.9284 122.481 37.4858 121.326 38.3428C120.171 39.2371 114.73 42.8143 108.955 43.0006C108.098 43.0379 106.831 42.9634 105.899 42.7398C103.962 42.2926 102.434 41.5474 101.763 42.2554C101.167 42.9261 101.502 43.7086 101.912 44.0812C102.397 44.5656 102.918 44.2303 102.993 43.9694C103.03 43.8576 103.03 43.7831 102.769 43.7459C102.21 43.7086 101.651 42.4417 102.657 42.2926C103.216 42.2181 103.626 42.628 103.813 43.1497C104.26 44.5284 103.365 45.1991 102.434 45.3109C101.577 45.4227 100.683 44.8637 100.683 43.9322C100.683 43.9322 100.422 45.05 99.4156 45.609C98.335 46.2424 97.9996 45.9071 97.9996 45.9071Z" fill="white"/>
<path fill-rule="evenodd" clip-rule="evenodd" d="M138.392 8.68213C138.392 8.68213 137.572 8.08593 136.827 8.75665C136.082 9.42737 135.709 9.72547 134.964 9.46463C134.219 9.2038 133.548 8.6076 133.622 8.64487C133.697 8.68213 133.883 9.79999 133.622 10.6943C133.362 11.5886 131.61 12.2966 130.716 11.0296C129.822 9.76273 129.859 8.6076 130.79 8.98023C131.685 9.35285 131.983 9.87452 131.983 9.87452C131.983 9.87452 132.318 7.8251 131.051 7.71331C129.784 7.60152 129.114 9.16654 129.337 10.2099C129.561 11.2905 130.641 12.93 132.765 12.6319C134.889 12.2966 134.74 11.8867 135.97 11.8867C137.2 11.8867 138.243 13.0791 138.243 13.0791C138.243 13.0791 136.082 12.6319 134.703 13.3026C133.324 13.9734 130.53 13.9734 129.002 12.1103C127.474 10.2471 128.07 8.53308 127.437 7.8251C126.692 6.96807 125.127 7.07985 126.021 8.45855C126.244 8.79391 126.543 8.9057 126.505 8.9057C126.431 8.9057 125.387 9.53916 124.679 8.01141C123.971 6.48366 124.642 5.5521 126.207 5.92472C127.772 6.29735 128.368 8.86844 128.368 8.86844C128.368 8.86844 128.517 6.74449 130.641 6.52092C132.765 6.29735 133.548 8.49582 135.523 7.34069C136.603 6.74449 137.311 7.15438 137.609 7.41521C137.908 7.67605 138.392 8.68213 138.392 8.68213Z" fill="white"/>
<path fill-rule="evenodd" clip-rule="evenodd" d="M140.59 35.2128C140.59 35.2128 139.771 35.809 139.025 35.1383C138.28 34.4676 137.907 34.1695 137.162 34.4303C136.417 34.6912 135.746 35.2874 135.821 35.2501C135.895 35.2128 136.082 34.095 135.821 33.2007C135.56 32.3064 133.809 31.5984 132.914 32.8653C132.02 34.1322 132.057 35.2874 132.989 34.9147C133.883 34.5421 134.181 34.0204 134.181 34.0204C134.181 34.0204 134.517 36.0699 133.25 36.1816C131.983 36.2934 131.312 34.7284 131.536 33.6851C131.759 32.6045 132.84 30.9649 134.964 31.263C137.088 31.5984 136.939 32.0083 138.168 32.0083C139.398 32.0083 140.441 30.8159 140.441 30.8159C140.441 30.8159 138.28 31.263 136.901 30.5923C135.523 29.9216 132.728 29.9216 131.2 31.7847C129.672 33.6478 130.269 35.3619 129.635 36.0699C128.89 36.9269 127.325 36.8151 128.219 35.4364C128.443 35.101 128.741 34.9893 128.704 34.9893C128.629 34.9893 127.586 34.3558 126.878 35.8835C126.17 37.4113 126.841 38.3429 128.406 37.9702C129.971 37.5976 130.567 35.0265 130.567 35.0265C130.567 35.0265 130.716 37.1505 132.84 37.374C134.964 37.5976 135.746 35.3991 137.721 36.5543C138.802 37.1505 139.51 36.7406 139.808 36.4797C140.106 36.2189 140.59 35.2128 140.59 35.2128Z" fill="white"/>
<path fill-rule="evenodd" clip-rule="evenodd" d="M182.063 21.0532L183.628 23.1026L182.361 25.152L180.796 23.1026L182.063 21.0532ZM111.75 45.758L111.601 44.342C111.601 44.342 116.519 44.342 118.68 42.9261C120.842 41.5101 121.214 41.0257 121.214 41.0257L138.541 41.2865C138.541 41.2865 140.665 41.8082 141.671 39.7961C142.677 37.7839 144.503 36.3679 145.844 37.5603C147.149 38.7155 146.739 40.9139 146.031 41.5846C145.323 42.2554 143.87 41.771 143.758 40.7276C143.534 38.9763 145.174 38.9763 144.987 40.6904C144.987 40.6904 145.807 39.9824 145.397 39.2371C144.987 38.4919 143.087 38.1565 142.975 40.2432C142.901 42.3299 144.578 42.8888 145.77 42.5535C146.962 42.2181 147.037 40.9512 147.037 40.9512C147.037 40.9512 149.571 43.336 152.85 41.0257C156.129 38.7155 156.725 37.0014 157.247 35.2873C157.768 33.5733 157.396 32.6045 157.396 32.6045C161.122 35.5482 165.519 29.3999 167.568 27.2014C169.208 25.4501 170.773 24.2577 171.481 23.8106C172.189 23.3634 172.487 23.1771 172.599 23.1026C172.487 23.0281 172.152 22.8418 171.369 22.3946C170.587 21.9475 168.873 20.7551 167.009 19.0037C164.662 16.8053 159.408 10.657 156.092 13.6007C156.092 13.6007 156.315 12.5946 155.57 10.9178C154.825 9.20379 154.005 7.48972 150.39 5.17947C146.776 2.86921 144.578 5.25399 144.578 5.25399C144.578 5.25399 144.354 3.98708 143.087 3.65172C141.857 3.31636 140.218 3.87529 140.591 5.96197C140.963 8.04866 142.826 7.7133 143.124 6.96805C143.422 6.22281 142.528 5.51483 142.528 5.51483C142.975 7.22889 141.299 7.26615 141.299 5.47757C141.299 4.47149 142.64 3.98708 143.46 4.62053C144.279 5.29125 145.025 7.45246 143.87 8.64485C142.714 9.79998 140.702 8.42128 139.398 6.40912C138.131 4.39696 136.082 4.91863 136.082 4.91863L118.792 5.17947C118.792 5.17947 118.382 4.69506 115.997 3.27909C113.538 1.86313 108.62 1.86313 108.62 1.86313L108.582 0.447167L120.469 0.521691C120.469 0.521691 120.469 0.521691 129.971 0.372642C133.511 0.33538 135.858 0.0745447 137.349 0.67074C139.361 1.49051 140.404 2.60837 140.404 2.60837C140.404 2.60837 140.889 2.27302 142.044 1.45325C142.975 0.782527 144.801 -0.149029 148.378 0.596216C156.315 2.19849 157.955 9.53915 157.955 9.53915C157.955 9.53915 159.557 9.05474 161.346 10.0236C166.711 12.93 169.543 18.5939 175.207 20.9041C175.207 20.9041 177.815 21.165 177.815 20.1961C177.778 19.2273 176.176 19.5254 176.176 19.5254C176.176 19.5254 175.692 18.2585 177.592 17.5133C179.492 16.768 179.753 19.3018 179.753 19.3018C179.753 19.3018 180.2 19.2646 180.088 18.0722C179.977 16.8798 179.79 15.3893 182.361 15.6501C184.933 15.911 184.262 20.1961 184.038 20.6433C183.815 21.0904 184.038 21.165 184.858 20.5688C185.678 20.0098 187.578 18.5193 188.957 19.5999C190.112 20.5315 190.485 25.6737 189.441 26.6425C188.212 27.7231 186.088 26.2699 185.193 25.6737C184.299 25.1147 184.076 25.1893 184.374 25.5992C184.672 26.0463 185.939 30.3315 183.405 30.5923C180.871 30.8531 180.834 29.3254 180.796 28.1702C180.759 26.9779 180.312 26.9406 180.312 26.9406C180.312 26.9406 180.387 29.4744 178.374 28.7292C176.362 27.9839 176.66 26.717 176.66 26.717C176.66 26.717 178.3 27.0151 178.225 26.0463C178.114 25.0775 175.542 25.3383 175.542 25.3383C170.214 27.6486 168.165 33.3124 163.209 36.2189C161.569 37.1877 159.892 36.7033 159.892 36.7033C159.892 36.7033 159.259 44.0067 151.546 45.6462C148.08 46.3915 146.105 45.4599 145.099 44.7892C143.832 43.9694 143.311 43.6341 143.311 43.6341C143.311 43.6341 142.416 44.7519 140.553 45.5344C139.137 46.1306 136.753 45.9071 133.213 45.8325C123.673 45.6835 123.673 45.6835 123.673 45.6835L111.75 45.758Z" fill="white"/>
<path fill-rule="evenodd" clip-rule="evenodd" d="M132.318 19.898L133.958 21.3513C133.958 21.3513 136.38 18.7802 138.616 17.9604C140.814 17.1779 141.932 16.9916 141.932 16.9916L142.491 14.1969C142.491 14.1969 140.106 14.2342 136.752 16.0973C133.399 17.9977 132.318 19.898 132.318 19.898Z" fill="white"/>
<path fill-rule="evenodd" clip-rule="evenodd" d="M136.641 20.1961L134.889 21.6866C134.889 21.6866 135.97 22.8418 138.466 23.9224C140.963 25.003 142.677 25.0775 142.677 25.0775L142.267 22.3946C142.267 22.3946 140.628 22.4691 139.137 21.7239C136.976 20.6805 136.641 20.1961 136.641 20.1961Z" fill="white"/>
<path fill-rule="evenodd" clip-rule="evenodd" d="M137.87 20.2334L140.628 21.7239C140.628 21.7239 141.634 21.0532 143.571 21.165C145.509 21.2768 146.142 21.6866 146.142 21.6866L148.266 20.1216C148.266 20.1216 146.291 18.892 143.236 18.892C140.218 18.8547 137.87 20.2334 137.87 20.2334Z" fill="white"/>
<path fill-rule="evenodd" clip-rule="evenodd" d="M142.603 18.0349L144.801 18.2213C144.801 18.2213 145.099 12.4456 148.266 11.4395C151.434 10.4335 151.508 14.4578 151.508 15.5011C151.508 16.5445 151.434 16.9171 151.434 16.9171L152.999 18.2213C152.999 18.2213 154.377 12.5201 151.844 9.98631C149.571 7.71331 146.552 8.71939 144.727 10.9551C143.46 12.4829 143.012 14.7186 142.752 16.4699C142.677 17.327 142.565 18.0349 142.603 18.0349Z" fill="white"/>
<path fill-rule="evenodd" clip-rule="evenodd" d="M154.34 20.1589L153.52 21.2768C153.52 21.2768 151.024 18.9293 148.602 17.8859C146.18 16.8426 145.807 16.9171 145.807 16.9171L146.403 14.7559C146.403 14.7559 147.186 14.9795 150.092 16.619C152.961 18.2958 154.34 20.1589 154.34 20.1589Z" fill="white"/>
<path fill-rule="evenodd" clip-rule="evenodd" d="M149.943 19.5255L151.657 20.7551C151.657 20.7551 150.763 22.2829 148.714 23.5498C146.664 24.8167 146.329 24.7794 146.329 24.7794L145.621 22.2829C145.621 22.2829 146.962 22.022 148.229 21.1277C149.533 20.2707 149.943 19.5255 149.943 19.5255Z" fill="white"/>
<path fill-rule="evenodd" clip-rule="evenodd" d="M142.901 22.0965L144.913 21.9847C144.913 21.9847 145.434 24.6676 145.807 25.5619C146.18 26.4562 146.18 26.4562 146.18 26.4562L143.795 26.4189C143.795 26.4189 143.311 25.0402 143.124 23.8106C142.938 22.5809 142.901 22.0965 142.901 22.0965Z" fill="white"/>
<path fill-rule="evenodd" clip-rule="evenodd" d="M137.013 24.6676L135.299 26.0836C135.299 26.0836 139.025 29.1764 143.124 29.6235C144.428 29.7726 145.993 29.7353 147.223 29.3999C149.831 28.7292 151.695 26.9034 151.695 26.9034L150.502 25.1148C150.502 25.1148 149.012 27.0524 145.136 27.2387C141.261 27.4996 137.013 24.6676 137.013 24.6676Z" fill="white"/>
<path fill-rule="evenodd" clip-rule="evenodd" d="M150.241 23.9596L151.732 22.6182C155.793 26.3816 157.731 37.4113 151.098 35.9953C147.633 35.2501 145.099 30.555 145.099 30.555L147.707 30.2942C147.707 30.2942 149.384 33.1261 151.434 33.4615C153.483 33.7968 153.744 31.0767 153.26 28.8782C152.812 26.6425 150.241 23.9596 150.241 23.9596Z" fill="white"/>
<path fill-rule="evenodd" clip-rule="evenodd" d="M152.924 23.0654L154.042 24.7422C154.042 24.7422 157.06 20.7551 158.886 20.5688C160.712 20.3825 162.351 21.8357 162.351 21.8357C162.351 21.8357 161.532 23.3262 159.855 23.3262C158.178 23.3635 157.433 22.4692 157.209 22.2829L156.129 23.5125C156.129 23.5125 159.11 25.003 159.519 26.2699C159.929 27.5368 159.743 28.5056 158.849 28.2821C157.954 28.0585 157.619 27.4623 158.104 27.2387C158.625 27.0152 159.035 27.276 159.035 27.276C159.035 27.276 158.812 25.3756 157.284 25.9345C155.756 26.4935 157.284 29.2881 158.849 30.0334C160.414 30.7786 161.606 29.549 162.128 28.5429C162.65 27.5368 163.991 27.2015 163.991 27.2015C163.991 27.2015 164.065 26.4562 162.948 26.1209C161.83 25.7855 161.383 25.8973 161.383 25.8973C161.383 25.8973 163.842 25.3011 164.326 24.0714C164.811 22.8418 166.003 22.0593 166.003 22.0593C166.003 22.0593 164.923 21.7239 164.252 20.5688C163.581 19.4137 162.799 18.6312 162.016 18.4821C161.234 18.3331 160.488 17.9604 160.488 17.9604C160.488 17.9604 161.569 18.3703 162.351 17.5878C163.134 16.8053 162.948 16.619 162.948 16.619C160.302 17.2152 160.451 14.7931 158.588 14.0852C156.352 13.2281 155.085 15.762 155.607 16.9916C155.868 17.6251 156.352 17.8114 156.613 17.8859C156.948 17.9977 157.396 17.8114 157.545 17.5133C157.694 17.2525 157.619 16.9171 157.619 16.9171C157.619 16.9171 156.65 17.1407 156.576 16.6563C156.464 15.762 157.47 15.5384 158.066 15.911C158.737 16.3209 158.923 17.4015 157.396 18.5939C156.427 19.3764 153.818 21.9102 153.371 22.4692C152.924 23.0654 152.924 23.0654 152.924 23.0654Z" fill="white"/>
<path fill-rule="evenodd" clip-rule="evenodd" d="M100.683 26.7543C100.347 27.0151 99.9745 27.2387 99.6019 27.425C99.192 27.6859 98.7076 27.8722 98.2605 28.0585C97.7761 28.2448 97.2917 28.3566 96.77 28.3566C96.3974 28.3566 95.9875 28.3193 95.6894 28.0958C95.4285 27.9094 95.3168 27.6113 95.3168 27.3132C95.3168 27.0524 95.3913 26.7916 95.5403 26.5307C95.6894 26.2699 95.8384 26.0463 96.0247 25.8228C96.3601 25.3756 96.7327 24.9657 97.1426 24.5558C97.5525 24.146 97.9624 23.7361 98.4095 23.3635C98.484 23.2889 98.5958 23.2144 98.6703 23.1399C98.5586 23.2144 98.4095 23.2889 98.2977 23.3635C98.0369 23.5125 97.8133 23.6615 97.5525 23.8479C97.2544 24.0342 96.9563 24.2577 96.6582 24.4813C96.3974 24.6676 96.1738 24.8167 95.9502 25.003C95.8757 25.0775 95.8012 25.1148 95.7266 25.1893C95.6521 25.2266 95.6148 25.2638 95.5403 25.3011C95.4285 25.3756 95.3167 25.3756 95.205 25.3383C95.1677 25.3383 95.1677 25.3011 95.1304 25.2638C95.0932 25.1893 95.1304 25.0775 95.205 25.003C95.2422 24.9285 95.3167 24.8539 95.3913 24.8167C95.5031 24.7422 95.5776 24.6304 95.6894 24.5558C95.9502 24.3323 96.211 24.146 96.5091 23.9596C96.8818 23.6615 97.2917 23.4007 97.7015 23.1399C98.0742 22.879 98.484 22.6182 98.8939 22.3946C99.2293 22.2083 99.5646 22.022 99.9 21.873C100.161 21.7612 100.459 21.6494 100.72 21.6121C100.981 21.5749 101.241 21.5376 101.54 21.5376C101.726 21.5376 101.912 21.5376 102.098 21.5376C102.21 21.5376 102.359 21.5749 102.397 21.6494C102.546 21.8357 102.21 22.1338 102.098 22.2456C101.689 22.6182 101.316 22.9908 100.943 23.4007C100.533 23.8106 100.124 24.2577 99.7137 24.7049C99.3783 25.0775 99.043 25.4129 98.7449 25.7855C98.6331 25.9345 98.5213 26.0836 98.4095 26.2326C98.335 26.3444 98.2232 26.4562 98.1487 26.568C98.0742 26.7171 97.9624 26.9034 97.9251 27.0524C97.9251 27.1269 97.9251 27.2387 97.9996 27.276C98.1114 27.3505 98.2605 27.3505 98.3723 27.3132C98.5586 27.276 98.7821 27.2015 98.9684 27.1269C99.1175 27.0897 99.2293 27.0151 99.3411 26.9406C99.4901 26.8661 99.6392 26.7543 99.8255 26.6798C100.198 26.4562 100.571 26.2326 100.906 25.9718C101.167 25.7855 101.428 25.5992 101.689 25.4129C101.912 25.2638 102.098 25.1148 102.322 24.9657C102.471 24.8539 102.62 24.7049 102.769 24.5931C102.844 24.5558 102.881 24.4813 102.955 24.4441C103.216 24.2577 103.477 24.0342 103.738 23.8479C104.073 23.587 104.371 23.3262 104.707 23.0654C105.005 22.8418 105.303 22.5809 105.601 22.3201C105.787 22.1338 106.011 21.9847 106.197 21.7984C106.048 21.6867 105.936 21.5003 105.936 21.2768C105.936 20.9787 106.086 20.7178 106.272 20.5315C106.495 20.3079 106.756 20.1589 107.017 20.0471C107.352 19.9353 107.688 19.8608 108.023 19.8608C108.209 19.8608 108.396 19.8981 108.582 19.9726C108.731 20.0471 108.88 20.1589 108.917 20.308V20.3825L108.843 20.4197C108.694 20.4943 108.582 20.5688 108.47 20.6806C108.359 20.7551 108.247 20.8669 108.098 20.9414C107.986 21.0532 107.874 21.165 107.8 21.2768C107.762 21.314 107.725 21.3886 107.762 21.4631C107.8 21.6121 108.06 21.6121 108.172 21.6121C108.582 21.6121 108.992 21.6494 109.402 21.6494C109.737 21.6867 110.073 21.7239 110.371 21.8357C110.632 21.9475 110.818 22.1338 110.818 22.3946V22.4319C110.818 22.6555 110.632 22.9163 110.482 23.0654C110.259 23.3262 109.961 23.587 109.7 23.8479C109.365 24.146 109.067 24.4441 108.731 24.7794C108.396 25.1148 108.098 25.4501 107.762 25.8228C107.651 25.9718 107.539 26.0836 107.427 26.2326C107.352 26.3444 107.278 26.4562 107.203 26.568C107.129 26.6798 107.054 26.8288 107.054 26.9779C107.054 27.0524 107.054 27.1269 107.129 27.1642C107.203 27.2015 107.352 27.2015 107.427 27.2015C107.613 27.1642 107.837 27.0897 108.023 27.0151C108.321 26.8661 108.657 26.717 108.955 26.5307C109.327 26.3072 109.7 26.0836 110.035 25.86C110.445 25.5992 110.818 25.3011 111.228 25.0402C111.489 24.8539 111.787 24.6304 112.047 24.4441C112.085 24.4068 112.122 24.4068 112.122 24.3695C112.197 24.3323 112.234 24.2577 112.308 24.2205C112.495 24.0714 112.681 23.9224 112.905 23.7733C113.24 23.5125 113.538 23.2517 113.873 22.9908C114.171 22.7673 114.47 22.5064 114.768 22.2456C114.954 22.0593 115.178 21.9102 115.364 21.7239C115.215 21.6121 115.103 21.4258 115.103 21.2022C115.103 20.9041 115.252 20.6433 115.438 20.457C115.662 20.2334 115.923 20.0844 116.184 19.9726C116.519 19.8608 116.854 19.7863 117.19 19.7863C117.376 19.7863 117.562 19.8235 117.749 19.8981C117.898 19.9726 118.047 20.0844 118.084 20.2334V20.308L118.009 20.3452C117.86 20.4197 117.749 20.4943 117.637 20.606C117.525 20.6806 117.413 20.7924 117.264 20.8669C117.152 20.9787 117.041 21.0905 116.966 21.2022C116.929 21.2395 116.892 21.314 116.929 21.3886C116.966 21.5376 117.227 21.5376 117.339 21.5376C117.749 21.5376 118.158 21.5749 118.568 21.5749C118.904 21.6121 119.239 21.6494 119.537 21.7612C119.798 21.873 119.984 22.0593 119.984 22.3201V22.3574C119.984 22.5809 119.798 22.8418 119.649 22.9908C119.425 23.2517 119.127 23.5125 118.866 23.7733C118.531 24.0714 118.233 24.3695 117.898 24.7049C117.562 25.0403 117.264 25.3756 116.929 25.7482C116.817 25.8973 116.705 26.0091 116.593 26.1581C116.519 26.2699 116.444 26.3817 116.37 26.4935C116.295 26.6053 116.221 26.7543 116.221 26.9034C116.221 26.9779 116.221 27.0524 116.295 27.0897C116.37 27.1269 116.519 27.1269 116.593 27.1269C116.78 27.0897 117.003 27.0151 117.19 26.9406C117.488 26.7916 117.823 26.6425 118.121 26.4562C118.494 26.2326 118.866 26.0091 119.202 25.7855C119.612 25.5247 119.984 25.2266 120.394 24.9657C120.692 24.7422 120.99 24.5186 121.289 24.295C121.4 24.1832 121.587 24.0714 121.736 23.9969C121.847 23.9596 121.996 23.8851 122.071 23.9969C122.108 24.0342 122.108 24.0342 122.108 24.0714C122.146 24.1832 122.071 24.295 121.996 24.3695C121.847 24.5186 121.698 24.6304 121.549 24.7794C121.214 25.0775 120.841 25.3383 120.506 25.5992C120.022 25.9718 119.5 26.3072 119.016 26.6425C118.643 26.8661 118.27 27.0897 117.898 27.3132C117.451 27.5741 116.966 27.7604 116.482 27.9467C115.997 28.133 115.476 28.2075 114.991 28.2448C114.619 28.2448 114.171 28.2075 113.873 27.9467C113.612 27.7604 113.463 27.4996 113.501 27.1642C113.538 26.8288 113.687 26.4935 113.873 26.2326C114.097 25.8973 114.395 25.5619 114.693 25.2638C114.991 24.9657 115.327 24.6676 115.699 24.3695C115.997 24.146 116.295 23.9224 116.593 23.6988C116.892 23.4752 117.19 23.2517 117.525 23.0654C117.786 22.879 118.009 22.73 118.27 22.5437C118.345 22.4692 118.568 22.3201 118.606 22.2456C118.643 22.1711 118.606 22.1338 118.531 22.0965C118.345 22.0593 118.084 22.0593 117.898 22.0593C117.562 22.0593 117.227 22.0593 116.892 22.0965C116.705 22.0965 116.482 22.0965 116.295 22.0965C116.146 22.0965 116.035 22.0965 115.885 22.0593C115.662 22.2828 115.438 22.4692 115.215 22.6555C114.879 22.9536 114.581 23.2144 114.246 23.4752C113.911 23.7361 113.575 23.9969 113.24 24.2577C112.979 24.4441 112.718 24.6676 112.457 24.8539C112.42 24.8912 112.42 24.8912 112.383 24.8912C112.047 25.1893 111.675 25.4501 111.339 25.711C110.855 26.0836 110.333 26.419 109.849 26.7543C109.476 26.9779 109.104 27.2015 108.731 27.425C108.284 27.6859 107.8 27.8722 107.315 28.0585C106.831 28.2448 106.309 28.3193 105.825 28.3566C105.452 28.3566 105.005 28.3193 104.707 28.0585C104.446 27.8722 104.297 27.6113 104.334 27.276C104.371 26.9406 104.521 26.6053 104.707 26.3444C104.93 26.0091 105.229 25.6737 105.527 25.3756C105.825 25.0775 106.16 24.7794 106.533 24.4813C106.831 24.2577 107.129 24.0342 107.427 23.8106C107.725 23.587 108.023 23.3635 108.359 23.1771C108.619 22.9908 108.843 22.8418 109.104 22.6555C109.178 22.5809 109.402 22.4319 109.439 22.3574C109.476 22.2828 109.439 22.2456 109.365 22.2083C109.178 22.1711 108.917 22.1711 108.731 22.1711C108.396 22.1711 108.06 22.1711 107.725 22.2083C107.539 22.2083 107.315 22.2083 107.129 22.2083C106.98 22.2083 106.868 22.2083 106.719 22.1711C106.495 22.3946 106.272 22.5809 106.048 22.7673C105.713 23.0654 105.415 23.3262 105.079 23.587C104.744 23.8479 104.409 24.1087 104.073 24.3695C103.813 24.5931 103.552 24.7794 103.291 25.003C103.067 25.1893 102.844 25.3383 102.62 25.5247C102.322 25.7482 102.024 25.9718 101.726 26.2326C101.316 26.3072 101.018 26.5307 100.683 26.7543ZM98.6331 16.2836C98.6704 16.2836 98.7449 16.2464 98.7821 16.2464C98.9312 16.2091 99.043 16.1718 99.192 16.0973C99.8255 15.8737 100.422 15.6129 101.018 15.3148C101.577 15.054 102.136 14.7559 102.657 14.4205C103.067 14.1597 103.514 13.8243 103.85 13.4517C104.073 13.1909 104.297 12.8928 104.371 12.5201C104.409 12.2966 104.334 12.1475 104.148 12.0357C103.924 11.924 103.663 11.924 103.44 11.924C103.105 11.9612 102.769 12.1103 102.471 12.2593C102.098 12.4456 101.763 12.7065 101.428 13.0046C101.092 13.2654 100.794 13.6008 100.533 13.8988C100.161 14.3087 99.8255 14.7186 99.4901 15.1285C99.192 15.5384 98.8939 15.911 98.6331 16.2836ZM87.827 20.8296C87.3799 21.0159 86.9328 21.2022 86.4856 21.3886C85.9639 21.5749 85.4423 21.7984 84.9206 22.022C84.0636 22.3946 83.2065 22.7673 82.3868 23.1771C81.4552 23.6243 80.5237 24.1087 79.6294 24.5931C80.0765 24.7794 80.5237 24.8912 80.9708 25.003C81.4179 25.0775 81.9024 25.152 82.3868 25.152C83.0202 25.152 83.6537 25.0403 84.2871 24.8912C84.9206 24.7422 85.5168 24.4813 86.0385 24.1832C86.5601 23.8851 87.0073 23.5498 87.3799 23.0654C87.7153 22.6555 87.9016 22.1711 87.9388 21.6494C87.9388 21.3513 87.9016 21.0532 87.827 20.8296ZM88.4978 23.2889C88.0506 23.8106 87.4917 24.2577 86.8955 24.5558C86.2248 24.9285 85.5168 25.1893 84.7715 25.3383C84.0263 25.5247 83.2811 25.6364 82.4985 25.6364C81.9024 25.6364 81.3434 25.5992 80.7472 25.4874C80.151 25.3756 79.5921 25.1893 79.0704 24.9285C78.6233 25.1893 78.1761 25.4501 77.7663 25.711C77.3191 25.9718 76.872 26.2326 76.4248 26.5307C76.164 26.6798 75.9404 26.8661 75.6796 27.0151C75.456 27.1642 75.2697 27.3132 75.0461 27.4623C75.605 27.8722 76.2385 28.1703 76.9465 28.3938C77.729 28.6174 78.5488 28.7665 79.3685 28.8037C80.1883 28.841 81.0081 28.8783 81.8278 28.8037C83.3183 28.6919 84.8088 28.3193 86.1502 27.6486C87.5289 26.9779 88.7586 26.0463 89.8392 24.9657C91.1061 23.6988 92.1867 22.2456 93.1555 20.7551C93.4909 20.2707 93.789 19.7863 94.1244 19.3019C94.3852 18.892 94.6833 18.5194 94.9441 18.1467C93.9753 18.4821 92.9692 18.8547 92.0004 19.2273C90.9571 19.6 89.9137 20.0471 88.9077 20.457C88.9822 20.606 89.0194 20.7924 89.094 20.9414C89.1312 21.165 89.1685 21.3513 89.1685 21.5749C89.1312 22.2083 88.9076 22.8045 88.4978 23.2889ZM102.732 18.9665C102.732 18.7057 102.769 18.4448 102.881 18.184C103.03 17.8859 103.291 17.6623 103.626 17.5505C103.999 17.4388 104.371 17.4015 104.781 17.4015H104.819C105.079 17.4015 105.34 17.476 105.489 17.7369V17.7741C105.564 18.035 105.378 18.3331 105.191 18.5194C105.005 18.7429 104.744 18.9292 104.483 19.0783C104.222 19.2273 103.962 19.3391 103.663 19.4509C103.477 19.5254 103.216 19.6 102.993 19.6H102.955L102.918 19.5627C102.806 19.4137 102.732 19.1901 102.732 18.9665ZM81.1571 18.035C81.8278 17.9604 82.4613 17.9604 83.132 17.9977C83.84 18.035 84.548 18.1095 85.2187 18.2585C85.8894 18.3703 86.5229 18.5939 87.1191 18.8547C87.6407 19.0783 88.0879 19.4137 88.4605 19.8235C89.6156 19.4137 90.7708 18.9665 91.9259 18.5566C93.081 18.1467 94.1989 17.7369 95.354 17.327C96.1365 16.3209 96.9563 15.3893 97.8506 14.495C98.6704 13.7125 99.5646 13.0046 100.533 12.4084C100.981 12.1475 101.465 11.924 101.987 11.7376C102.434 11.5886 102.881 11.4768 103.365 11.4395C103.626 11.4395 103.887 11.4395 104.111 11.4768C104.371 11.5141 104.558 11.6259 104.744 11.8122C104.93 11.9985 105.005 12.2593 104.968 12.5201C104.893 13.0791 104.483 13.5635 104.111 13.9361C103.514 14.495 102.806 14.9795 102.098 15.3521C101.204 15.8365 100.273 16.2464 99.3411 16.619C99.1548 16.6935 98.9312 16.768 98.7449 16.8426C98.5586 16.9171 98.335 16.9916 98.1487 17.0661C97.7388 17.6996 97.3662 18.3331 96.9935 19.0038C96.6209 19.6 96.2856 20.2334 95.9129 20.8296C94.8696 22.5809 93.5282 24.1832 91.9259 25.4874C90.4354 26.6798 88.7959 27.5741 87.0073 28.2075C85.1814 28.841 83.3183 29.1764 81.4179 29.3254C80.5609 29.3999 79.7411 29.3627 78.8841 29.3254C78.0271 29.2881 77.1701 29.1764 76.313 28.99C75.5305 28.8037 74.7853 28.5429 74.0773 28.1703C73.332 28.7292 72.6241 29.3627 71.9161 29.9961C71.618 30.257 71.3572 30.5551 71.0963 30.8532C70.91 31.114 70.7237 31.3748 70.5374 31.6357C70.5001 31.7474 70.4256 31.822 70.3511 31.9338C70.2765 32.0083 70.202 32.0828 70.0902 32.0455C69.9785 31.971 69.9412 31.8592 69.9785 31.7474C69.9785 31.6729 70.0157 31.5611 70.053 31.4866C70.3138 30.8159 70.7982 30.1824 71.2826 29.6235C71.9161 28.9155 72.5868 28.2821 73.332 27.6859C73.034 27.4623 72.7731 27.1642 72.5123 26.8661C72.2514 26.4935 72.0279 26.0836 71.8788 25.6364C71.7298 25.152 71.6552 24.6304 71.6925 24.146C71.767 23.4007 72.0279 22.6927 72.475 22.0593C72.9594 21.4258 73.5184 20.8669 74.1891 20.4197C74.8971 19.9353 75.6423 19.5254 76.4621 19.2273C77.2446 18.892 78.0643 18.6312 78.8841 18.4448C79.6666 18.2213 80.4119 18.1095 81.1571 18.035ZM78.8096 24.0714C79.7784 23.587 80.7472 23.1026 81.7533 22.6555C82.7594 22.2083 83.7655 21.7612 84.7715 21.3886C85.7404 21.0159 86.6719 20.6433 87.6407 20.2707C87.3799 19.8981 87.0073 19.6 86.5601 19.3764C86.0385 19.1156 85.4795 18.9292 84.8833 18.7802C84.2499 18.6684 83.6164 18.5566 82.983 18.5566C82.3868 18.5194 81.7906 18.5566 81.1944 18.5939C80.5237 18.6312 79.8529 18.7429 79.2195 18.892C78.5488 19.0783 77.878 19.3019 77.2073 19.5627C76.5739 19.8608 75.9777 20.1962 75.4187 20.6433C74.8971 21.0532 74.4499 21.5376 74.1146 22.0965C73.7792 22.6555 73.5556 23.2889 73.5184 23.9596C73.4811 24.5186 73.5556 25.1148 73.7419 25.6737C73.891 26.1209 74.1146 26.4935 74.4499 26.8288C74.6362 26.6798 74.8225 26.5307 75.0461 26.3817C75.3069 26.1954 75.5305 26.0463 75.7914 25.86C76.2012 25.5992 76.6111 25.3383 77.021 25.1148C77.4309 24.8539 77.8408 24.6304 78.2879 24.4068C78.0644 24.2577 77.9153 24.0342 77.7663 23.8106C77.5799 23.5498 77.4682 23.2889 77.4309 22.9908C77.3936 22.879 77.3936 22.8045 77.4309 22.6927C77.4682 22.5809 77.5427 22.5064 77.6545 22.5064C77.7662 22.5064 77.8035 22.5809 77.8408 22.6555C77.8408 22.73 77.878 22.8045 77.878 22.8418C77.9526 23.1026 78.1016 23.3262 78.2879 23.5125C78.3997 23.7361 78.586 23.9224 78.8096 24.0714Z" fill="white"/>
<path fill-rule="evenodd" clip-rule="evenodd" d="M92.0004 0.111801C92.0004 0.111801 90.8453 0.707996 90.6962 4.09886C90.5099 7.48972 88.386 8.4958 82.4985 7.26615C76.6111 6.03649 71.9161 10.2099 68.9724 12.6692C66.0287 15.1285 59.7313 21.5003 59.3587 21.8357C58.9861 22.2083 58.6135 22.73 58.6135 22.73L57.1975 21.2395C57.1975 21.2395 62.1161 16.6562 62.6005 15.9855C63.0849 15.2775 62.6751 14.5695 61.7435 15.5011C60.8492 16.4699 59.2097 18.184 59.2097 18.184L57.9055 16.7307C57.9055 16.7307 67.5564 8.57032 68.6743 7.67603C69.8294 6.78174 75.2697 3.20456 81.0453 3.01825C81.9024 2.98099 83.1693 3.05552 84.1008 3.27909C86.0385 3.72624 87.5662 4.47148 88.2369 3.7635C88.8331 3.09278 88.4978 2.31027 88.0879 1.93765C87.6035 1.45324 87.0818 1.7886 87.0073 2.04944C86.97 2.16122 86.97 2.23575 87.2309 2.27301C87.7898 2.31027 88.3487 3.57719 87.3426 3.72624C86.7837 3.80076 86.3738 3.39088 86.1875 2.8692C85.7404 1.4905 86.6347 0.819783 87.5662 0.707996C88.4232 0.59621 89.3175 1.15514 89.3175 2.0867C89.3175 2.0867 89.5784 0.968832 90.5845 0.409899C91.6278 -0.223559 92.0004 0.111801 92.0004 0.111801Z" fill="white"/>
<path fill-rule="evenodd" clip-rule="evenodd" d="M92.0005 45.9071C92.0005 45.9071 90.8454 45.3109 90.6963 41.92C90.51 38.5292 88.3861 37.5231 82.4986 38.7527C76.6112 39.9824 71.9162 35.809 68.9725 33.3497C66.0287 30.8904 61.8554 24.8167 61.4827 24.4813C61.1101 24.1087 60.7375 23.587 60.7375 23.587L59.3215 25.0775C59.3215 25.0775 61.371 27.7976 61.8554 28.5056C62.3398 29.2136 61.9299 29.9216 60.9983 28.99C60.104 28.0212 55.4463 23.4752 55.4463 23.4752L54.1421 24.9284C54.1421 24.9284 67.5192 37.4858 68.6744 38.3428C69.8295 39.2371 75.2698 42.8143 81.0454 43.0006C81.9024 43.0379 83.1693 42.9634 84.1009 42.7398C86.0385 42.2926 87.5663 41.5474 88.237 42.2554C88.8332 42.9261 88.4978 43.7086 88.088 44.0812C87.6035 44.5656 87.0819 44.2303 87.0074 43.9694C86.9701 43.8577 86.9701 43.7831 87.2309 43.7459C87.7899 43.7086 88.3488 42.4417 87.3427 42.2926C86.7838 42.2181 86.3739 42.628 86.1876 43.1497C85.7404 44.5284 86.6347 45.1991 87.5663 45.3109C88.4233 45.4227 89.3176 44.8637 89.3176 43.9322C89.3176 43.9322 89.5785 45.05 90.5845 45.609C91.5906 46.1679 92.0005 45.9071 92.0005 45.9071Z" fill="white"/>
<path fill-rule="evenodd" clip-rule="evenodd" d="M51.6083 8.68213C51.6083 8.68213 52.428 8.08593 53.1733 8.75665C53.9185 9.42737 54.2912 9.72547 55.0364 9.46463C55.7816 9.2038 56.4524 8.6076 56.3778 8.64487C56.3033 8.68213 56.117 9.79999 56.3778 10.6943C56.6387 11.5886 58.39 12.2966 59.2843 11.0296C60.1786 9.76273 60.1413 8.6076 59.2098 8.98023C58.3155 9.35285 58.0174 9.87452 58.0174 9.87452C58.0174 9.87452 57.682 7.8251 58.9489 7.71331C60.2158 7.60152 60.8866 9.16654 60.663 10.2099C60.4394 11.2905 59.3588 12.93 57.2349 12.6319C55.1109 12.2966 55.26 11.8867 54.0303 11.8867C52.8007 11.8867 51.7573 13.0791 51.7573 13.0791C51.7573 13.0791 53.9185 12.6319 55.2972 13.3026C56.6759 13.9734 59.4706 13.9734 60.9984 12.1103C62.5261 10.2471 61.9299 8.53308 62.5634 7.8251C63.3086 6.96807 64.8736 7.07985 63.9793 8.45855C63.7558 8.79391 63.4577 8.9057 63.4949 8.9057C63.5694 8.9057 64.6128 9.53916 65.3208 8.01141C66.0288 6.48366 65.358 5.5521 63.793 5.92472C62.228 6.29735 61.6318 8.86844 61.6318 8.86844C61.6318 8.86844 61.4828 6.74449 59.3588 6.52092C57.2349 6.29735 56.4524 8.49582 54.4775 7.34069C53.3969 6.74449 52.6889 7.15438 52.3908 7.41521C52.0927 7.67605 51.6083 8.68213 51.6083 8.68213Z" fill="white"/>
<path fill-rule="evenodd" clip-rule="evenodd" d="M49.4098 35.2128C49.4098 35.2128 50.2296 35.809 50.9748 35.1383C51.72 34.4676 52.0927 34.1695 52.8379 34.4303C53.5832 34.6912 54.2539 35.2874 54.1793 35.2501C54.1048 35.2128 53.9185 34.095 54.1793 33.2007C54.4402 32.3064 56.1915 31.5984 57.0858 32.8653C57.9801 34.1322 57.9428 35.2874 57.0113 34.9147C56.117 34.5421 55.8189 34.0204 55.8189 34.0204C55.8189 34.0204 55.4835 36.0699 56.7504 36.1816C58.0174 36.2934 58.6881 34.7284 58.4645 33.6851C58.2409 32.6045 57.1603 30.9649 55.0364 31.263C52.9124 31.5984 53.0615 32.0083 51.8318 32.0083C50.6022 32.0083 49.5588 30.8159 49.5588 30.8159C49.5588 30.8159 51.72 31.263 53.0987 30.5923C54.4774 29.9216 57.2721 29.9216 58.7999 31.7847C60.3276 33.6478 59.7314 35.3619 60.3649 36.0699C61.1101 36.9269 62.6751 36.8151 61.7808 35.4364C61.5573 35.101 61.2592 34.9893 61.2964 34.9893C61.371 34.9893 62.4143 34.3558 63.1223 35.8835C63.8303 37.4113 63.1595 38.3429 61.5945 37.9702C60.0295 37.5976 59.4333 35.0265 59.4333 35.0265C59.4333 35.0265 59.2843 37.1505 57.1603 37.374C55.0364 37.5976 54.2539 35.3991 52.279 36.5543C51.1984 37.1505 50.4904 36.7406 50.1923 36.4797C49.8942 36.2189 49.4098 35.2128 49.4098 35.2128Z" fill="white"/>
<path fill-rule="evenodd" clip-rule="evenodd" d="M7.93694 21.0532L6.40919 23.1026L7.67611 25.152L9.24112 23.1026L7.93694 21.0532ZM78.2507 45.758L78.3998 44.342C78.3998 44.342 73.4812 44.342 71.32 42.9261C69.1587 41.5101 68.7861 41.0257 68.7861 41.0257L51.4592 41.2865C51.4592 41.2865 49.3353 41.8082 48.3292 39.7961C47.3231 37.7839 45.4972 36.3679 44.1558 37.5603C42.8516 38.7155 43.2615 40.9139 43.9695 41.5846C44.6775 42.2554 46.1307 41.771 46.2425 40.7276C46.4661 38.9763 44.8265 38.9763 45.0128 40.6904C45.0128 40.6904 44.1931 39.9824 44.603 39.2371C45.0128 38.4919 46.9132 38.1565 47.025 40.2432C47.0995 42.3299 45.4227 42.8888 44.2303 42.5535C43.0379 42.2181 42.9634 40.9512 42.9634 40.9512C42.9634 40.9512 40.4296 43.336 37.1505 41.0257C33.8714 38.7155 33.2752 37.0014 32.7536 35.2873C32.2319 33.5733 32.6045 32.6045 32.6045 32.6045C28.8783 35.5482 24.4814 29.3999 22.4319 27.2014C20.7924 25.4501 19.2274 24.2577 18.5194 23.8106C17.8114 23.3634 17.5133 23.1771 17.4015 23.1026C17.5133 23.0281 17.8487 22.8418 18.6312 22.3946C19.4137 21.9475 21.1278 20.7551 22.9909 19.0037C25.3384 16.8053 30.5924 10.657 33.9087 13.6007C33.9087 13.6007 33.6851 12.5946 34.4304 10.9178C35.1756 9.20379 35.9954 7.48972 39.6098 5.17947C43.2243 2.86921 45.4227 5.25399 45.4227 5.25399C45.4227 5.25399 45.6463 3.98708 46.9132 3.65172C48.1429 3.31636 49.7824 3.87529 49.4098 5.96197C49.0372 8.04866 47.174 7.7133 46.8759 6.96805C46.5779 6.22281 47.4721 5.51483 47.4721 5.51483C47.025 7.22889 48.7018 7.26615 48.7018 5.47757C48.7018 4.47149 47.3604 3.98708 46.5406 4.62053C45.7208 5.29125 44.9756 7.45246 46.1307 8.64485C47.2858 9.79998 49.298 8.42128 50.6022 6.40912C51.8691 4.39696 53.9185 4.91863 53.9185 4.91863L71.2082 5.17947C71.2082 5.17947 71.6181 4.69506 74.0028 3.27909C76.4249 1.86313 81.3435 1.86313 81.3435 1.86313L81.3808 0.447167L69.4941 0.521691C69.4941 0.521691 69.4941 0.521691 59.9922 0.372642C56.4523 0.33538 54.1048 0.0745447 52.6143 0.67074C50.6394 1.49051 49.5961 2.60837 49.5961 2.60837C49.5961 2.60837 49.1117 2.27302 47.9566 1.45325C47.025 0.782527 45.1992 -0.149029 41.622 0.596216C33.6851 2.19849 32.0456 9.50188 32.0456 9.50188C32.0456 9.50188 30.4433 9.01748 28.6547 9.98629C23.289 12.8927 20.457 18.5566 14.7932 20.8669C14.7932 20.8669 12.1848 21.1277 12.1848 20.1589C12.2221 19.1901 13.8244 19.4882 13.8244 19.4882C13.8244 19.4882 14.3088 18.2212 12.4084 17.476C10.508 16.7308 10.2472 19.2646 10.2472 19.2646C10.2472 19.2646 9.80005 19.2273 9.91184 18.0349C10.0236 16.8425 10.2099 15.3521 7.63884 15.6129C5.06775 15.8737 5.73847 20.1589 5.96205 20.606C6.18562 21.0532 5.96205 21.1277 5.14228 20.5315C4.32251 19.9726 2.42214 18.4821 1.04343 19.5627C-0.111694 20.4942 -0.484316 25.6364 0.559026 26.6052C1.78868 27.6858 3.91262 26.2326 4.80692 25.6364C5.70121 25.0775 5.92478 25.152 5.62669 25.5619C5.32859 26.009 4.06167 30.2942 6.5955 30.555C9.12933 30.8159 9.1666 29.2881 9.20386 28.133C9.24112 26.9406 9.68827 26.9033 9.68827 26.9033C9.68827 26.9033 9.651 29.4372 11.6632 28.6919C13.6753 27.9467 13.3772 26.6798 13.3772 26.6798C13.3772 26.6798 11.7377 26.9779 11.8122 26.009C11.924 25.0402 14.4951 25.3011 14.4951 25.3011C19.8236 27.6486 21.873 33.3124 26.8289 36.2189C28.4684 37.1877 30.1452 36.7033 30.1452 36.7033C30.1452 36.7033 30.7787 44.0067 38.492 45.6462C41.9573 46.3915 43.9322 45.4599 44.9383 44.7892C46.2052 43.9694 46.7269 43.6341 46.7269 43.6341C46.7269 43.6341 47.6212 44.7519 49.4843 45.5344C50.9003 46.1306 53.285 45.9071 56.825 45.8325C66.3641 45.6835 66.3641 45.6835 66.3641 45.6835L78.2507 45.758Z" fill="white"/>
<path fill-rule="evenodd" clip-rule="evenodd" d="M57.682 19.898L56.0424 21.3513C56.0424 21.3513 53.6204 18.7802 51.3847 17.9604C49.1862 17.1779 48.0683 16.9916 48.0683 16.9916L47.5094 14.1969C47.5094 14.1969 49.8942 14.2342 53.2478 16.0973C56.6014 17.9977 57.682 19.898 57.682 19.898Z" fill="white"/>
<path fill-rule="evenodd" clip-rule="evenodd" d="M53.3596 20.1961L55.1109 21.6866C55.1109 21.6866 54.0303 22.8418 51.5338 23.9224C49.0372 25.003 47.3231 25.0775 47.3231 25.0775L47.733 22.3946C47.733 22.3946 49.3725 22.4691 50.863 21.7239C53.0242 20.6805 53.3596 20.1961 53.3596 20.1961Z" fill="white"/>
<path fill-rule="evenodd" clip-rule="evenodd" d="M52.1299 20.2334L49.3725 21.7239C49.3725 21.7239 48.3664 21.0532 46.4288 21.165C44.4912 21.2768 43.8577 21.6866 43.8577 21.6866L41.7338 20.1216C41.7338 20.1216 43.7087 18.892 46.7642 18.892C49.7451 18.8547 52.1299 20.2334 52.1299 20.2334Z" fill="white"/>
<path fill-rule="evenodd" clip-rule="evenodd" d="M47.3975 18.0349L45.1991 18.2213C45.1991 18.2213 44.901 12.4456 41.7337 11.4395C38.5291 10.4335 38.4919 14.4578 38.4919 15.5011C38.4919 16.5445 38.5664 16.9171 38.5664 16.9171L37.0014 18.2213C37.0014 18.2213 35.6227 12.5201 38.1565 9.98631C40.4295 7.71331 43.4477 8.71939 45.2736 10.9551C46.5405 12.4829 46.9876 14.7186 47.2485 16.4699C47.323 17.327 47.4348 18.0349 47.3975 18.0349Z" fill="white"/>
<path fill-rule="evenodd" clip-rule="evenodd" d="M35.66 20.1589L36.4798 21.2768C36.4798 21.2768 38.9764 18.9293 41.3984 17.8859C43.8205 16.8426 44.1931 16.9171 44.1931 16.9171L43.5969 14.7559C43.5969 14.7559 42.8144 14.9795 39.9079 16.619C37.0387 18.2958 35.66 20.1589 35.66 20.1589Z" fill="white"/>
<path fill-rule="evenodd" clip-rule="evenodd" d="M40.057 19.5255L38.3429 20.7551C38.3429 20.7551 39.2372 22.2829 41.2866 23.5498C43.336 24.8167 43.6714 24.7794 43.6714 24.7794L44.3794 22.2829C44.3794 22.2829 43.0379 22.022 41.771 21.1277C40.4296 20.2707 40.057 19.5255 40.057 19.5255Z" fill="white"/>
<path fill-rule="evenodd" clip-rule="evenodd" d="M47.0995 22.0965L45.0874 21.9847C45.0874 21.9847 44.5657 24.6676 44.1931 25.5619C43.8204 26.4562 43.8204 26.4562 43.8204 26.4562H46.2052C46.2052 26.4562 46.6896 25.0775 46.8759 23.8479C47.0622 22.5809 47.0995 22.0965 47.0995 22.0965Z" fill="white"/>
<path fill-rule="evenodd" clip-rule="evenodd" d="M52.9497 24.6676L54.6638 26.0836C54.6638 26.0836 50.9376 29.1764 46.8387 29.6235C45.5346 29.7726 43.9695 29.7353 42.7399 29.3999C40.1315 28.7292 38.2684 26.9034 38.2684 26.9034L39.4608 25.1148C39.4608 25.1148 40.9513 27.0524 44.8266 27.2387C48.7391 27.4996 52.9497 24.6676 52.9497 24.6676Z" fill="white"/>
<path fill-rule="evenodd" clip-rule="evenodd" d="M39.7588 23.9596L38.2683 22.6182C34.2067 26.3816 32.2691 37.4113 38.9017 35.9953C42.3671 35.2501 44.901 30.555 44.901 30.555L42.2926 30.2942C42.2926 30.2942 40.6158 33.1261 38.5664 33.4615C36.517 33.7968 36.2561 31.0767 36.7405 28.8782C37.1877 26.6425 39.7588 23.9596 39.7588 23.9596Z" fill="white"/>
<path fill-rule="evenodd" clip-rule="evenodd" d="M37.0759 23.0654L35.958 24.7422C35.958 24.7422 32.9398 20.7551 31.1139 20.5688C29.2881 20.3825 27.6485 21.8357 27.6485 21.8357C27.6485 21.8357 28.4683 23.3262 30.1451 23.3262C31.8219 23.3635 32.5671 22.4692 32.7907 22.2829L33.8713 23.5125C33.8713 23.5125 30.8903 25.003 30.4805 26.2699C30.0706 27.5368 30.2569 28.5056 31.1512 28.2821C32.0455 28.0585 32.3808 27.4623 31.8964 27.2387C31.3747 27.0152 30.9649 27.276 30.9649 27.276C30.9649 27.276 31.1884 25.3756 32.7162 25.9345C34.2439 26.4935 32.7162 29.2881 31.1512 30.0334C29.5862 30.7786 28.3938 29.549 27.8721 28.5429C27.3504 27.5368 26.009 27.2015 26.009 27.2015C26.009 27.2015 25.9345 26.4562 27.0523 26.1209C28.1702 25.7855 28.6173 25.8973 28.6173 25.8973C28.6173 25.8973 26.158 25.3011 25.6736 24.0714C25.1892 22.8418 23.9968 22.0593 23.9968 22.0593C23.9968 22.0593 25.0774 21.7239 25.7481 20.5688C26.4189 19.4137 27.2014 18.6312 27.9839 18.4821C28.7664 18.3331 29.5116 17.9604 29.5116 17.9604C29.5116 17.9604 28.431 18.3703 27.6485 17.5878C26.866 16.8053 27.0523 16.619 27.0523 16.619C29.6979 17.2152 29.5489 14.7931 31.412 14.0852C33.6477 13.2281 34.9147 15.762 34.393 16.9916C34.1321 17.6251 33.6477 17.8114 33.3869 17.8859C33.0515 17.9977 32.6044 17.8114 32.4553 17.5133C32.3063 17.2525 32.3808 16.9171 32.3808 16.9171C32.3808 16.9171 33.3496 17.1407 33.4242 16.6563C33.5359 15.762 32.5299 15.5384 31.9337 15.911C31.263 16.3209 31.0766 17.4015 32.6044 18.5939C33.5732 19.3764 36.1816 21.9102 36.6287 22.4692C37.0759 23.0654 37.0759 23.0654 37.0759 23.0654Z" fill="white"/>
<path fill-rule="evenodd" clip-rule="evenodd" d="M94.9815 1.86313C95.6522 1.86313 96.2111 2.53385 96.2111 3.31635C96.2111 4.13612 95.6522 4.76958 94.9815 4.76958C94.3108 4.76958 93.7518 4.09886 93.7518 3.31635C93.7518 2.49659 94.3108 1.86313 94.9815 1.86313Z" fill="white"/>
<path fill-rule="evenodd" clip-rule="evenodd" d="M94.9815 41.1375C95.6522 41.1375 96.2111 41.8083 96.2111 42.5908C96.2111 43.3733 95.6522 44.044 94.9815 44.044C94.3108 44.044 93.7518 43.3733 93.7518 42.5908C93.7518 41.8083 94.3108 41.1375 94.9815 41.1375Z" fill="white"/>
</g>
<defs>
<clipPath id="clip0_83_11424">
<rect width="190" height="73.4438" fill="white"/>
</clipPath>
</defs>
</svg>
